<svg style="position:absolute;width:0;height:0" xmlns="http://www.w3.org/2000/svg" overflow="hidden"><defs><symbol id="logob" viewBox="0 0 125 32"><path d="M25.956 4.756h-.329l-.16.018-.151.009-.16.018-.151.018-.453.08-.151.036-.142.036-.151.044-.284.089-.142.062-.142.044-.142.062-.133.062-.4.213-.133.08-.124.08-.133.089-.124.08-.124.089-.124.098-.116.098-.124.107-.124.098-.107.116-.124.116-.107.116-.116.116-.107.116-.098.124-.098.116-.098.124-.178.249-.089.133-.089.124-.284.533-.062.133-.053.142-.053.133-.107.284-.044.142-.036.142-.044.151-.027.142-.036.151-.053.302-.018.151-.018.16-.009.16-.009.151v.16l-.009.16v.16l.009.16v.16l.018.16.018.151.018.16.053.302.036.151.027.142.044.151.036.142.044.142.053.151.053.133.053.142.053.133.062.142.213.4.08.133.08.124.089.133.267.373.107.124.098.116.107.116.116.116.107.124.124.107.107.116.124.098.124.107.116.098.124.089.124.098.124.089.133.089.124.071.133.089.133.071.133.062.133.071.133.062.142.062.284.107.284.089.151.044.142.036.151.036.453.08.151.018.16.018.151.009.32.018h.489l.16-.018h.151l.16-.027.151-.018.453-.08.151-.036.142-.036.151-.044.133-.044.151-.044.133-.053.142-.053.142-.062.133-.062.133-.071.133-.062.267-.16.124-.08.133-.089.124-.08.249-.178.124-.107.116-.107.116-.098.116-.116.124-.107.116-.124.213-.231.089-.116.107-.124.089-.124.098-.124.089-.124.089-.133.08-.124.071-.133.089-.133.124-.267.071-.142.053-.133.053-.142.053-.133.044-.151.053-.142.036-.142.044-.151.027-.142.036-.151.053-.302.018-.16.018-.151v-.16l.018-.16v-.16l.009-.16v-.32l-.018-.151-.009-.16-.018-.16-.018-.151-.053-.302-.036-.151-.027-.142-.044-.151-.036-.142-.053-.142-.044-.142-.053-.142-.053-.133-.053-.142-.071-.133-.062-.133-.071-.133-.08-.133-.071-.133-.08-.124-.089-.133-.267-.373-.107-.116-.098-.124-.213-.231-.116-.116-.124-.116-.116-.116-.116-.098-.116-.107-.124-.089-.124-.107-.249-.178-.133-.089-.124-.071-.133-.089-.133-.062-.267-.142-.133-.062-.142-.062-.142-.044-.133-.062-.151-.044-.133-.044-.151-.044-.142-.036-.151-.036-.453-.08-.151-.018-.16-.018-.151-.009-.16-.018h-.16zm0-.383h.347l.16.009.169.018.16.018.169.018.169.027.16.027.151.036.16.036.151.044.16.036.453.16.151.062.142.053.151.071.133.071.142.071.142.08.142.089.133.08.142.089.133.089.124.098.133.107.133.098.124.107.249.231.124.124.116.124.124.124.107.116.116.133.098.124.196.267.089.133.098.133.089.142.08.133.08.142.071.133.071.151.071.142.062.142.16.453.044.151.053.151.036.151.071.32.053.32.018.169.018.16.009.178.018.16v.684l-.018.169v.169l-.027.16-.018.169-.053.32-.071.32-.036.151-.053.16-.044.151-.107.302-.053.142-.062.151-.071.142-.071.151-.071.133-.089.142-.071.133-.089.142-.178.267-.107.133-.089.133-.107.133-.116.124-.107.124-.124.124-.116.124-.373.347-.124.107-.133.107-.133.089-.124.107-.133.089-.142.089-.133.089-.142.089-.284.142-.133.071-.151.062-.142.071-.151.053-.151.062-.151.053-.151.044-.16.044-.151.036-.16.036-.151.036-.16.027-.169.027-.169.018-.16.018-.169.018h-.169l-.169.009h-.516l-.178-.009-.16-.018-.169-.018-.16-.018-.32-.053-.48-.107-.302-.089-.16-.053-.151-.062-.142-.053-.151-.071-.142-.062-.284-.142-.142-.08-.142-.089-.133-.071-.133-.089-.142-.098-.133-.098-.124-.098-.133-.107-.124-.107-.373-.347-.124-.124-.116-.124-.213-.249-.213-.267-.089-.133-.098-.133-.089-.133-.089-.142-.089-.133-.071-.142-.071-.133-.071-.151-.071-.142-.062-.151-.062-.142-.044-.151-.053-.151-.044-.151-.053-.16-.036-.151-.071-.32-.053-.32-.018-.169-.018-.16-.009-.178-.009-.16-.009-.178v-.507l.018-.169v-.169l.027-.16.018-.169.053-.32.071-.32.036-.151.053-.151.044-.151.053-.151.044-.151.062-.151.062-.142.071-.142.071-.151.071-.133.08-.142.089-.133.08-.142.178-.267.098-.133.107-.133.107-.124.107-.133.107-.116.116-.124.249-.249.249-.231.124-.107.133-.098.124-.107.133-.089.142-.098.267-.178.142-.089.569-.284.151-.053.142-.062.151-.053.16-.053.151-.053.151-.036.16-.044.32-.071.32-.053.16-.018.178-.018.16-.018h.169l.178-.009z"/><path d="M26.116 17.582h-.507l-.32-.027-.178-.018-.16-.018-.32-.053-.16-.036-.302-.071-.16-.044-.293-.098-.16-.062-.142-.053-.284-.133-.142-.062-.16-.089-.124-.071-.142-.089-.267-.169-.267-.178-.124-.107-.258-.204-.124-.116-.24-.231-.124-.124-.222-.24-.107-.133-.204-.267-.089-.116-.187-.267-.089-.142-.089-.133-.142-.276-.142-.302-.116-.284-.107-.302-.133-.462-.089-.471-.044-.311-.036-.338-.018-.489.018-.507.036-.329.044-.32.089-.471.133-.453.116-.302.116-.284.062-.142.071-.142.16-.284.08-.133.356-.533.107-.133.213-.249.222-.249.124-.116.24-.24.249-.213.124-.089.133-.116.267-.187.267-.178.267-.151.151-.08.151-.062.133-.071.16-.062.133-.053.16-.062.293-.089.16-.053.311-.071.16-.036.16-.027.32-.044.32-.027.187-.009V4.42h.649l.178.018.32.027.32.044.16.027.16.036.471.124.302.089.133.062.151.053.293.133.284.142.276.16.4.267.133.098.258.204.249.213.24.231.124.124.231.258.089.116.116.133.196.258.178.267.16.267.089.151.213.418.116.284.053.151.098.302.089.311.062.311.053.311.018.16.018.169.027.32v.676l-.027.329-.018.169-.018.16-.053.32-.071.311-.089.311-.089.302-.062.142-.116.293-.071.151-.142.276-.08.142-.16.267-.187.267-.196.267-.213.249-.222.249-.24.24-.124.116-.249.213-.133.107-.258.196-.4.267-.133.071-.151.089-.276.142-.293.124-.142.062-.151.053-.302.098-.151.044-.311.071-.16.036-.311.053-.169.018-.16.018-.329.027zm-.32-.622h.311l.151-.009.302-.027.142-.009.151-.018.427-.08.284-.071.133-.036.276-.089.124-.053.133-.044.267-.124.249-.124.249-.142.249-.16.116-.08.347-.267.231-.204.231-.213.107-.107.204-.231.196-.231.178-.231.16-.24.151-.249.071-.124.124-.258.062-.124.107-.267.053-.124.089-.276.071-.276.062-.284.044-.293.027-.142.009-.142.018-.311.018-.302-.018-.311-.018-.302-.009-.142-.027-.142-.044-.293-.062-.267-.071-.284-.089-.276-.053-.124-.107-.267-.187-.382-.071-.124-.151-.24-.169-.249-.178-.231-.098-.116-.089-.116-.204-.222-.107-.107-.231-.222-.222-.196-.24-.187-.116-.089-.116-.08-.249-.151-.373-.213-.124-.062-.267-.116-.267-.107-.267-.089-.133-.036-.284-.071-.142-.027-.133-.027-.302-.036-.293-.027-.302-.018h-.462l-.151.018-.302.027-.293.036-.284.053-.276.071-.142.036-.267.089-.142.053-.124.053-.267.116-.124.062-.373.213-.249.151-.231.169-.116.089-.124.098-.116.098-.107.098-.116.107-.222.222-.204.222-.196.231-.089.116-.08.116-.178.249-.071.124-.071.116-.142.258-.062.124-.053.124-.107.267-.098.267-.116.409-.089.427-.044.284-.027.302-.018.453.018.453.027.302.044.293.089.427.116.409.089.267.116.267.053.133.062.116.142.267.071.107.08.124.169.249.356.462.222.231.098.107.222.213.116.089.24.204.107.089.24.169.249.16.133.071.116.071.116.062.142.062.267.124.116.044.142.053.267.089.142.036.276.071.142.027.293.053.142.018.151.009.302.027z"/><path d="M26.133 17.964h-.542l-.178-.009-.356-.036-.16-.018-.356-.062-.489-.107-.32-.098-.16-.053-.32-.124-.453-.213-.151-.08-.142-.08-.302-.178-.267-.187-.142-.098-.142-.107-.267-.222-.133-.116-.382-.382-.116-.124-.231-.267-.213-.267-.107-.142-.089-.142-.098-.133-.178-.293-.16-.293-.071-.151-.071-.16-.133-.311-.107-.311-.089-.32-.053-.169-.107-.507-.062-.516-.018-.347-.009-.347.009-.364.027-.356.062-.507.062-.329.036-.178.044-.16.098-.311.116-.32.124-.311.071-.151.071-.142.089-.151.071-.142.089-.151.178-.284.213-.284.204-.267.116-.133.24-.258.258-.258.258-.231.133-.116.267-.213.284-.196.284-.178.302-.178.293-.151.151-.071.32-.124.48-.16.32-.089.169-.036.329-.071.178-.027.169-.018.356-.036h.222v-.009h.658l.178.018.347.027.356.053.329.062.16.036.329.089.471.16.302.133.169.071.133.071.16.08.142.08.151.089.133.089.151.089.142.098.267.213.142.107.267.231.124.116.133.133.24.258.231.267.107.124.107.133.293.427.098.151.071.133.089.151.08.142.142.302.071.16.116.311.053.16.098.311.044.178.036.16.036.178.053.32.044.356.018.338.009.356v.356l-.027.356-.044.347-.053.338-.071.338-.044.16-.098.32-.053.16-.116.311-.071.16-.142.302-.089.142-.16.293-.089.151-.196.267-.204.284-.116.142-.107.124-.124.133-.24.258-.267.249-.249.213-.151.124-.133.089-.133.116-.142.089-.142.098-.142.089-.151.089-.142.08-.151.08-.151.071-.311.142-.302.116-.169.053-.329.098-.489.116-.338.053-.178.018-.338.036h-.178zm-.355-.622h.338l.169-.009.16-.009.32-.036.151-.018.311-.044.444-.107.293-.089.142-.044.284-.107.133-.062.151-.071.124-.062.267-.142.267-.16.124-.089.133-.089.249-.178.116-.107.133-.107.116-.098.24-.231.222-.231.107-.133.107-.116.089-.116.196-.258.178-.258.089-.124.151-.267.062-.133.071-.133.062-.133.053-.142.116-.293.044-.133.089-.302.044-.142.027-.151.036-.142.044-.32.044-.311.018-.32.009-.329-.009-.329-.018-.32-.089-.622-.036-.151-.027-.151-.044-.142-.089-.293-.044-.142-.107-.284-.124-.267-.133-.267-.089-.142-.071-.133-.08-.124-.178-.258-.089-.124-.098-.124-.089-.124-.222-.24-.231-.24-.116-.116-.116-.107-.24-.213-.124-.089-.249-.196-.124-.089-.142-.089-.124-.089-.133-.071-.124-.071-.142-.071-.133-.062-.142-.062-.267-.124-.444-.142-.293-.08-.142-.036-.311-.053-.151-.027-.151-.018-.32-.036h-.169l-.16-.009h-.498l-.16.009-.32.036-.151.018-.151.027-.311.053-.151.036-.293.08-.436.142-.276.116-.133.071-.284.133-.124.071-.133.08-.133.089-.133.08-.249.178-.249.196-.124.107-.231.213-.24.24-.222.231-.089.124-.204.249-.178.249-.178.267-.071.124-.142.267-.071.142-.062.133-.116.267-.098.293-.089.293-.044.142-.027.151-.062.302-.062.471-.018.32-.009.329.009.329.018.32.062.471.062.302.027.151.044.142.089.302.089.284.124.284.062.133.213.4.16.267.267.373.098.133.089.116.222.249.107.116.116.116.24.231.116.098.249.213.249.178.258.178.267.16.267.142.409.196.284.107.142.044.302.089.444.107.311.044.151.018.329.036h.16zM46.196 4.756h7.982v.382h-3.822v12.151h-.382V5.138h-3.778zm-11.325 0h.409l8.853 12.018V4.756h.391v12.533h-.409L35.262 5.271v12.018h-.391z"/><path d="M44.436 17.716l-.098-.133h-.356l-8.391-11.36v11.378h-1.013V4.41h.382v-.124l.089.124h.364l8.382 11.369V4.419h1.022v13.164h-.382zm6.222-.134h-1.022V5.431h-3.778V4.418h8.613v1.013h-3.822zM19.68.996h84.596V0H19.68zm24.373 29.173h2.169l-1.067-2.613zm1.263-3.342l1.449 3.378h.462v.862h-.471v-.471h-3.138v.516h-.471v-.898h.462l1.458-3.378zm10.026 0l-1.867 1.733 2.018 2.036h-.676l-1.689-1.742-.16.133v1.6h-.471v-3.76h.471v1.591l1.716-1.591zm18.907 0v.427h-1.031v3.342h-.471v-3.342h-.987v-.427zm8.444 0v3.769h-.507V28.8H79.99v1.796h-.471v-3.769h.471v1.502h2.196v-1.502zm-24.977 3.377H58l.053.018.044-.009h.044l.044-.018.053-.009.089-.036.044-.009.053-.018.036-.018.044-.027.089-.036.16-.107.071-.062.071-.071.124-.142.062-.089.044-.08.053-.089.053-.133.018-.053.009-.044.018-.053.027-.089v-.053l.009-.044v-.107l.044-.044v-.213l-.009-.071-.018-.071-.009-.071-.027-.071-.018-.071-.027-.071-.027-.062-.036-.071-.036-.053-.133-.187-.053-.053-.053-.062-.053-.053-.062-.044-.053-.053-.053-.036-.071-.044-.124-.071-.062-.027-.071-.027-.071-.018-.062-.027-.071-.018h-.071l-.071-.018h-.311l-.142.018-.071.018-.071.027-.071.018-.124.053-.062.036-.071.036-.053.044-.062.036-.062.053-.053.044-.116.116-.044.053-.044.062-.053.062-.036.062-.036.053-.036.071-.027.062-.027.071-.018.071-.027.071-.009.071-.018.071v.071l-.009.08v.276l.009.053.018.044v.044l.018.053.018.044.009.044.018.053.036.089.027.044.018.044.08.133.053.08.062.071.071.071.142.124.08.053.089.053.044.018.036.027.053.018.036.018.053.018.044.018.044.009.044.018.053.009.044.009h.044l.053.018zm.151-3.493h.107l.107.009.098.009.098.027.107.018.089.027.107.036.089.036.178.089.08.053.089.053.071.062.089.062.062.071.08.089.062.062.053.08.062.071.044.089.053.071.08.16.071.178.018.089.027.089.018.089.018.178.018.107v.196l-.018.089v.098l-.027.089-.009.089-.027.098-.027.089-.071.178-.044.08-.036.089-.053.071-.116.16-.062.071-.062.089-.08.062-.071.071-.071.062-.16.107-.089.044-.08.044-.089.044-.089.036-.089.027-.098.027-.089.018-.107.018-.107.009-.098.009h-.32l-.107-.018-.098-.018-.089-.018-.107-.027-.089-.027-.089-.036-.267-.133-.071-.053-.089-.053-.204-.204-.071-.08-.062-.071-.116-.16-.044-.08-.044-.089-.044-.08-.036-.089-.036-.08-.053-.178-.018-.089-.018-.098v-.089l-.009-.098v-.293l.009-.089.018-.098.018-.089.08-.267.036-.089.08-.16.053-.071.044-.089.053-.071.124-.142.071-.08.16-.142.08-.062.089-.053.071-.053.178-.089.089-.036.107-.036.089-.027.107-.018.089-.027h.107l.107-.009zm-9.663 1.618h2.871l-.027-.089-.027-.098-.071-.178-.036-.062-.044-.08-.036-.062-.053-.062-.044-.062-.107-.107-.071-.044-.124-.089-.08-.044-.071-.036-.089-.036-.071-.027-.08-.027-.089-.018-.16-.036h-.311l-.062.009-.071.009-.062.009-.062.018-.071.018-.053.027-.124.053-.053.027-.062.036-.107.071-.107.089-.107.107-.027.036-.071.089-.027.044-.027.053-.027.044-.027.053-.027.062-.018.053-.053.124-.018.062zm1.6-1.627l.053.036h.053l.062.018h.053l.053.018.053.009.107.036.053.009.044.027.053.009.044.027.053.018.133.08.053.027.089.053.089.071.08.071.044.036.036.044.08.08.071.089.053.062.089.142.036.071.036.08.071.142.053.169.018.08.044.267v.089l.036.089v.107h-3.404v.08l.009.08.009.071.018.08.009.071.027.071.018.071.027.062.027.071.027.062.071.124.044.062.089.107.053.053.044.053.053.044.062.044.107.071.124.071.124.053.133.036.062.009.071.018h.071l.071.009h.293l.213-.053.062-.018.071-.027.062-.027.071-.018.062-.036.053-.036.062-.027.053-.036.053-.044.044-.036.027-.027.027-.018.027-.027.018-.027.08-.08.018-.036.053-.071.036-.036.027-.036.027-.044.018-.044.036-.044.027-.044.409.213-.053.098-.107.178-.062.089-.053.071-.062.071-.062.062-.071.062-.062.053-.071.062-.071.044-.071.053-.08.044-.071.036-.089.036-.071.036-.089.036-.089.018-.089.027-.089.018-.089.009-.107.009-.098.009h-.329l-.32-.053-.089-.027-.098-.036-.178-.071-.089-.044-.089-.053-.071-.044-.08-.062-.071-.062-.142-.142-.062-.08-.053-.071-.107-.16-.044-.08-.053-.089-.036-.071-.036-.089-.027-.089-.027-.08-.027-.089-.018-.089-.009-.089-.018-.089v-.284l-.009-.089v-.089l.018-.08.018-.089.018-.08.018-.089.027-.071.036-.089.027-.071.08-.16.036-.062.053-.08.044-.071.062-.062.027-.053.08-.08.036-.044.036-.036.044-.036.071-.071.053-.036.036-.027.044-.036.178-.107.089-.036.053-.027.053-.018.044-.018.053-.009.098-.036.16-.027.062-.018h.044l.062-.036h.053l.062.044h.116l.062-.044zm12.756 3.556h.08l.053-.009h.089l.053-.009h.044l.044-.009.044-.018h.053l.089-.036.044-.009.044-.018.053-.018.124-.062.133-.08.036-.027.036-.036.044-.027.036-.036.071-.062.071-.071.062-.089.053-.08.107-.178.036-.089.018-.053.036-.089.009-.053.018-.044.009-.044v-.053l.018-.044v-.098l.044-.053v-.098l-.044-.053v-.098l-.009-.044-.009-.053-.009-.044-.018-.053-.009-.044-.089-.222-.027-.053-.133-.222-.062-.071-.071-.071-.062-.071-.089-.062-.071-.053-.089-.053-.036-.027-.044-.018-.044-.027-.089-.036-.142-.044-.044-.009-.053-.009-.089-.018h-.302l-.08.009-.071.009-.071.018-.08.009-.071.027-.062.018-.071.027-.062.027-.187.107-.062.044-.053.044-.062.053-.107.107-.044.053-.089.124-.107.187-.027.071-.027.062-.027.071-.009.08-.018.071-.018.08v.498l.018.053.018.089.009.053.071.178.018.053.027.036.018.044.053.089.062.071.027.044.036.036.027.036.027.027.044.036.036.036.036.027.036.036.044.027.036.027.044.036.044.018.053.027.044.027.036.018.053.018.089.036.053.009.044.018.089.018.053.018h.098zm.044-3.556l.062.044h.151l.098-.009.098.009.178.036.098.027.178.062.089.036.089.044.071.053.089.053.071.053.071.062.08.062.142.142.062.08.062.071.053.08.107.169.036.08.071.178.053.178.018.089.018.107.009.089.027.098v.213l-.027.089v.107l-.027.089-.018.098-.053.187-.107.267-.053.08-.044.089-.062.071-.062.08-.062.071-.062.08-.071.062-.08.071-.071.062-.16.107-.089.053-.08.036-.08.044-.089.027-.089.036-.089.027-.178.036-.098.009h-.258l-.053.036h-.053l-.053-.036-.053-.009h-.053l-.053-.018-.053-.009-.053-.018-.053-.009-.044-.018-.107-.036-.044-.018-.053-.018-.089-.053-.044-.018-.053-.036-.089-.053-.044-.036-.036-.027-.053-.036-.036-.036-.044-.036-.036-.044-.044-.044-.044-.036-.071-.089-.009-.044v2.018h-.516v-5.138h.516v.64l.044-.044.107-.133.044-.036.036-.044.133-.107.036-.036.044-.036.133-.08.053-.027.044-.027.053-.018.044-.027.053-.018.044-.018.053-.018.044-.009.053-.018.062-.009.044-.009.053-.009.062-.009.053-.036zm6.996 0l.089.027.089.009.267.053.267.08.089.036.071.027.08.036.071.044.062.036.071.044.124.089.053.053.062.053.044.062.053.062.044.053.053.071.044.071-.391.24-.036-.036-.062-.089-.036-.036-.027-.036-.036-.027-.071-.071-.044-.027-.036-.036-.036-.027-.044-.018-.036-.027-.089-.053-.036-.018-.222-.089-.044-.009-.053-.018h-.044l-.053-.018-.044-.009h-.053l-.053-.009h-.053l-.044-.027h-.196l-.089.018-.071.009-.089.018-.071.009-.089.027-.062.018-.142.053-.08.036-.124.071-.071.044-.053.044-.062.053-.116.116-.044.053-.053.053-.044.062-.036.062-.036.071-.044.062-.027.062-.053.142-.018.071-.009.071-.018.071-.009.08.018.071v.231l-.009.053v.053l.018.044v.053l.018.044.018.053.018.044.009.044.027.053.036.089.027.053.027.044.027.036.027.053.027.036.036.044.027.044.178.178.089.062.071.053.133.08.053.027.044.018.053.018.044.018.053.018.044.009.053.018.107.018.053.018h.107l.053-.018h.062l.053.036.053-.036h.053l.044.036h.169l.053-.009.053-.018.142-.027.044-.018.053-.018.044-.018.044-.009.044-.027.089-.036.036-.027.133-.08.036-.027.044-.027.036-.036.044-.027.036-.044.036-.027.036-.036.036-.044.036-.036.036-.044.036-.036.4.258-.036.053-.036.044-.044.053-.036.053-.044.036-.044.053-.044.036-.044.044-.044.036-.053.044-.107.071-.053.027-.053.044-.053.027-.062.027-.053.027-.124.053-.062.018-.133.044-.124.036h-.071l-.062.027h-.08l-.062.018h-.151l-.071.009h-.302l-.32-.053-.196-.053-.098-.036-.089-.044-.107-.036-.178-.107-.08-.053-.08-.062-.16-.142-.142-.142-.062-.089-.053-.071-.062-.089-.044-.089-.053-.08-.107-.267-.027-.089-.018-.107-.018-.089-.009-.107-.009-.098v-.276l.009-.071.018-.062.009-.062.009-.071.018-.062.027-.062.036-.124.053-.124.027-.053.071-.124.027-.062.044-.053.036-.053.044-.053.036-.053.053-.044.036-.053.044-.044.053-.044.044-.044.053-.036.062-.044.044-.044.062-.036.053-.036.062-.027.062-.036.062-.027.062-.036.062-.027.062-.018.071-.027.062-.018.071-.018.133-.027.071-.009.071-.018h.142l.08-.036zm5.636 1.627h2.862l-.027-.089-.027-.098-.036-.089-.027-.089-.036-.062-.044-.08-.089-.124-.053-.062-.044-.053-.062-.053-.124-.089-.142-.089-.16-.071-.071-.027-.089-.027-.08-.018-.089-.018-.071-.018h-.311l-.062.009-.142.018-.124.036-.053.027-.071.027-.053.027-.116.062-.107.071-.107.089-.107.107-.027.036-.044.044-.053.089-.036.053-.027.044-.027.053-.018.062-.027.053-.027.062-.036.124zm1.6-1.627l.053.036h.053l.053.018h.053l.053.018.062.009.053.018.044.018.053.009.053.027.053.009.044.027.053.018.133.08.053.027.044.027.036.027.053.036.036.036.124.107.124.124.071.089.044.062.053.071.036.071.044.071.036.08.071.142.044.169.027.08.044.267v.089l.027.089v.107h-3.404v.08l.009.08.009.071.018.08.009.071.027.071.018.071.027.062.027.071.027.062.071.124.044.062.089.107.053.053.044.053.053.044.062.044.107.071.124.071.124.053.133.036.062.009.071.018h.071l.071.009h.293l.213-.053.062-.018.071-.027.062-.027.071-.018.062-.036.053-.036.062-.027.053-.036.053-.044.044-.036.027-.027.027-.018.027-.027.018-.027.08-.08.018-.036.053-.071.036-.036.027-.036.027-.044.018-.044.036-.044.027-.044.409.213-.053.098-.107.178-.062.089-.053.071-.062.071-.062.062-.071.062-.062.053-.071.062-.071.044-.071.053-.08.044-.071.036-.089.036-.071.036-.089.036-.089.018-.089.027-.089.018-.089.009-.107.009-.098.009h-.329l-.32-.053-.089-.027-.098-.036-.178-.071-.089-.044-.089-.053-.071-.044-.08-.062-.071-.062-.142-.142-.062-.08-.053-.071-.107-.16-.044-.08-.044-.089-.044-.071-.036-.089-.027-.089-.027-.08-.027-.089-.018-.089-.027-.267v-.382l.018-.08.009-.089.027-.08.018-.089.027-.071.027-.089.071-.142.036-.089.044-.062.044-.08.053-.071.053-.062.036-.053.08-.08.036-.044.071-.071.044-.036.036-.036.044-.036.044-.027.036-.036.178-.107.053-.018.044-.018.044-.027.053-.018.044-.018.053-.009.107-.036.16-.027.053-.018h.053l.053-.036h.062l.062.044h.116l.053-.044z"/><path d="M46.276 30.196H44l1.156-2.729zm-2.169-.063h2.071l-1.013-2.489zm13.937.125L58 30.24h-.293l-.053.018-.053-.009-.044-.009-.098-.018-.196-.071-.036-.018-.133-.062-.089-.053-.08-.053-.071-.062-.142-.142-.062-.071-.053-.089-.089-.133-.009-.044-.044-.089-.062-.196-.036-.151-.009-.089-.018-.062v-.249l.027-.151.018-.08.036-.142.053-.142.036-.062.08-.124.089-.133.053-.053.053-.062.053-.053.062-.053.053-.053.062-.036.062-.044.062-.036.071-.036.062-.027.071-.036.133-.036.071-.018.151-.018.071-.009h.24l.151.018.071.009.133.044.071.036.071.027.124.071.062.044.053.036.062.053.053.044.062.062.107.116.133.187.036.062.062.142.027.062.036.151.018.071.027.142.036.089v.142l-.044.053v.098l-.009.044v.044l-.027.098-.062.196-.044.098-.027.044-.018.044-.053.089-.062.089-.124.142-.071.062-.08.071-.08.053-.089.053-.036.018-.133.071-.187.062-.089.018h-.062zm-.755-.16l.187.053.089.027h.044l.044.009.044-.009h.311l.044.009h.036l.053-.009.267-.08.089-.044.16-.089.071-.053.08-.062.133-.133.053-.071.062-.089.044-.08.027-.044.018-.044.044-.089.062-.178.018-.089v-.053l.018-.044v-.116l.044-.053v-.107l-.044-.08-.018-.151-.018-.062-.036-.142-.027-.071-.062-.124-.036-.062-.089-.124-.036-.053-.107-.116-.053-.053-.053-.044-.053-.053-.053-.036-.062-.044-.124-.071-.062-.018-.062-.036-.133-.036-.071-.018-.133-.018h-.24l-.213.027-.062.018-.133.036-.062.036-.062.027-.124.071-.053.036-.062.044-.053.044-.062.044-.044.053-.062.062-.044.053-.089.124-.071.116-.036.071-.053.124-.053.213-.018.142v.24l.009.053.018.089.027.151.062.178.062.133.018.044.053.089.053.08.124.142.142.124.071.053.089.053.08.036zm5.502.186h-.231l-.142-.018-.151-.027-.196-.062-.044-.027-.044-.018-.044-.027-.044-.018-.053-.027-.044-.036-.036-.027-.044-.027-.036-.036-.044-.027-.036-.036-.071-.062-.062-.08-.089-.116-.053-.089-.044-.089-.018-.044-.018-.053-.027-.036-.027-.098-.044-.204-.018-.151v-.196l.018-.16.044-.231.08-.204.027-.071.178-.249.036-.053.169-.169.187-.133.062-.036.062-.027.071-.036.071-.027.133-.036.08-.018.151-.027h.284l.044-.009h.107l.142.036.187.062.089.044.044.018.053.027.089.053.071.062.089.071.062.062.062.071.071.089.053.08.062.089.018.044.027.044.044.098.009.053.027.036.018.053v.044l.018.053.018.044v.062l.018.044v.089l.036.053v.116l-.036.053v.089l-.018.053v.044l-.009.053-.018.044-.009.053-.018.044-.027.053-.009.044-.071.142-.133.222-.062.08-.071.071-.116.098-.036.036-.036.027-.044.036-.089.053-.133.071-.089.036-.142.053-.142.027-.089.009zM61.876 30l.044.027.044.018.089.053.044.018.187.062.142.027.142.018h.204l.053-.018.089-.009.142-.036.133-.044.089-.036.133-.071.08-.044.036-.027.036-.036.044-.027.036-.036.071-.062.062-.071.062-.08.053-.089.053-.08.089-.178.009-.044.027-.044.009-.044.009-.053.018-.044.009-.044v-.044l.018-.053v-.107l.044-.044v-.08l-.044-.044v-.107l-.009-.044v-.053l-.018-.044-.009-.053-.018-.044-.009-.044-.027-.044-.009-.044-.044-.089-.027-.044-.018-.053-.053-.089-.062-.071-.053-.08-.133-.133-.08-.062-.071-.053-.08-.053-.178-.089-.178-.053-.142-.036h-.409l-.151.027-.071.018-.133.036-.062.027-.124.062-.062.036-.124.08-.053.044-.16.16-.044.053-.089.116-.071.124-.027.062-.08.204-.044.213-.009.151v.187l.018.151.036.196.107.267.027.044.044.08.089.116.062.062.062.071.071.053.044.036.071.053zm16.266-1.644h-2.951l.027-.098.044-.133.027-.053.018-.062.053-.107.089-.151.027-.044.044-.044.027-.044.16-.16.107-.071.062-.036.116-.071.124-.053.187-.053.142-.027h.382l.169.027.16.044.089.036.16.071.071.036.071.053.124.089.062.053.107.124.089.124.044.08.036.071.071.178zm-2.862-.063h2.773l-.036-.142-.036-.089-.036-.08-.036-.071-.044-.071-.036-.062-.044-.053-.044-.062-.107-.107-.124-.089-.071-.044-.071-.036-.151-.071-.08-.036-.32-.071h-.364l-.133.027-.062.018-.116.036-.116.053-.116.062-.107.071-.053.044-.089.071-.036.036-.027.036-.027.044-.044.044-.027.036-.089.142-.018.053-.027.053-.018.053-.027.062zm-24.169.063H48.16l.027-.098.044-.133.027-.053.018-.062.053-.107.089-.151.071-.089.027-.044.16-.16.062-.036.107-.071.124-.071.053-.027.062-.027.124-.036.071-.018.133-.027h.391l.16.027.169.044.089.036.151.071.08.036.062.053.133.089.116.116.044.062.053.062.036.062.044.08.036.071.071.178zm-2.862-.063h2.782l-.044-.142-.036-.089-.036-.08-.027-.071-.044-.071-.044-.062-.044-.053-.044-.062-.107-.107-.187-.133-.071-.036-.24-.107-.151-.036-.16-.036h-.373l-.133.027-.062.018-.116.036-.116.053-.116.062-.107.071-.053.044-.089.071-.027.036-.036.036-.027.044-.036.044-.036.036-.08.142-.053.107-.018.053-.027.062zm34.48 2.338h-.533v-1.804h-2.169v1.804h-.533V26.8h.533v1.493h2.169V26.8h.533zm-.471-.071h.409v-3.698h-.409v1.502h-2.293v-1.502h-.409v3.698h.409v-1.796h2.293zm-9.014.071h-.533v-3.342h-.978V26.8h2.507v.489h-.987zm-.462-.071h.4v-3.333h.987v-.356h-2.373v.356h.978zm-17.209.071h-.764l-1.689-1.733-.116.107v1.627h-.533v-3.831h.533v1.538l1.671-1.538h.756l-1.911 1.76zm-.737-.071h.578l-1.982-2.009 1.822-1.689h-.56l-1.751 1.636v-1.636h-.409v3.698h.409v-1.582l.178-.178z"/><path d="M43.653 31.138h-.533v-.96h.444l1.44-3.324v-.053h.311l1.458 3.378h.489v.924h-.542v-.471h-3.067zm-.471-.062h.409v-.516h3.2v.471h.4v-.791h-.462l-1.458-3.378h-.196l-1.467 3.378h-.427zm33.502-.365h-.107l-.231-.018-.107-.018-.204-.053-.089-.027-.178-.071-.089-.044-.178-.107-.142-.124-.08-.071-.062-.071-.124-.16-.107-.16-.089-.16-.044-.089-.036-.089-.036-.08-.044-.178-.036-.178-.009-.098v-.284l-.018-.089.027-.178.018-.089.036-.16.027-.089.062-.151.036-.08.044-.08.089-.151.053-.071.062-.071.027-.044.036-.044.044-.044.071-.08.089-.071.036-.036.044-.036.089-.062.178-.107.142-.062.053-.027.204-.062.213-.036h.053l.053-.044h.08l.062.044h.009v-.044h.107l.062.044h.16l.231.036.151.053.16.053.053.027.044.018.089.053.053.036.044.027.133.089.124.116.044.044.036.044.036.036.08.098.044.062.133.213.071.151.036.08.053.169.018.089.053.258v.089l.027.098v.142h-3.404l.009.116.018.151.018.08.044.133.044.124.142.249.089.107.098.089.053.053.053.044.053.036.116.071.053.036.249.089h.071l.071.018.213.018.213-.018h.071l.133-.036.062-.018.071-.027.187-.08.053-.036.062-.027.053-.036.044-.044.053-.036.018-.027.027-.018.053-.044.018-.036.053-.053.018-.036.036-.027.08-.116.018-.036.027-.044.036-.044.036-.071.471.249-.062.124-.116.178-.116.16-.124.142-.071.062-.133.116-.151.098-.151.089-.169.071-.178.053-.178.044-.302.027zm-1.937-2.169v.276l.018.178.036.178.053.178.027.08.071.16.089.16.053.089.053.071.116.151.071.062.071.071.142.124.08.044.08.053.089.044.178.071.089.027.196.053.098.009.222.027h.213l.284-.036.178-.036.178-.053.071-.036.089-.036.284-.178.133-.116.124-.124.062-.071.116-.151.107-.178.036-.062-.356-.178-.009.018-.027.036-.053.089-.089.107-.027.036-.018.036-.053.053-.027.036-.053.053-.027.018-.018.027-.053.036-.053.044-.053.036-.062.036-.124.062-.204.08-.062.018-.142.036h-.08l-.213.027-.231-.018-.071-.018-.062-.009-.142-.044-.187-.08-.116-.071-.062-.044-.053-.044-.053-.053-.107-.098-.044-.062-.044-.053-.044-.062-.071-.124-.036-.071-.053-.133-.036-.142-.018-.08-.018-.151-.018-.196h3.404v-.062l-.018-.089-.009-.098-.044-.267-.018-.071-.053-.169-.027-.071-.036-.071-.044-.08-.036-.062-.089-.142-.116-.151-.044-.036-.036-.044-.036-.036-.124-.107-.124-.089-.044-.036-.053-.027-.089-.053-.044-.018-.053-.027-.089-.036-.053-.018-.151-.044-.222-.044h-.178l-.053-.036h-.018v.036h-.107l-.062-.036h-.036l-.053.027-.062.009-.204.044-.204.062-.178.08-.089.044-.089.062-.089.053-.044.036-.027.027-.089.08-.071.08-.036.036-.036.044-.027.044-.062.062-.053.071-.089.151-.036.071-.036.08-.062.151-.018.08-.044.16-.018.089zm-5.28 2.214h-.107l-.222-.018-.107-.018-.098-.018-.196-.053-.196-.071-.178-.089-.089-.053-.089-.062-.071-.062-.16-.133-.071-.071-.071-.08-.062-.08-.053-.071-.062-.089-.089-.169-.08-.178-.08-.267-.018-.107-.018-.196v-.178l.018-.204.009-.071.018-.062v-.062l.027-.062.062-.196.08-.187.036-.062.036-.053.036-.071.116-.16.089-.107.044-.044.044-.053.098-.089.053-.036.062-.044.044-.044.249-.142.124-.053.071-.027.062-.018.062-.027.071-.027.204-.044.142-.018.24-.018v-.044h.293l.089.018.196.027.178.044.089.036.089.027.178.071.071.036.151.08.071.044.124.089.116.116.16.187.044.071.062.098-.444.284-.053-.071-.062-.08-.142-.142-.071-.053-.044-.036-.027-.027-.124-.071-.178-.089-.178-.062-.196-.036-.204-.018h-.276l-.16.018-.08.018-.151.044-.071.027-.142.062-.124.071-.071.044-.062.044-.169.169-.098.107-.089.124-.027.062-.044.071-.027.062-.053.133-.044.222-.009.071v.293l-.009.053v.053l.036.133.044.142.062.142.044.089.027.036.027.053.089.116.036.036.036.044.027.036.036.027.036.036.089.062.08.053.089.053.178.089.196.062.16.027h.089l.053-.018h.08l.044.027.036-.027h.08l.053.044h.009l.044-.018h.062l.178-.044.187-.062.178-.089.16-.089.071-.071.044-.027.142-.142.071-.089.053-.053.453.293-.053.089-.044.044-.036.044-.044.053-.044.044-.036.044-.044.044-.053.044-.089.071-.116.08-.107.071-.062.027-.053.027-.062.036-.124.044-.196.071-.133.027-.071.018-.062.009-.071.018-.293.018zm-1.743-3.049l-.027.053-.044.062-.027.062-.036.053-.044.124-.062.178-.018.062v.071l-.027.062v.062l-.018.196v.178l.018.178.018.107.018.089.053.178.071.178.089.151.062.089.053.071.124.142.071.071.151.133.08.062.089.053.071.053.178.089.178.071.204.044.089.027.107.009.213.027h.151l.284-.027.071-.009.062-.018.071-.009.124-.036.187-.062.062-.018.116-.053.062-.036.053-.027.053-.036.053-.027.107-.08.089-.071.053-.036.036-.044.089-.089.036-.044.036-.053.053-.071-.347-.222-.053.053-.027.044-.08.071-.036.036-.036.044-.044.027-.08.062-.169.107-.133.071-.044.018-.187.062-.196.044h-.062l-.044.018h-.044l-.053-.044h-.027l-.062.044-.071-.044h-.036l-.053.036-.116-.018-.16-.027-.204-.062-.098-.044-.089-.044-.107-.062-.08-.053-.089-.071-.036-.036-.036-.027-.036-.044-.071-.071-.089-.133-.027-.044-.027-.036-.053-.089-.044-.098-.018-.053-.053-.151-.027-.142v-.418l.018-.08.044-.222.053-.142.036-.071.036-.062.036-.071.089-.133.107-.116.116-.116.062-.053.062-.044.071-.044.062-.044.071-.036.151-.062.071-.027.16-.044.08-.018.169-.018h.284l.204.009.204.044.196.071.089.036.089.044.124.08.036.027.036.036.044.027.036.036.044.036.107.107.08.107.338-.213-.027-.044-.044-.071-.053-.062-.044-.062-.053-.053-.116-.098-.124-.089-.062-.053-.071-.036-.071-.044-.08-.036-.071-.027-.089-.036-.089-.027-.089-.036-.356-.071h-.089l-.089-.009h-.142v.036h-.08l-.213.018-.142.018-.196.053-.062.018-.071.027-.062.018-.187.08-.124.071-.16.107-.053.044-.053.036-.089.089-.053.044-.036.044-.053.053-.036.044zm-6.435-.223l.027-.044.044-.044.027-.044.089-.08.071-.071.089-.071.124-.098.178-.098.053-.027.044-.018.053-.018.044-.018.098-.036h.053l.053-.027h.053l.053-.009.062-.018.053-.027h.036l.053.036h.178l.196.027.089.009.089.027.089.018.178.062.16.08.089.053.071.053.08.053.142.124.08.071.062.062.071.08.107.151.107.16.036.089.071.16.053.187.018.089.018.098.018.187v.187l-.036.196-.009.089-.018.098-.053.178-.071.178-.044.089-.089.16-.062.08-.124.151-.062.071-.071.071-.142.124-.08.053-.16.098-.16.089-.267.08-.178.036-.089.009h-.267l-.053.044h-.036l-.053-.044h-.062l-.053-.009-.098-.027-.053-.009-.053-.018-.044-.009-.053-.027-.044-.009-.142-.062-.089-.053-.053-.027-.044-.027-.036-.027-.044-.036-.089-.062-.089-.071-.116-.124-.071-.08v-.027h-.071v1.982h-.444V26.86h.444v.658h.062zm1.244-.817l-.053.036-.044.009h-.053l-.107.036-.062.009-.107.036-.036.018-.053.018-.053.027-.053.018-.178.107-.142.098-.036.036-.053.036-.169.169-.027.044-.018.018v-.578h-.587v5.2h.587v-1.929l.027.027.124.133.089.071.089.062.036.036.089.053.053.036.089.053.151.062.053.009.053.027.044.018h.053l.053.027.107.018h.053l.044.018.053.036h.089l.053-.044h.338l.098-.018.178-.053.178-.062.178-.089.16-.089.089-.062.142-.133.08-.071.062-.071.187-.24.053-.089.044-.08.044-.089.071-.178.053-.178.018-.107.018-.089.009-.107.027-.098v-.196l-.027-.196-.018-.098-.018-.089-.053-.196-.071-.178-.044-.089-.107-.16-.116-.16-.062-.08-.071-.071-.08-.071-.071-.062-.08-.062-.08-.053-.071-.053-.089-.053-.178-.089-.178-.062-.089-.027-.089-.018-.098-.018-.204-.018h-.151l-.053-.044zm-4.666 4.044h-.116l-.204-.018-.107-.018-.089-.018-.107-.027-.178-.071-.356-.178-.071-.062-.08-.062-.142-.142-.071-.089-.062-.071-.116-.151-.053-.089-.036-.089-.044-.089-.044-.071-.027-.089-.053-.187-.027-.089-.009-.098-.018-.107v-.382l.018-.098.027-.187.053-.178.036-.089.071-.169.044-.089.098-.16.053-.071.062-.08.062-.071.071-.08.089-.071.071-.062.089-.071.08-.053.178-.107.089-.036.089-.044.196-.062.204-.036.107-.018h.436l.107.018.204.036.089.027.107.036.089.036.178.089.089.053.089.062.16.124.151.151.062.08.116.151.053.089.044.071.044.089.036.08.044.089.027.08.027.089.044.187.027.284v.204l-.018.187-.036.187-.044.187-.044.089-.071.178-.044.08-.053.089-.116.151-.062.08-.071.08-.071.071-.142.124-.089.062-.16.107-.178.089-.089.027-.089.036-.107.027-.089.018-.116.018-.204.018zm0-3.964h-.222l-.098.018-.196.044-.187.053-.089.036-.089.044-.089.053-.08.044-.08.062-.089.053-.213.213-.062.071-.062.08-.053.071-.089.151-.053.089-.062.16-.036.089-.053.169-.027.178-.009.089v.382l.009.089.018.089.018.098.08.267.044.071.08.178.053.071.107.16.062.071.062.08.071.062.071.071.071.062.08.053.16.098.178.089.089.027.089.036.089.018.089.027.107.009.204.027h.213l.204-.027.089-.009.098-.027.098-.018.178-.071.178-.08.151-.098.08-.053.071-.062.142-.142.062-.071.062-.08.116-.151.133-.24.062-.178.053-.178.053-.356v-.196l-.036-.284-.036-.178-.027-.089-.027-.08-.124-.249-.089-.142-.116-.16-.062-.062-.142-.151-.08-.062-.089-.062-.071-.053-.089-.053-.08-.044-.089-.044-.178-.071-.089-.018-.204-.044-.098-.009zm-8.205 3.964h-.116l-.222-.018-.107-.018-.204-.053-.089-.027-.178-.071-.089-.044-.178-.107-.142-.124-.08-.071-.062-.071-.124-.16-.107-.16-.089-.16-.044-.089-.036-.089-.036-.08-.053-.178-.027-.178-.009-.098v-.284l-.018-.089.018-.178.018-.089.044-.16.027-.089.062-.151.036-.08.044-.08.089-.151.044-.071.062-.071.027-.044.044-.044.036-.044.08-.08.08-.071.036-.036.053-.036.08-.062.178-.107.142-.062.053-.027.204-.062.222-.036h.044l.062-.044h.071l.062.044h.018v-.044h.107l.053.044h.169l.222.036.213.071.044.018.053.018.053.027.044.018.089.053.053.036.053.027.124.089.124.116.044.044.036.044.044.036.071.098.053.062.133.213.071.151.027.08.053.169.027.089.044.258v.089l.036.098v.142h-3.404l.009.116.018.151.018.08.044.133.044.124.142.249.089.107.098.098.107.089.053.036.116.071.053.036.249.089h.071l.071.018.213.018.213-.018h.062l.142-.036.062-.018.071-.027.187-.08.053-.036.062-.027.053-.036.044-.044.053-.036.018-.027.027-.018.053-.044.018-.036.053-.053.018-.036.027-.027.089-.116.018-.036.027-.044.036-.044.036-.071.471.249-.062.124-.116.178-.116.16-.124.142-.071.062-.133.116-.151.098-.151.089-.169.071-.178.053-.178.044-.302.027zm-1.946-2.169l.018.089v.276l.009.089.036.178.053.178.027.08.071.16.089.16.053.089.053.071.116.151.071.062.071.071.142.124.08.044.08.053.089.044.178.071.089.027.196.053.098.009.222.027h.213l.284-.036.178-.036.178-.053.071-.036.089-.036.284-.178.133-.116.124-.124.062-.071.116-.151.107-.178.036-.062-.356-.178-.009.018-.027.036-.053.089-.089.107-.027.036-.018.036-.053.053-.027.036-.053.053-.027.018-.018.027-.053.036-.053.044-.053.036-.062.036-.124.062-.204.08-.062.018-.142.036h-.08l-.213.027-.231-.018-.071-.018-.071-.009-.133-.044-.187-.08-.116-.071-.062-.044-.053-.044-.053-.053-.107-.098-.044-.062-.044-.053-.044-.062-.071-.124-.036-.071-.053-.133-.053-.213-.018-.16-.018-.196h3.404v-.062l-.027-.089v-.098l-.053-.267-.018-.071-.053-.169-.027-.071-.036-.071-.036-.08-.044-.062-.089-.142-.044-.053-.107-.133-.08-.08-.124-.107-.124-.089-.044-.036-.133-.08-.044-.018-.053-.027-.044-.018-.107-.036-.151-.044-.213-.044h-.187l-.053-.036h-.018v.036h-.098l-.062-.036h-.036l-.053.027-.062.009-.213.044-.196.062-.187.08-.089.044-.089.062-.089.053-.036.036-.036.027-.089.08-.062.08-.044.036-.036.044-.027.044-.062.062-.044.071-.089.151-.036.071-.036.08-.062.151-.027.08-.044.16-.009.089zM0 17.538l.889.453 6.24-12.124 2.267 4.524.889-.444-3.147-6.284z"/><path d="M18.338 17.822L12.418 5.84 8.16 13.538l-.871-.48 5.173-9.369 6.773 13.689zm35.262.009l-.889-.462 7.138-13.867 3.147 6.276-.889.444-2.267-4.516z"/><path d="M71.049 17.653L65.12 5.68l-4.249 7.689-.88-.48 5.182-9.36 6.773 13.689zM79.458 5.28l-4.542 9.698h9.067zm26.871-.009v8.338h4.4l.098-.009.116-.009.098-.009.107-.009.098-.018.107-.018.089-.027.107-.018.089-.027.107-.027.089-.027.196-.071.089-.036.098-.036.267-.133.089-.053.089-.044.089-.062.089-.053.08-.053.08-.062.089-.062.071-.071.08-.062.089-.071.071-.071.08-.089.142-.142.071-.089.071-.071.062-.089.124-.16.062-.089.053-.08.16-.267.044-.089.036-.089.053-.089.107-.267.036-.107.053-.178.027-.107.018-.098.027-.098.018-.107.018-.089V9.97l.018-.107.009-.107v-.107l.009-.107v-.427l-.018-.107-.009-.098-.009-.107-.018-.098-.018-.107-.027-.089-.018-.107-.027-.089-.027-.107-.027-.089-.071-.196-.071-.178-.053-.089-.036-.089-.044-.089-.213-.356-.062-.089-.062-.071-.062-.089-.062-.08-.142-.16-.071-.071-.071-.089-.16-.142-.08-.062-.08-.071-.08-.062-.089-.071-.071-.053-.089-.062-.267-.16-.08-.053-.267-.133-.178-.071-.107-.036-.089-.036-.293-.08-.098-.018-.098-.027-.107-.018-.098-.018h-.107l-.098-.018-.116-.009h-.098l-.107-.009zm-18.702 0v8.338h4.4l.098-.009.116-.009.098-.009.107-.009.098-.018.107-.018.089-.027.107-.018.089-.027.107-.027.089-.027.196-.071.089-.036.098-.036.267-.133.089-.053.089-.044.089-.062.089-.053.08-.053.08-.062.089-.062.071-.071.089-.062.071-.071.089-.071.142-.16.08-.071.062-.089.071-.071.062-.089.071-.08.053-.08.062-.089.053-.08.16-.267.044-.089.036-.089.053-.089.107-.267.036-.107.053-.178.027-.107.018-.098.027-.098.018-.107.018-.089V9.97l.018-.107.009-.107v-.107l.009-.107v-.427l-.018-.107-.009-.098-.009-.107-.018-.098-.018-.107-.027-.089-.018-.107-.027-.089-.027-.107-.027-.089-.071-.196-.071-.178-.053-.089-.036-.089-.044-.089-.213-.356-.062-.089-.053-.071-.071-.089-.062-.08-.071-.08-.062-.08-.08-.071-.151-.16-.08-.071-.08-.062-.08-.071-.08-.062-.08-.071-.089-.053-.08-.062-.178-.107-.08-.053-.089-.053-.267-.133-.178-.071-.107-.036-.089-.036-.293-.08-.098-.018-.098-.027-.107-.018-.098-.018h-.107l-.098-.018-.116-.009h-.098l-.107-.009zm30.115-.391h7.244v.391h-6.862v5.689h5.324v.382h-5.324v5.689h6.862v.382h-7.244zm-11.795 0h4.8l.116.009.116.018h.107l.116.027.116.018.213.036.107.027.116.027.098.036.107.027.107.036.098.036.107.044.293.133.196.107.089.053.098.062.178.124.098.071.267.213.178.16.08.089.08.071.089.089.356.444.124.178.062.098.053.089.053.098.044.098.053.098.044.098.044.107.044.089.071.213.027.107.036.107.053.213.018.107.027.107.018.116.009.116.009.107.018.116v.693l-.018.116v.107l-.018.116-.018.107-.027.107-.018.116-.053.213-.036.107-.027.107-.036.098-.036.107-.089.196-.044.107-.053.089-.044.107-.053.089-.053.098-.062.089-.062.098-.062.089-.284.356-.08.089-.089.089-.071.089-.08.071-.089.08-.071.071-.089.062-.071.071-.089.062-.08.062-.178.124-.267.16-.08.053-.178.089-.098.044 2.187 3.796h-.453l-2.107-3.636-.267.08-.178.036-.098.027-.089.009-.089.018-.098.009-.089.018-.098.009h-.098l-.196.018h-4.373v3.431h-.382zm-9.485 0h7.982v.391h-3.822v12.142h-.382V5.271h-3.778zm-9.218 0h4.8l.116.009.116.018h.107l.116.027.116.018.213.036.107.027.116.027.098.036.107.027.213.071.391.178.196.107.089.053.107.062.178.124.356.284.178.16.08.089.08.071.089.089.356.444.124.178.062.098.053.089.107.196.089.196.044.107.044.089.071.213.027.107.036.107.08.32.018.107.018.116.009.116.018.107v.116l.009.116v.578l-.009.116-.018.107-.009.116-.036.213-.027.116-.053.213-.036.107-.027.107-.036.098-.036.107-.089.196-.044.107-.098.196-.053.089-.053.098-.124.187-.062.089-.284.356-.16.178-.16.16-.089.08-.071.071-.089.062-.071.071-.089.062-.08.062-.178.124-.267.16-.08.053-.178.089-.098.044 2.187 3.804h-.453l-2.098-3.653-.267.08-.178.036-.098.027-.089.009-.089.018-.098.009-.089.018-.098.009h-.098l-.196.018h-4.382v3.431h-.382zm-8.035 0h.489l5.867 12.533h-.436l-.951-2.044h-9.44l-.969 2.044h-.418z"/><path d="M84.489 15.316H74.418l5.04-10.764zm-9.076-.632h8.08l-4.044-8.64zm35.236-.728h-4.613V4.978h4.844l.329.044.124.018.311.062.116.027.089.036.124.027.409.16.08.044.098.044.098.053.276.16.187.124.089.071.089.062.098.089.071.053.178.16.249.249.053.08.089.089.053.08.089.089.044.089.071.089.062.098.16.276.062.107.036.089.053.107.16.409.018.089.036.107.027.107.071.32.018.116.027.329.009.222v.231l-.009.231-.036.329-.018.107-.062.329-.036.116-.027.08-.027.116-.16.4-.044.089-.044.107-.053.098-.169.267-.062.107-.124.178-.071.08-.08.098-.062.071-.071.089-.089.089-.151.16-.089.08-.169.142-.089.071-.178.133-.267.187-.587.293-.204.071-.213.071-.204.053-.32.062-.116.018-.329.036zm-3.982-.64h3.964l.196-.009.302-.027.089-.018.276-.053.356-.107.178-.062.16-.08.089-.036.16-.089.071-.044.169-.107.071-.053.16-.116.071-.062.151-.124.276-.276.071-.089.062-.071.062-.08.053-.071.062-.08.053-.071.044-.071.151-.249.036-.071.044-.107.044-.071.124-.338.027-.098.027-.089.027-.071.053-.293.018-.08.027-.293.009-.196V9.36l-.009-.196-.027-.293-.018-.089-.053-.276-.027-.089-.027-.098-.027-.089-.124-.338-.053-.089-.036-.08-.036-.071-.151-.249-.044-.071-.062-.089-.053-.071-.062-.08-.053-.071-.071-.08-.062-.071-.062-.062-.142-.151-.071-.062-.089-.071-.062-.062-.08-.053-.071-.062-.089-.053-.142-.107-.249-.142-.071-.044-.098-.044-.071-.036-.347-.133-.089-.018-.089-.036-.089-.018-.284-.062-.089-.009-.293-.027-.196-.009h-3.964zm-14.72.64h-4.613V4.978h4.844l.329.044.124.018.311.062.116.027.089.036.124.027.409.16.08.044.098.044.107.053.267.16.187.124.089.071.089.062.098.089.071.053.178.16.249.249.053.08.089.089.062.08.071.089.053.089.071.089.062.098.16.276.062.107.036.089.053.107.16.409.018.089.036.107.027.107.071.32.018.116.027.329.009.222v.462l-.044.329-.018.107-.062.329-.036.116-.027.08-.027.116-.16.4-.044.089-.044.107-.053.098-.16.267-.071.107-.124.178-.062.08-.089.098-.062.071-.071.089-.08.089-.16.16-.089.08-.169.142-.089.071-.178.133-.267.187-.587.293-.204.071-.213.071-.204.053-.32.062-.116.018-.329.036zm-3.983-.64h3.964l.196-.009.302-.027.089-.018.276-.053.356-.107.178-.062.16-.08.089-.036.16-.089.071-.044.178-.107.062-.053.16-.116.071-.062.151-.124.276-.276.071-.089.062-.071.062-.08.053-.071.062-.08.053-.071.044-.071.151-.249.036-.071.044-.107.044-.071.124-.338.027-.098.027-.089.027-.071.053-.293.018-.08.027-.293.009-.196v-.4l-.036-.293-.018-.089-.053-.276-.027-.089-.027-.098-.027-.089-.124-.338-.053-.089-.036-.08-.036-.071-.151-.249-.044-.071-.062-.089-.053-.071-.062-.08-.053-.071-.071-.08-.062-.071-.062-.062-.142-.151-.071-.062-.089-.071-.062-.062-.08-.053-.071-.062-.089-.053-.142-.107-.249-.142-.071-.044-.098-.044-.071-.036-.347-.133-.089-.018-.089-.036-.089-.018-.276-.062-.089-.009-.302-.027-.196-.009h-3.964zm29.485-8.729v13.164h7.876v-1.013h-6.862V11.68h5.324v-1.013h-5.324V5.6h6.827V4.587z"/><path d="M115.129 17.751h-1.076l-2.098-3.591-.044.018-.293.062-.204.036h-.089l-.107.027-.116.009-.409.018h-4.027v3.422h-1.013V4.596h5.253l.24.027.133.018.107.018.133.018.338.089.222.062.222.08.124.044.302.142.213.116.196.124.107.071.196.142.267.222.098.089.089.089.178.16.089.098.089.089.222.284.08.107.187.284.071.107.107.213.089.196.107.231.071.222.107.347.018.089.027.124.018.124.036.24.027.24v.738l-.027.24-.036.24-.018.116-.027.107-.027.133-.098.329-.08.222-.044.116-.044.098-.16.32-.116.213-.204.293-.142.187-.151.178-.089.098-.089.089-.16.178-.178.16-.267.204-.089.071-.178.133-.098.062-.267.151zm-8.845-4.053h4.4l.382-.018h.071l.107-.027h.089l.169-.036.258-.053.187-.053v-.018l.4-.178.178-.089.24-.142.08-.053.16-.116.08-.053.231-.187.142-.142.16-.151.142-.16.142-.169.124-.16.178-.267.089-.178.053-.089.133-.276.036-.089.062-.187.089-.293.018-.107.027-.107.018-.089.027-.213.018-.204.018-.222V9.35l-.036-.427-.027-.213-.018-.089-.027-.116-.018-.089-.089-.302-.062-.178-.036-.089-.133-.284-.089-.178-.053-.089-.178-.267-.062-.071-.204-.258-.071-.071-.071-.089-.16-.151-.089-.08-.071-.071-.249-.204-.169-.116-.089-.053-.178-.116-.178-.089-.276-.133-.089-.036-.187-.071-.196-.053-.302-.071-.213-.036-.098-.009-.213-.027h-4.578zm-5.36 4.053h-.978V5.609h-3.822V4.587h8.622v1.022h-3.822zm-4.497 0H95.36l-2.107-3.591-.044.018-.293.062-.204.036h-.089l-.107.027-.107.009-.418.018h-4.027v3.422h-1.013V4.596h5.253l.249.027.124.018.107.018.133.018.338.089.222.062.222.08.124.044.302.142.213.116.204.124.089.071.204.142.267.222.196.178.178.16.089.098.08.089.222.284.08.107.187.284.071.107.107.213.089.196.107.231.08.222.089.347.027.089.053.249.053.48v.738l-.027.24-.036.24-.018.116-.027.107-.027.133-.098.329-.08.222-.044.116-.044.098-.16.32-.116.213-.204.293-.142.187-.151.178-.089.098-.089.089-.16.178-.178.16-.258.204-.089.071-.187.133-.098.062-.267.151zm-8.845-4.053h4.4l.382-.018h.071l.107-.027h.089l.169-.036.258-.053.187-.053v-.018l.4-.178.178-.089.24-.142.08-.053.16-.116.08-.053.231-.187.151-.142.151-.151.142-.16.142-.169.124-.16.178-.267.089-.178.053-.089.133-.276.036-.089.062-.187.089-.293.018-.107.027-.107.018-.089.027-.213.027-.204v-.658l-.053-.427-.018-.089-.027-.116-.018-.089-.089-.302-.062-.178-.036-.089-.133-.284-.089-.178-.053-.089-.178-.267-.062-.071-.204-.258-.071-.071-.071-.089-.16-.151-.089-.08-.071-.071-.249-.204-.169-.116-.089-.053-.178-.116-.444-.222-.089-.036-.196-.071-.196-.053-.302-.071-.213-.036-.098-.009-.213-.027h-4.578zm-1.529 4.053h-1.12l-.96-2.044h-9.04l-.96 2.044h-1.12l6.036-12.907v-.258h.116l.053-.098.213.098h.622zm-11.244-2.684h9.289l-4.604-9.849h-.089zm-54.738 6.8h84.596v-.978H20.071z"/></symbol><symbol id="logow" viewBox="0 0 125 32"><path fill="var(--color1,#fff)" d="M25.956 4.756h-.32l-.48.053-.302.036-.302.053-.151.044-.142.036-.151.036-.142.044-.427.16-.142.062-.267.124-.267.142-.133.08-.124.089-.133.071-.249.178-.124.107-.124.089-.124.107-.116.107-.116.116-.116.107-.116.116-.107.116-.107.124-.107.116-.089.124-.107.124-.089.116-.089.133-.089.124-.08.133-.071.124-.071.133-.08.133-.124.267-.053.142-.062.142-.053.133-.089.284-.044.151-.036.142-.036.151-.027.142-.036.16-.018.142-.018.16-.018.151-.018.16v.151l-.009.16v.489l.009.16.018.151.018.16.036.302.036.151.027.151.071.302.133.427.053.142.062.133.053.142.062.133.062.142.08.133.071.133.071.124.089.124.089.133.267.373.098.124.107.116.107.124.107.116.231.231.231.213.124.098.124.107.373.267.133.089.124.08.133.071.133.089.4.187.142.062.284.107.142.044.142.053.151.036.142.036.302.071.302.053.151.018.16.018h.16l.16.018h.64l.16-.009.151-.009.16-.018.151-.018.16-.027.142-.027.302-.071.142-.036.151-.036.142-.053.142-.044.142-.053.133-.053.284-.124.133-.062.133-.071.124-.08.133-.071.133-.089.124-.08.373-.267.124-.107.116-.098.124-.107.116-.107.231-.231.107-.116.107-.124.098-.116.107-.124.267-.373.089-.133.089-.124.071-.124.08-.133.062-.133.071-.142.062-.133.062-.142.053-.133.053-.142.133-.427.044-.151.027-.151.036-.151.018-.151.053-.302.009-.16.018-.151v-.16l.009-.16v-.489l-.009-.151-.018-.16-.009-.151-.027-.16-.027-.142-.018-.16-.036-.142-.027-.151-.044-.142-.044-.151-.089-.284-.053-.133-.053-.142-.062-.142-.062-.133-.071-.133-.062-.133-.08-.133-.08-.124-.071-.133-.089-.124-.089-.133-.089-.116-.098-.124-.107-.124-.089-.116-.116-.124-.107-.116-.116-.116-.116-.107-.116-.116-.124-.107-.116-.098-.249-.196-.373-.267-.267-.16-.124-.071-.133-.071-.133-.062-.284-.124-.133-.053-.284-.107-.142-.044-.151-.036-.142-.036-.151-.044-.151-.027-.142-.027-.16-.018-.151-.018-.16-.018-.151-.018-.16-.009h-.16zm0-.383h.169l.169.009h.169l.16.018.178.018.16.027.16.018.16.036.16.027.16.036.302.089.16.044.151.053.142.053.151.062.142.062.151.062.142.08.284.142.267.178.142.089.267.178.133.107.249.213.133.116.124.107.124.124.231.249.107.124.116.124.107.133.089.124.107.133.178.267.178.284.08.133.142.284.124.284.062.151.107.302.089.302.044.16.036.16.053.32.027.151.027.169.018.16.009.178.009.16v.178l.009.169v.338l-.018.178-.009.16-.018.169-.027.16-.027.169-.053.32-.036.151-.044.16-.044.151-.044.16-.053.142-.053.151-.124.302-.062.142-.142.284-.089.142-.071.133-.089.133-.089.142-.293.4-.107.124-.116.124-.107.124-.231.249-.124.116-.124.124-.133.107-.249.213-.267.196-.133.089-.142.098-.133.089-.133.08-.142.071-.142.08-.142.062-.151.071-.142.062-.151.062-.142.053-.151.053-.16.044-.151.044-.151.036-.32.071-.32.053-.169.027-.169.009-.16.018-.178.009h-.853l-.16-.027-.178-.009-.151-.027-.169-.027-.16-.027-.32-.071-.151-.036-.151-.044-.16-.044-.302-.107-.151-.062-.142-.062-.142-.071-.151-.062-.142-.08-.133-.071-.142-.089-.142-.08-.267-.178-.133-.107-.124-.089-.133-.116-.249-.213-.124-.124-.124-.116-.124-.124-.231-.249-.107-.124-.098-.124-.107-.133-.098-.133-.089-.133-.089-.142-.178-.267-.284-.569-.124-.302-.053-.151-.044-.142-.053-.16-.044-.151-.044-.16-.036-.151-.027-.16-.036-.16-.018-.169-.018-.16-.027-.169v-.169l-.018-.169v-.178l-.009-.16v-.178l.009-.169.009-.16.009-.178.027-.16.018-.169.018-.151.036-.16.027-.16.036-.16.044-.16.044-.151.053-.151.044-.151.053-.151.062-.151.062-.142.213-.427.08-.133.08-.142.089-.142.178-.267.098-.133.107-.124.098-.133.107-.124.231-.249.249-.249.124-.107.124-.116.124-.107.133-.107.124-.098.133-.098.267-.178.284-.178.133-.071.142-.071.151-.08.284-.124.151-.062.302-.107.16-.044.302-.089.16-.036.16-.027.16-.036.169-.018.16-.027.169-.018.169-.009h.169l.169-.018z"/><path fill="var(--color1,#fff)" d="M26.116 17.582H25.6l-.32-.027-.338-.036-.311-.053-.16-.036-.302-.071-.16-.044-.293-.098-.16-.062-.142-.053-.284-.133-.142-.062-.16-.089-.124-.071-.142-.089-.267-.169-.267-.178-.133-.107-.249-.204-.373-.347-.116-.124-.222-.24-.116-.133-.204-.258-.089-.124-.267-.4-.089-.142-.142-.276-.142-.302-.116-.284-.107-.302-.133-.462-.089-.471-.053-.311-.027-.338-.018-.489.018-.507.036-.329.044-.32.089-.471.133-.453.107-.302.187-.427.071-.142.151-.284.444-.667.107-.133.213-.249.222-.249.116-.116.124-.116.124-.124.249-.213.124-.089.133-.116.267-.187.267-.178.267-.151.151-.08.142-.062.142-.071.16-.062.133-.053.16-.062.293-.089.16-.053.302-.071.16-.036.169-.027.311-.044.329-.027.187-.009v-.009h.649l.178.018.64.071.16.027.16.036.471.124.302.089.133.062.151.062.293.124.284.142.267.16.276.178.133.089.133.098.258.204.249.213.24.231.124.124.231.258.089.116.116.133.196.258.178.267.16.267.089.151.213.418.116.284.053.151.089.302.089.311.071.311.053.311.018.16.018.178.027.311v.676l-.027.329-.018.169-.018.16-.053.32-.071.311-.089.311-.089.302-.062.142-.116.302-.213.427-.089.133-.16.267-.178.267-.196.267-.213.249-.222.249-.124.124-.249.231-.24.213-.133.107-.258.196-.4.267-.133.071-.151.089-.276.142-.293.124-.151.062-.151.053-.293.098-.16.044-.302.071-.16.036-.32.053-.16.018-.169.018-.32.027zm-.32-.622h.311l.151-.009.302-.027.142-.009.142-.018.293-.053.142-.027.284-.071.133-.036.267-.089.133-.053.133-.044.267-.124.249-.124.249-.142.249-.16.116-.08.347-.267.231-.204.116-.107.213-.213.213-.231.187-.231.178-.231.169-.24.151-.249.071-.124.124-.258.062-.124.107-.267.044-.124.178-.551.053-.284.044-.293.036-.284.018-.311.009-.302v-.311l-.027-.302-.036-.284-.044-.293-.062-.267-.08-.284-.089-.276-.044-.124-.107-.267-.187-.382-.071-.124-.151-.24-.169-.249-.178-.231-.098-.116-.089-.116-.204-.222-.107-.107-.231-.222-.222-.196-.24-.187-.116-.089-.116-.08-.249-.151-.373-.213-.124-.062-.267-.116-.267-.107-.267-.089-.133-.036-.284-.071-.142-.027-.133-.027-.302-.036-.293-.027-.302-.018h-.462l-.151.018-.302.027-.293.036-.284.053-.276.071-.142.036-.267.089-.142.053-.133.053-.258.116-.124.062-.124.071-.258.142-.24.151-.24.169-.116.089-.347.293-.329.329-.204.222-.196.231-.178.231-.16.249-.089.124-.062.116-.142.258-.062.124-.053.124-.107.267-.098.267-.116.409-.089.427-.044.284-.027.302-.018.453.018.453.027.302.044.293.089.427.116.409.089.267.116.267.053.133.062.116.142.267.071.116.08.116.169.249.08.116.178.231.107.116.204.231.107.107.222.213.116.089.24.204.107.089.24.169.24.16.133.071.124.071.116.062.4.187.124.044.133.053.267.089.151.036.276.071.142.027.293.053.142.018.151.009.302.027z"/><path fill="var(--color1,#fff)" d="M26.133 17.973H25.6l-.187-.018-.356-.036-.16-.018-.347-.053-.498-.116-.311-.089-.178-.062-.311-.124-.444-.204-.151-.089-.151-.071-.293-.178-.276-.196-.142-.098-.142-.107-.267-.222-.124-.116-.258-.24-.133-.133-.347-.4-.107-.124-.213-.284-.089-.142-.089-.133-.187-.293-.16-.293-.142-.302-.133-.32-.107-.311-.089-.32-.053-.16-.036-.178-.062-.329-.062-.516-.027-.356-.009-.347.009-.356.027-.356.062-.516.062-.329.044-.169.044-.16.089-.311.116-.329.124-.302.071-.151.08-.151.071-.151.178-.284.089-.151.089-.133.089-.142.116-.142.213-.267.116-.142.231-.258.267-.249.249-.24.133-.107.267-.222.284-.196.284-.178.302-.178.293-.142.16-.071.311-.133.48-.16.32-.089.178-.036.32-.062.356-.053.356-.027.213-.009v-.009h.622l.036.009h.178l.356.036.169.027.178.027.329.062.16.044.329.089.48.16.302.124.16.071.142.071.151.089.151.071.151.089.124.089.151.089.142.107.267.204.142.116.267.222.124.124.133.124.249.267.231.258.107.133.098.133.107.142.187.267.098.16.08.133.089.151.151.302.071.151.062.151.116.311.053.16.098.32.044.16.044.178.027.16.053.338.044.347.018.347.018.356-.036.711-.044.338-.053.338-.036.169-.036.178-.133.48-.062.151-.116.311-.071.16-.142.302-.08.151-.169.284-.089.151-.196.276-.204.276-.116.151-.107.116-.116.142-.249.249-.267.249-.124.107-.124.116-.151.116-.124.098-.142.107-.133.089-.151.107-.284.178-.142.071-.16.089-.151.062-.311.142-.302.116-.16.053-.329.098-.498.116-.329.053-.178.018-.338.036-.178.009zm-.346-.631h.498l.16-.018.32-.027.151-.018.311-.053.444-.098.293-.089.427-.16.133-.062.151-.062.267-.133.267-.16.124-.071.133-.089.124-.089.124-.098.124-.089.124-.098.124-.116.124-.098.231-.222.222-.24.116-.133.107-.116.089-.107.187-.267.178-.258.089-.124.151-.267.071-.133.124-.267.062-.142.16-.427.089-.293.036-.142.036-.151.027-.151.053-.311.036-.32.018-.32.009-.329v-.329l-.027-.32-.036-.311-.053-.311-.027-.151-.071-.284-.089-.293-.053-.151-.107-.284-.124-.267-.133-.267-.089-.142-.071-.124-.071-.133-.178-.258-.098-.124-.089-.124-.107-.116-.204-.249-.231-.231-.116-.124-.116-.098-.249-.222-.124-.089-.249-.196-.124-.089-.133-.089-.133-.08-.124-.071-.133-.071-.142-.071-.133-.071-.133-.062-.284-.116-.427-.151-.293-.08-.151-.027-.302-.062-.16-.027-.151-.018-.32-.027h-.169l-.16-.018h-.32l-.178.009h-.16l-.32.036-.142.018-.16.027-.311.062-.142.027-.302.089-.436.142-.267.116-.142.062-.284.142-.124.071-.133.071-.133.089-.124.089-.133.089-.124.089-.249.196-.116.098-.24.222-.24.231-.213.24-.107.116-.196.249-.089.124-.089.133-.089.124-.089.133-.071.133-.071.124-.071.133-.071.142-.062.133-.116.276-.089.293-.098.293-.071.284-.062.311-.053.462-.027.32v.658l.027.32.053.48.062.302.036.142.036.151.089.293.098.284.116.284.062.133.213.4.16.267.178.249.089.133.196.249.213.24.107.116.116.116.24.231.116.098.249.213.249.178.267.178.258.16.133.08.133.071.418.187.276.107.151.053.293.089.444.098.32.053.142.018.329.027.16.009zM46.196 4.756h7.964v.382h-3.813v12.151h-.382V5.138h-3.769zm-11.325 0h.409l8.853 12.018V4.756h.391v12.533h-.409L35.253 5.271v12.018h-.382z"/><path fill="var(--color1,#fff)" d="M44.436 17.716l-.089-.124h-.364L35.601 6.214v11.378h-1.022V4.419h.382v-.124l.098.124h.356l8.382 11.378V4.419h1.022v13.173h-.373zm6.222-.116h-1.022V5.44h-3.778V4.418h8.613V5.44h-3.822zM19.68.996h84.596V0H19.68zm24.373 29.173h2.169l-1.067-2.613zm1.263-3.342l1.449 3.387h.453v.862h-.471v-.471h-3.129v.516h-.471v-.907h.462l1.449-3.378zm10.017 0l-1.867 1.733 2.009 2.036h-.667l-1.689-1.742-.151.142v1.6h-.471v-3.769h.471v1.6l1.707-1.6zm18.898 0v.436h-1.022v3.333h-.471v-3.333h-.978v-.436zm8.462 0v3.769h-.516V28.8h-2.178v1.796h-.471v-3.769h.471v1.502h2.187v-1.502zm-24.977 3.377H58l.044.018.053-.009h.044l.044-.018h.044l.044-.027.053-.009.133-.053.124-.062.089-.053.071-.053.08-.062.062-.071.071-.071.062-.071.053-.089.053-.08.018-.044.053-.089.036-.089.009-.053.036-.089.009-.053.009-.044v-.053l.018-.044v-.098l.044-.053v-.213l-.018-.071v-.071l-.027-.071-.036-.142-.027-.071-.036-.062-.027-.062-.044-.062-.036-.062-.089-.124-.107-.107-.053-.062-.062-.044-.053-.053-.062-.036-.062-.044-.124-.071-.071-.027-.062-.027-.071-.018-.071-.027-.062-.009-.08-.018h-.071l-.071-.009h-.231l-.071.009-.071.018-.071.009-.071.027-.071.018-.071.027-.062.027-.124.071-.062.044-.062.036-.053.053-.062.044-.053.062-.107.107-.089.124-.107.187-.027.062-.053.142-.036.142-.018.142v.364l.018.089.009.053.018.044.009.044.018.053.071.178.053.089.044.089.062.08.062.071.133.133.08.062.071.053.089.053.044.018.044.027.178.071.053.009.044.018.044.009.053.009h.044l.044.018zm.142-3.493h.107l.213.018.098.027.107.018.089.027.098.036.089.036.178.089.089.053.08.053.089.062.142.142.08.071.062.071.053.089.053.071.053.08.044.071.044.089.044.08.036.089.027.08.027.089.018.089.027.089v.089l.018.098.009.098v.196l-.009.089-.009.107-.036.178-.027.098-.018.089-.044.089-.036.08-.036.089-.044.08-.053.089-.053.071-.053.08-.062.071-.071.08-.142.142-.071.062-.08.053-.089.053-.071.053-.089.036-.089.044-.089.036-.089.027-.098.027-.089.027-.116.009-.098.009-.107.018h-.213l-.107-.018h-.098l-.107-.018-.089-.027-.098-.027-.089-.027-.089-.036-.089-.044-.089-.036-.089-.053-.08-.053-.071-.053-.08-.062-.142-.142-.062-.08-.062-.071-.116-.16-.053-.08-.036-.089-.044-.089-.044-.071-.08-.267-.018-.089-.018-.098-.009-.098v-.48l.027-.089.009-.089.053-.178.071-.178.036-.08.044-.089.044-.071.053-.089.053-.062.062-.08.062-.071.071-.08.08-.071.071-.062.089-.062.08-.062.08-.044.089-.053.089-.044.089-.036.098-.027.089-.036.107-.018.098-.027h.107l.107-.009zm-9.654 1.618h2.862l-.027-.089-.027-.098-.036-.089-.027-.089-.036-.062-.044-.08-.089-.124-.053-.062-.044-.053-.062-.044-.062-.053-.062-.044-.071-.044-.071-.036-.08-.044-.08-.036-.071-.027-.089-.027-.08-.018-.089-.018-.071-.009-.089-.009h-.222l-.062.009-.142.018-.062.018-.062.027-.053.018-.071.027-.053.027-.062.027-.16.107-.107.089-.107.107-.027.044-.044.036-.053.089-.036.053-.027.044-.027.053-.018.062-.027.053-.027.062-.036.124zm1.6-1.627l.053.036h.062l.053.018h.053l.053.018.053.009.107.036.053.009.053.027.044.009.107.053.044.018.133.08.053.027.036.036.053.036.036.027.044.036.036.036.044.036.08.08.071.089.044.044.044.062.053.071.036.071.044.071.036.08.036.071.027.071.027.089.027.08.027.089.009.08.036.178v.089l.036.089v.107h-3.413v.089l.018.142.009.08.036.142.027.071.027.062.018.071.107.187.044.062.036.053.053.053.044.053.053.053.107.089.062.044.053.036.062.036.124.053.053.027.142.036.062.009.071.018h.071l.08.009h.284l.142-.036.071-.009.062-.027.133-.044.071-.027.062-.036.053-.036.062-.027.053-.036.053-.044.053-.036.018-.027.027-.018.053-.053.018-.027.053-.053.133-.178.107-.178.418.213-.053.098-.062.089-.044.089-.062.089-.124.142-.124.124-.071.053-.062.062-.071.044-.08.053-.071.044-.08.036-.089.036-.071.036-.089.036-.089.027-.178.036-.089.009-.098.009-.107.018h-.213l-.116-.018h-.107l-.107-.018-.107-.027-.089-.027-.098-.036-.178-.071-.178-.089-.071-.053-.08-.062-.071-.062-.142-.142-.062-.071-.062-.08-.053-.08-.044-.08-.053-.08-.044-.08-.036-.089-.036-.08-.027-.08-.053-.178-.036-.178v-.089l-.009-.089v-.196l-.018-.089.009-.089.018-.08.009-.089.027-.08.018-.089.027-.071.027-.08.036-.08.036-.071.044-.08.036-.071.044-.08.053-.071.062-.062.027-.053.116-.116.036-.044.044-.036.071-.071.044-.036.044-.027.044-.036.036-.018.053-.036.089-.053.089-.036.053-.027.053-.018.044-.018.053-.009.044-.018.053-.018.16-.027.062-.009.044-.009.062-.036h.053l.062.044h.116l.062-.044zm12.747 3.538h.222l.053-.009h.044l.089-.018.053-.018h.044l.133-.053.053-.018.036-.018.044-.027.044-.018.089-.053.036-.027.044-.027.036-.036.044-.027.036-.036.071-.062.062-.071.062-.089.062-.08.053-.089.018-.044.027-.044.044-.089.036-.089.018-.053v-.044l.018-.053.018-.044v-.053l.009-.044v-.098l.044-.044v-.098l-.044-.053v-.142l-.009-.053-.018-.044-.009-.053-.009-.044-.036-.089-.018-.053-.027-.044-.018-.044-.027-.044-.018-.044-.053-.089-.062-.089-.124-.142-.071-.071-.071-.062-.08-.053-.089-.053-.036-.027-.044-.018-.044-.027-.089-.036-.044-.009-.044-.018-.053-.018-.044-.009-.053-.009-.044-.009h-.044l-.053-.009h-.249l-.08.009-.071.009-.071.018-.071.009-.071.027-.071.018-.062.027-.071.027-.187.107-.053.044-.062.044-.16.16-.044.053-.053.062-.036.053-.044.071-.036.062-.027.062-.027.071-.027.062-.027.071-.018.071-.009.08-.018.08-.009.151v.293l.009.044.018.053v.044l.018.053.009.044.018.044.009.044.027.053.053.133.027.044.107.16.036.036.053.071.071.071.036.027.044.036.071.053.044.027.036.036.053.027.044.018.044.027.178.071.053.018.089.018.044.018h.053l.044.009h.053zm.053-3.538l.053.044h.16l.089-.009.107.009.178.036.089.027.089.036.089.027.089.044.089.036.16.107.071.053.08.062.071.062.08.071.062.071.071.08.053.071.062.089.044.071.053.089.044.08.071.178.053.178.018.089.018.107v.089l.027.107v.204l-.018.089-.009.107-.018.089-.018.107-.053.178-.071.178-.089.178-.053.071-.053.08-.062.08-.062.071-.071.08-.071.062-.071.071-.08.062-.071.053-.089.053-.08.053-.08.036-.089.044-.089.036-.08.027-.089.027-.089.018-.098.018-.089.009h-.267l-.053.036h-.062l-.053-.036-.053-.009h-.053l-.044-.018-.062-.009-.053-.018h-.044l-.053-.027-.044-.018-.053-.018-.044-.018-.053-.018-.044-.027-.053-.018-.044-.027-.044-.036-.089-.053-.044-.036-.044-.027-.089-.071-.08-.08-.044-.036-.071-.089-.044-.044v-.044 2.018h-.524v-5.138h.516v.693l.009-.044.036-.053.071-.089.044-.044.044-.036.036-.044.036-.036.053-.036.036-.036.044-.027.044-.044.222-.133.053-.018.044-.027.053-.009.044-.027.053-.018.107-.018.053-.018.053-.009h.053l.053-.018.062-.036zm6.996 0l.089.027.089.018.089.009.098.018.089.018.267.08.08.036.071.027.089.044.062.036.071.036.062.044.062.053.062.044.062.053.053.044.107.124.089.124.044.071-.382.24-.036-.036-.036-.044-.027-.044-.071-.071-.036-.027-.071-.071-.044-.027-.036-.036-.036-.018-.036-.027-.089-.053-.036-.018-.044-.027-.222-.089-.044-.009-.053-.009-.044-.018h-.044l-.053-.018h-.053l-.053-.009h-.053l-.044-.027h-.196l-.089.018-.071.018h-.089l-.071.018-.089.027-.062.018-.142.053-.08.036-.062.036-.062.044-.071.036-.062.044-.222.222-.044.062-.044.053-.044.062-.036.071-.036.062-.027.062-.053.142-.036.142-.009.071-.009.08.009.071v.338l.009.044.018.053v.044l.027.053.009.044.018.044.018.053.027.044.018.053.107.178.027.036.036.044.027.044.178.178.036.027.044.036.178.107.036.027.053.027.044.018.053.018.044.018.053.018.044.009.053.018.053.009.053.018h.053l.053.009h.053l.053-.018h.062l.053.036.053-.036h.053l.044.036h.178l.053-.009.044-.018.089-.018.053-.009.044-.018.053-.018.044-.009.044-.018.044-.027.089-.036.044-.027.036-.027.133-.08.036-.027.036-.036.044-.027.036-.044.036-.027.044-.036.036-.036.027-.044.036-.044.044-.036.4.267-.044.044-.036.044-.036.053-.044.053-.044.036-.036.053-.044.044-.053.036-.044.036-.044.044-.213.142-.062.027-.053.027-.249.107-.187.053-.071.018-.071.009-.062.018-.071.009h-.071l-.071.009h-.071l-.08.009h-.302l-.32-.053-.196-.053-.098-.036-.089-.036-.107-.044-.089-.053-.089-.044-.16-.124-.16-.142-.142-.142-.062-.089-.062-.071-.107-.178-.044-.08-.107-.267-.027-.089-.018-.098-.018-.107-.009-.098-.018-.098v-.213l.009-.062.009-.071.009-.062.018-.062.009-.071.053-.187.08-.187.027-.053.071-.124.027-.062.044-.053.071-.107.044-.053.044-.044.044-.053.044-.044.053-.044.044-.044.053-.036.107-.089.062-.036.053-.036.062-.027.062-.036.062-.027.062-.036.062-.018.062-.027.071-.027.062-.018.071-.018.062-.009.071-.018.213-.027h.08l.071-.036zm5.627 1.627h2.88l-.027-.089-.027-.098-.071-.178-.036-.062-.044-.08-.036-.062-.053-.062-.044-.062-.053-.053-.053-.044-.071-.053-.124-.089-.08-.036-.071-.044-.089-.036-.071-.027-.089-.027-.16-.036-.08-.009-.089-.009h-.222l-.062.009-.142.018-.062.018-.062.027-.062.018-.062.027-.053.027-.062.027-.053.036-.062.036-.053.036-.044.044-.053.044-.044.036-.036.036-.027.036-.036.044-.036.036-.053.089-.036.053-.027.044-.027.053-.027.062-.018.053-.053.124-.018.062zm1.6-1.627l.053.036h.062l.053.018h.053l.053.018.053.009.107.036.053.009.053.027.044.009.053.027.044.027.053.018.178.107.089.071.044.027.044.036.036.036.044.036.036.044.044.036.107.133.053.062.133.213.036.08.036.071.027.071.027.089.027.08.018.089.018.08.027.178.009.089.027.089v.107h-3.404v.16l.018.071.009.08.036.142.027.071.018.062.027.071.107.187.044.062.036.053.044.053.107.107.107.089.062.044.107.071.187.08.071.018.062.018.071.009.071.018h.071l.071.009h.293l.071-.018.062-.018.071-.009.142-.053.062-.018.062-.027.124-.071.062-.027.044-.036.053-.044.053-.036.018-.027.027-.018.053-.053.018-.027.053-.053.133-.178.053-.089.036-.044.018-.044.418.213-.053.098-.107.178-.062.089-.062.071-.053.071-.062.062-.071.062-.062.053-.071.062-.071.044-.071.053-.08.044-.24.107-.089.036-.089.027-.178.036-.089.009-.098.009-.107.018h-.213l-.116-.018h-.107l-.098-.018-.107-.027-.098-.027-.267-.107-.178-.089-.08-.053-.142-.124-.142-.142-.062-.071-.062-.08-.053-.08-.044-.08-.053-.08-.044-.08-.036-.089-.036-.08-.027-.08-.053-.178-.036-.178v-.089l-.009-.089v-.196l-.009-.089.009-.089.009-.08.018-.089.018-.08.018-.089.027-.071.036-.08.027-.08.036-.071.044-.08.044-.071.044-.08.053-.071.053-.062.036-.053.036-.036.036-.044.036-.036.036-.044.089-.071.036-.036.044-.036.036-.027.044-.036.044-.018.044-.036.089-.053.053-.018.044-.018.044-.027.053-.018.044-.018.053-.009.053-.018.044-.018.053-.009.062-.009.044-.009.062-.009.044-.009.062-.036h.053l.062.044h.116l.062-.044z"/><path fill="var(--color1,#fff)" d="M46.276 30.204h-2.267l1.156-2.738zm-2.169-.071h2.071l-1.013-2.489zm13.937.125L58 30.24h-.293l-.053.018-.053-.018h-.044l-.089-.027-.204-.062-.036-.018-.133-.062-.089-.053-.08-.062-.142-.124-.062-.08-.071-.071-.133-.222-.062-.124-.062-.204-.036-.142v-.098l-.027-.062v-.249l.027-.151.053-.213.053-.142.044-.071.071-.124.089-.124.053-.053.107-.124.062-.044.053-.053.062-.036.062-.044.071-.036.062-.036.062-.027.071-.036.133-.044.071-.009.151-.027h.249l.062-.009.151.018.071.018.142.044.062.027.071.036.187.107.053.044.062.053.053.044.062.062.107.116.133.187.036.062.062.133.027.071.044.151.009.071.027.142.036.089v.142l-.044.053v.098l-.009.044v.044l-.027.098-.062.196-.044.089-.027.044-.018.044-.053.089-.062.089-.062.071-.062.08-.071.062-.16.124-.089.053-.036.018-.133.062-.187.062-.089.027h-.053zm-.746-.169l.178.062.089.018h.044l.044.018.053-.009h.436l.089-.027.178-.062.089-.036.089-.044.071-.044.071-.062.08-.053.062-.071.071-.071.062-.071.053-.08.044-.089.027-.036.018-.044.044-.089.062-.178.018-.098v-.044l.018-.053v-.107l.044-.053v-.107l-.044-.089-.018-.142-.053-.213-.027-.062-.062-.133-.036-.053-.08-.124-.044-.062-.098-.107-.062-.053-.053-.044-.053-.053-.053-.036-.062-.044-.124-.071-.124-.053-.133-.044-.062-.009-.142-.018h-.311l-.142.027-.062.018-.133.036-.062.036-.062.018-.124.071-.053.044-.062.036-.053.053-.062.044-.044.053-.062.062-.044.053-.089.116-.107.187-.044.133-.044.142-.018.071-.018.142v.24l.018.053v.089l.036.142.062.187.062.133.018.044.053.089.053.08.133.133.062.071.071.062.071.053.089.044.08.044zm5.484.195h-.231l-.142-.009-.142-.036-.196-.062-.053-.018-.036-.027-.053-.027-.044-.018-.089-.053-.036-.027-.044-.036-.044-.027-.036-.036-.036-.027-.071-.071-.062-.071-.089-.124-.053-.089-.044-.089-.027-.044-.036-.089-.027-.089-.044-.204-.018-.16v-.187l.009-.16.053-.231.071-.213.036-.062.08-.133.089-.124.044-.053.107-.107.062-.053.053-.053.133-.08.124-.071.062-.027.071-.027.142-.044.071-.018.151-.018h.284l.053-.018.098.009.151.036.178.062.098.044.044.018.133.08.08.053.08.071.062.071.071.071.062.08.062.089.08.133.018.044.044.089.018.053.036.089.009.053.018.044.027.16v.089l.044.044v.124l-.044.044v.089l-.009.053v.044l-.036.107v.044l-.027.053-.071.178-.053.107-.053.089-.062.08-.062.089-.062.071-.116.089-.044.036-.036.036-.036.027-.089.053-.142.08-.036.018-.044.018-.142.044-.142.036h-.089zm-.906-.275l.044.027.044.018.089.044.044.018.178.062.142.027.142.018h.213l.053-.018h.089l.142-.036.133-.044.044-.018.036-.018.133-.071.089-.053.071-.053.036-.036.036-.027.142-.142.053-.08.062-.08.053-.089.044-.089.089-.222.009-.044.018-.053.009-.044v-.044l.018-.044v-.107l.044-.053v-.071l-.044-.053v-.107l-.009-.044-.009-.053-.009-.044-.018-.044-.009-.053-.018-.044-.018-.036-.018-.053-.036-.089-.027-.044-.018-.044-.062-.089-.053-.08-.187-.213-.08-.062-.071-.053-.089-.053-.08-.044-.089-.036-.178-.062-.142-.027-.089-.009h-.249l-.08.009-.142.027-.071.009-.133.044-.071.027-.124.053-.053.036-.124.089-.053.036-.16.16-.044.053-.089.116-.107.187-.071.204-.044.222-.009.151v.178l.009.16.044.187.027.089.018.044.018.053.044.08.018.044.053.08.089.116.062.071.062.062.036.027.036.036.036.027.044.036.036.018zm16.266-1.653H75.2l.027-.098.044-.133.027-.053.018-.062.053-.107.089-.151.027-.044.044-.044.027-.044.16-.16.107-.071.062-.036.116-.071.124-.053.124-.044.062-.009.142-.027.142-.009h.24l.169.036.169.044.32.142.062.053.124.089.062.053.062.062.133.187.044.08.036.071.071.178zm-2.862-.063h2.764l-.036-.142-.036-.089-.036-.08-.071-.142-.044-.062-.044-.053-.044-.062-.107-.107-.187-.133-.071-.036-.16-.071-.071-.036-.32-.071h-.373l-.133.027-.053.018-.116.036-.124.053-.107.062-.062.036-.044.036-.053.044-.089.071-.036.036-.027.036-.027.044-.044.044-.027.036-.089.142-.018.053-.027.053-.018.053-.027.062zm-24.169.063H48.16l.027-.098.044-.133.027-.053.018-.062.053-.107.089-.151.027-.044.044-.044.027-.044.16-.16.107-.071.062-.036.116-.071.124-.053.124-.044.062-.009.142-.027.142-.009h.24l.169.036.169.044.32.142.062.053.124.089.062.053.062.062.133.187.044.08.036.071.071.178zm-2.862-.063h2.764l-.036-.142-.036-.089-.036-.08-.071-.142-.044-.062-.044-.053-.044-.062-.107-.107-.187-.133-.071-.036-.16-.071-.071-.036-.32-.071h-.373l-.133.027-.053.018-.116.036-.124.053-.107.062-.062.036-.044.036-.053.044-.089.071-.036.036-.027.036-.027.044-.044.044-.027.036-.089.142-.018.053-.027.053-.018.053-.027.062zm34.489 2.338h-.542v-1.796h-2.16v1.796h-.542V26.8h.533v1.493h2.169V26.8h.533zm-.48-.062h.4v-3.698h-.4v1.493h-2.293v-1.493h-.4v3.698h.4v-1.804h2.293zm-9.014.062h-.533v-3.333h-.987V26.8h2.516v.498h-.996zm-.471-.062h.4v-3.342h.987v-.356h-2.364v.356h.978zm-17.2.062h-.764l-1.689-1.724-.107.107v1.618h-.542v-3.831h.533v1.547l1.671-1.547h.756l-1.902 1.76zm-.746-.062h.578l-1.973-2.009 1.822-1.689h-.56l-1.751 1.627v-1.627h-.4v3.698h.4v-1.591l.178-.169z"/><path fill="var(--color1,#fff)" d="M43.662 31.147h-.542v-.969h.444l1.44-3.316V26.8h.311l1.467 3.378h.48v.924h-.533v-.471h-3.067zm-.471-.08h.4v-.507h3.191v.462h.4v-.782h-.453l-1.458-3.378h-.196l-1.467 3.378h-.418zm33.493-.356h-.116l-.222-.018-.107-.018-.204-.053-.089-.027-.187-.071-.089-.053-.089-.044-.08-.053-.08-.062-.071-.062-.071-.071-.071-.08-.124-.151-.107-.16-.089-.16-.071-.178-.036-.08-.053-.178-.027-.178-.018-.098v-.284l-.009-.089.018-.178.018-.089.044-.16.027-.089.062-.151.036-.089.044-.071.089-.151.107-.142.107-.133.08-.089.08-.062.036-.044.053-.027.08-.062.178-.107.142-.062.053-.027.204-.062.222-.036h.044l.062-.044h.071l.062.044h.018v-.044h.107l.053.044h.053l.053-.009h.062l.222.044.213.071.044.018.053.018.053.027.044.018.089.053.053.036.053.027.124.089.124.116.044.044.036.044.044.036.071.089.053.071.133.213.071.151.036.08.044.169.027.08.044.267v.089l.027.098v.142h-3.396v.116l.027.151.053.213.08.187.071.124.044.053.036.062.044.053.107.089.044.053.062.044.16.107.187.08.124.036.062.009.071.018.213.018.213-.018h.071l.133-.036.071-.027.071-.018.187-.08.053-.036.062-.036.044-.027.053-.044.044-.036.027-.027.027-.018.044-.044.027-.036.027-.027.018-.027.027-.036.027-.027.089-.116.018-.036.053-.089.044-.071.471.24-.071.133-.107.178-.124.16-.124.142-.062.062-.142.107-.151.107-.151.089-.16.062-.089.036-.089.027-.178.044-.302.027zm-1.937-2.169v.364l.018.089.027.178.053.178.107.24.089.16.044.089.053.071.124.151.133.133.071.062.08.062.071.044.089.053.08.044.178.071.089.027.196.053.107.009.213.027h.213l.293-.036.178-.036.178-.053.062-.036.089-.036.151-.089.142-.089.133-.116.124-.124.062-.071.116-.151.107-.178.036-.062-.356-.178-.018.009-.053.089-.027.036-.08.116-.053.071-.053.053-.018.036-.053.053-.027.018-.027.027-.053.036-.044.044-.062.036-.062.027-.053.036-.062.036-.204.08-.071.018-.142.027-.071.018-.222.009-.222-.009-.071-.018-.071-.009-.133-.044-.187-.08-.116-.071-.124-.089-.151-.151-.053-.062-.036-.053-.044-.062-.071-.124-.036-.071-.053-.133-.044-.142-.018-.08-.018-.151-.009-.196h3.404v-.062l-.027-.098v-.089l-.053-.267-.018-.071-.053-.169-.027-.071-.036-.071-.036-.08-.036-.062-.089-.142-.124-.151-.036-.036-.036-.044-.044-.036-.124-.107-.124-.098-.178-.107-.044-.018-.053-.027-.044-.018-.107-.036-.151-.044-.213-.044h-.178l-.062-.036h-.018v.036h-.098l-.062-.036h-.036l-.053.027-.062.009-.213.044-.196.053-.187.089-.089.044-.089.053-.08.062-.044.036-.036.027-.089.071-.062.089-.044.036-.036.036-.027.044-.062.071-.044.071-.089.151-.036.071-.036.08-.062.151-.027.08-.044.16-.009.089zm-5.28 2.214h-.107l-.222-.018-.107-.018-.098-.027-.204-.044-.178-.08-.098-.036-.267-.16-.071-.062-.16-.133-.071-.08-.071-.071-.062-.08-.062-.071-.053-.089-.089-.169-.08-.178-.053-.178-.027-.098-.018-.098-.018-.196v-.178l.018-.204v-.071l.027-.062v-.062l.027-.062.062-.196.08-.187.107-.187.116-.16.089-.107.044-.044.044-.053.098-.089.053-.036.062-.044.044-.044.116-.071.071-.036.062-.036.124-.053.071-.027.062-.027.062-.018.071-.027.204-.044.142-.018.24-.018v-.044h.293l.089.018.196.027.178.044.089.036.089.027.089.036.089.027.071.044.142.08.08.044.124.089.169.169.053.071.053.062.044.071.062.098-.444.276-.053-.062-.062-.089-.036-.027-.107-.107-.071-.053-.044-.036-.027-.027-.124-.08-.178-.08-.178-.062-.196-.036-.204-.027h-.187l-.089.009-.16.018-.08.018-.151.044-.071.027-.142.062-.124.071-.071.044-.062.044-.053.053-.116.107-.098.116-.089.124-.027.062-.044.062-.027.071-.053.133-.044.222-.009.071v.293l-.009.053v.044l.036.142.044.142.062.142.044.089.027.036.027.044.089.124.036.036.036.044.098.098.089.062.08.053.089.053.178.089.196.053.16.036h.089l.053-.018h.08l.044.027.036-.027h.08l.053.036h.053l.062-.009.178-.044.187-.062.178-.089.16-.089.071-.071.044-.027.142-.142.071-.089.053-.053.444.293-.044.08-.044.044-.036.053-.044.053-.044.044-.036.044-.044.044-.053.044-.089.071-.116.08-.053.027-.053.044-.062.027-.053.027-.187.08-.196.071-.133.027-.071.018-.062.009-.071.009-.293.027zm-1.743-3.058l-.071.124-.027.053-.036.062-.044.124-.062.178-.018.062v.071l-.027.062v.062l-.018.196v.178l.018.178.018.107.018.089.053.178.071.178.089.151.062.089.053.071.124.142.071.071.151.133.08.062.089.053.071.053.089.044.089.036.178.08.196.044.098.018.107.018.213.018h.151l.284-.018.071-.009.062-.018.071-.009.124-.036.187-.062.062-.018.116-.053.062-.036.053-.027.213-.142.089-.071.053-.044.124-.124.036-.044.036-.053.053-.071-.347-.231-.018.018-.036.044-.027.044-.08.071-.071.071-.044.036-.08.062-.169.107-.133.071-.044.018-.187.062-.196.044h-.062l-.044.018h-.044l-.053-.044h-.027l-.062.044-.071-.044h-.036l-.053.027h-.116l-.169-.036-.196-.062-.098-.044-.089-.044-.107-.062-.08-.053-.089-.071-.036-.036-.036-.027-.036-.044-.071-.071-.089-.133-.027-.044-.027-.036-.053-.089-.044-.107-.018-.044-.053-.151-.027-.142v-.418l.018-.08.044-.222.053-.142.036-.071.036-.062.036-.071.089-.133.107-.116.116-.116.062-.053.062-.044.071-.044.062-.044.071-.036.151-.062.071-.027.16-.044.08-.018.169-.018.089-.009h.187l.213.018.204.044.196.062.044.027.044.018.089.044.124.08.036.027.036.036.044.027.036.036.044.036.036.036.027.036.044.036.08.107.338-.213-.027-.044-.053-.071-.044-.062-.053-.062-.044-.053-.116-.107-.187-.133-.071-.036-.071-.044-.08-.036-.071-.027-.089-.036-.089-.027-.089-.036-.356-.071h-.089l-.089-.018h-.142v.044h-.08l-.213.018-.142.018-.196.044-.062.027-.071.027-.062.018-.187.08-.124.071-.107.062-.107.089-.053.036-.089.089-.053.044-.036.044-.053.053-.036.044zm-6.435-.214l.027-.044.044-.044.027-.044.089-.089.036-.027.036-.036.089-.071.124-.098.178-.098.053-.027.044-.027.053-.009.044-.018.098-.036.053-.009.053-.018h.053l.053-.009.062-.018.053-.027h.036l.053.036h.178l.196.027.089.009.089.027.089.018.178.062.16.08.089.053.071.053.08.053.071.062.071.053.08.071.062.071.062.08.116.151.098.16.044.089.071.16.053.178.018.098.018.089.018.196v.187l-.036.196-.009.089-.027.098-.044.178-.071.178-.044.089-.044.08-.053.08-.053.071-.124.16-.062.071-.071.062-.142.133-.08.053-.16.098-.16.089-.267.08-.178.036-.089.009h-.267l-.053.036h-.036l-.053-.036-.062-.009h-.053l-.098-.027-.062-.018h-.044l-.044-.018-.053-.027-.044-.009-.142-.062-.089-.053-.053-.027-.044-.027-.044-.036-.044-.027-.089-.062-.196-.196-.071-.08v-.027h-.071v1.982h-.444v-5.067h.444v.658h.062zm1.244-.817l-.053.036-.044.009h-.053l-.053.018-.062.018h-.044l-.107.044-.044.018-.044.009-.107.053-.178.098-.142.107-.036.036-.053.036-.169.169-.027.036-.027.027v-.587h-.578v5.2h.578v-1.92l.036.027.204.204.089.062.044.036.089.053.053.036.089.053.151.062.044.009.053.027.053.018h.053l.053.018.107.027h.053l.044.009.053.044h.089l.053-.044h.338l.098-.018.178-.053.178-.062.178-.089.16-.089.089-.062.142-.133.08-.071.062-.08.124-.151.062-.08.053-.089.044-.08.044-.089.071-.178.053-.178.018-.107.018-.089v-.107l.027-.098v-.196l-.018-.196-.036-.196-.053-.187-.071-.178-.044-.089-.107-.16-.116-.16-.062-.08-.071-.071-.08-.071-.071-.062-.16-.124-.071-.044-.089-.053-.178-.089-.178-.062-.089-.027-.089-.018-.098-.018-.204-.018h-.151l-.062-.044zm-4.666 4.044h-.107l-.213-.018-.107-.018-.089-.027-.107-.018-.178-.071-.178-.089-.178-.098-.142-.124-.08-.062-.071-.08-.071-.071-.062-.089-.107-.151-.053-.089-.044-.08-.044-.089-.044-.08-.08-.267-.018-.098-.018-.089-.009-.107-.009-.089v-.293l.018-.098.027-.187.053-.178.107-.267.044-.08.098-.16.053-.071.062-.08.062-.071.08-.08.08-.071.071-.071.089-.062.089-.053.08-.053.089-.053.089-.044.089-.036.196-.062.204-.044h.107l.222-.018.213.009.107.009.204.044.089.027.107.036.089.036.178.089.089.053.089.062.16.124.151.151.062.071.116.16.053.08.089.16.044.089.036.089.027.08.027.089.044.178.027.293v.196l-.018.196-.027.187-.053.178-.036.098-.044.089-.036.089-.044.08-.053.089-.116.151-.062.071-.062.089-.08.071-.142.124-.089.062-.16.098-.178.089-.178.071-.107.018-.089.027-.107.018-.213.018zm0-3.964h-.213l-.107.018-.196.036-.187.062-.089.036-.178.089-.16.107-.08.062-.071.062-.08.071-.071.08-.124.142-.044.071-.098.16-.044.08-.071.16-.036.089-.044.169-.036.178v.089l-.009.098v.284l.009.089.018.089.018.098.08.267.044.071.089.178.044.071.107.151.062.08.213.213.071.062.071.053.16.098.178.089.267.08.089.018.107.018.204.018h.213l.204-.018.098-.018.089-.018.098-.027.089-.027.089-.036.178-.089.16-.089.071-.062.071-.053.142-.142.062-.071.062-.08.116-.151.053-.08.08-.16.071-.178.044-.178.036-.178.018-.178v-.196l-.036-.276-.036-.178-.053-.178-.071-.16-.044-.08-.053-.071-.044-.08-.116-.151-.062-.071-.142-.142-.08-.071-.08-.053-.08-.062-.089-.044-.08-.044-.089-.044-.178-.071-.089-.027-.204-.036-.098-.009zm-8.205 3.964h-.107l-.231-.018-.098-.018-.204-.053-.098-.027-.178-.071-.089-.053-.089-.044-.089-.053-.142-.124-.08-.071-.062-.08-.124-.151-.107-.16-.089-.16-.044-.089-.036-.089-.027-.08-.053-.178-.036-.178-.009-.098v-.284l-.018-.089.018-.178.018-.089.044-.16.027-.089.062-.151.036-.089.044-.071.089-.151.107-.142.071-.089.044-.044.071-.089.089-.062.036-.044.044-.027.08-.062.178-.107.142-.062.053-.027.204-.062.222-.036h.044l.062-.044h.071l.062.044h.018v-.044h.107l.053.044h.053l.053-.009h.062l.222.044.213.071.044.018.053.018.053.027.044.018.089.053.053.036.053.027.124.089.124.116.044.044.036.044.044.036.071.089.053.071.133.213.071.151.036.08.044.169.027.08.044.267v.089l.036.098v.142h-3.404l.009.116.018.151.018.071.044.142.044.124.107.187.036.053.044.062.044.053.098.089.053.053.053.044.053.036.116.071.053.027.124.053.133.036.062.009.071.018.213.018.213-.018h.071l.133-.036.062-.027.071-.018.133-.053.053-.027.053-.036.062-.036.053-.027.044-.044.053-.036.044-.044.053-.044.018-.036.053-.053.027-.036.027-.027.08-.116.018-.036.036-.044.027-.044.036-.071.471.24-.062.133-.107.178-.124.16-.124.142-.071.062-.133.107-.151.107-.151.089-.16.062-.089.036-.089.027-.187.044-.302.027zm-1.938-2.169v.276l.009.089.018.089.027.178.053.178.027.08.071.16.089.16.053.089.053.071.116.151.071.062.071.071.142.124.08.044.08.053.089.044.178.071.089.027.196.053.089.009.222.027h.213l.293-.036.178-.036.089-.027.08-.027.071-.036.089-.036.151-.089.142-.089.124-.116.071-.062.053-.062.062-.071.116-.151.107-.178.036-.062-.356-.178v.009l-.036.044-.027.044-.027.036-.089.116-.018.036-.027.036-.053.053-.027.036-.044.053-.027.018-.027.027-.053.036-.044.044-.062.036-.062.027-.053.036-.062.036-.204.08-.071.018-.142.027-.071.018-.222.009-.222-.009-.071-.018-.071-.009-.133-.044-.187-.08-.116-.071-.062-.044-.053-.044-.053-.053-.107-.098-.044-.062-.044-.053-.044-.062-.071-.124-.036-.071-.053-.133-.036-.142-.018-.08-.018-.151-.018-.196h3.396v-.062l-.027-.098v-.089l-.053-.267-.018-.071-.044-.169-.071-.142-.036-.08-.036-.062-.089-.142-.053-.053-.142-.178-.044-.036-.116-.107-.124-.098-.044-.027-.053-.027-.089-.053-.044-.018-.053-.027-.089-.036-.053-.018-.151-.044-.222-.044h-.178l-.053-.036h-.018v.036h-.107l-.053-.036h-.044l-.053.027-.053.009-.213.044-.196.053-.187.089-.089.044-.089.053-.089.062-.036.036-.036.027-.089.071-.062.089-.044.036-.036.044-.027.036-.062.071-.044.071-.089.151-.036.071-.036.08-.062.151-.027.08-.044.16-.009.089zM0 17.538l.889.453 6.24-12.124 2.267 4.516.889-.444-3.147-6.276z"/><path fill="var(--color1,#fff)" d="M18.338 17.822L12.418 5.84 8.16 13.538l-.871-.48 5.173-9.369 6.773 13.689zm35.253.009l-.889-.453 7.147-13.876 3.138 6.276-.889.444-2.267-4.516z"/><path fill="var(--color1,#fff)" d="M71.049 17.662L65.12 5.68l-4.258 7.698-.871-.48 5.173-9.369 6.773 13.689zm8.409-12.391l-4.533 9.707h9.067zm26.88 0v8.338h4.391l.213-.018.107-.018h.098l.107-.027.293-.053.196-.053.098-.036.089-.027.107-.036.089-.036.089-.044.089-.036.089-.053.178-.089.267-.16.08-.062.089-.062.16-.124.071-.071.089-.071.071-.071.089-.071.071-.089.071-.071.062-.08.071-.08.062-.08.071-.089.053-.071.124-.178.044-.089.107-.169.133-.267.107-.267.036-.107.027-.089.036-.098.018-.098.027-.107.018-.089.018-.107.018-.098.009-.107.009-.098.018-.107v-.64l-.018-.107v-.107l-.018-.098-.018-.107-.036-.196-.027-.098-.018-.098-.036-.098-.027-.098-.036-.089-.036-.098-.036-.089-.036-.098-.133-.267-.107-.178-.044-.089-.062-.089-.062-.08-.053-.08-.071-.08-.062-.089-.071-.071-.062-.089-.071-.071-.08-.071-.08-.089-.071-.062-.089-.071-.071-.071-.089-.062-.08-.062-.08-.053-.178-.124-.08-.053-.089-.044-.089-.053-.267-.133-.178-.071-.098-.036-.089-.036-.107-.027-.089-.036-.107-.018-.089-.027-.107-.018-.098-.018-.107-.018-.098-.009-.107-.009-.107-.018h-.213zm-18.702 0v8.338h4.391l.213-.018.107-.018h.098l.107-.027.293-.053.196-.053.098-.036.089-.027.107-.036.089-.036.089-.044.089-.036.089-.053.178-.089.267-.16.089-.062.071-.062.089-.062.08-.062.16-.142.071-.071.089-.071.071-.089.071-.071.062-.08.08-.08.053-.08.071-.089.053-.071.124-.178.044-.089.053-.08.053-.089.133-.267.107-.267.036-.107.027-.089.036-.098.027-.098.018-.107.018-.089.018-.107.018-.098.009-.107.009-.098.018-.107v-.64l-.018-.107v-.107l-.018-.098-.018-.107-.053-.293-.027-.098-.036-.098-.027-.098-.036-.089-.036-.098-.036-.089-.036-.098-.133-.267-.107-.178-.044-.089-.062-.089-.062-.08-.053-.08-.071-.08-.053-.089-.08-.071-.062-.089-.071-.071-.08-.071-.08-.089-.071-.062-.089-.071-.071-.071-.089-.062-.08-.062-.08-.053-.089-.062-.08-.062-.089-.053-.089-.044-.089-.053-.267-.133-.178-.071-.098-.036-.089-.036-.107-.027-.089-.036-.107-.018-.089-.027-.107-.018-.098-.018-.107-.018-.098-.009-.107-.009-.107-.018h-.213zm30.106-.391h7.253v.382h-6.862v5.689h5.316v.391h-5.316v5.689h6.862v.382h-7.253zm-11.795 0h4.809l.107.009.231.018.116.018.107.027.107.009.116.027.213.053.098.027.116.036.098.036.107.036.391.178.196.107.089.053.107.062.267.187.089.071.089.08.178.142.169.169.089.08.08.089.213.267.08.089.249.356.16.293.089.196.053.107.036.089.107.32.027.098.036.107.018.116.027.107.018.107.018.116.018.107v.116l.018.116v.116l.009.116v.338l-.009.124-.009.107-.009.116-.018.116-.036.213-.027.116-.018.107-.036.107-.027.107-.036.098-.036.107-.036.098-.036.107-.053.089-.044.107-.044.098-.053.098-.053.089-.053.107-.124.178-.062.098-.062.089-.071.089-.08.089-.142.178-.169.169-.08.071-.08.089-.08.062-.08.071-.08.062-.089.071-.08.062-.178.124-.089.053-.08.053-.089.053-.089.044-.089.053-.089.044-.089.036 2.187 3.804h-.462l-2.098-3.644-.089.027-.089.018-.178.053-.356.071h-.107l-.089.027h-.089l-.107.009-.089.009h-.107l-.089.009h-4.284v3.422h-.391zm-9.476 0h7.964v.382h-3.813v12.151h-.382V5.262h-3.769zm-9.227 0h4.809l.107.009.231.018.116.018.107.027.116.009.427.107.107.036.098.036.107.036.196.089.107.044.196.098.178.107.107.062.267.187.089.071.089.08.178.142.089.089.089.08.071.08.089.089.142.178.08.089.071.089.249.356.16.293.089.196.053.107.036.089.107.32.027.098.036.107.018.116.027.107.018.107.018.116.018.107v.116l.018.116v.116l.009.116v.462l-.018.107-.009.116-.018.116-.036.213-.027.116-.018.107-.036.107-.027.107-.036.098-.036.107-.036.098-.036.107-.053.089-.044.107-.044.098-.053.098-.053.089-.053.107-.124.178-.062.098-.062.089-.071.089-.08.089-.142.178-.329.329-.071.062-.089.071-.08.062-.089.071-.071.062-.178.124-.267.16-.089.044-.089.053-.089.044-.089.036 2.187 3.804h-.462l-2.098-3.644-.089.027-.089.018-.178.053-.356.071h-.107l-.089.027h-.089l-.107.009-.089.009h-.107l-.089.009H87.64v3.422h-.391zm-8.035 0h.489l5.867 12.533h-.427l-.96-2.044h-9.44l-.96 2.044h-.427z"/><path fill="var(--color1,#fff)" d="M84.489 15.316H74.418l5.04-10.764zm-9.076-.632h8.08l-4.036-8.64zm35.236-.728h-4.613V4.978h4.622l.222.009.329.036.116.018.32.062.116.036.089.027.124.036.409.16.08.036.196.107.382.222.08.062.089.071.089.062.098.08.071.062.089.071.089.08.249.249.053.08.089.089.053.089.089.089.044.08.071.089.062.107.16.267.062.116.036.08.053.107.151.409.027.089.036.107.027.116.062.311.018.124.036.329.009.222v.231l-.009.222-.036.338-.018.107-.062.32-.036.116-.027.089-.036.116-.151.391-.098.196-.053.098-.16.276-.062.107-.062.08-.071.089-.062.089-.08.089-.062.08-.071.089-.329.329-.169.142-.089.071-.178.133-.089.062-.187.116-.098.062-.373.187-.107.044-.204.08-.427.124-.311.062-.124.018-.329.027zm-3.982-.623h3.964l.196-.018.302-.027.089-.009.267-.062.187-.044.178-.053.178-.071.16-.071.089-.044.16-.089.071-.044.169-.107.071-.053.151-.116.08-.053.151-.133.071-.062.142-.151.062-.062.071-.089.062-.062.062-.089.053-.062.062-.089.053-.071.044-.071.151-.249.036-.071.044-.107.036-.071.133-.338.027-.098.027-.089.027-.071.053-.293.018-.08.027-.293.009-.196v-.204l-.009-.196-.027-.293-.018-.089-.053-.276-.027-.089-.036-.098-.018-.089-.133-.338-.044-.089-.036-.089-.036-.062-.151-.249-.044-.08-.062-.08-.053-.071-.062-.089-.053-.062-.071-.089-.062-.062-.062-.071-.142-.142-.071-.062-.089-.071-.062-.062-.089-.062-.062-.053-.089-.062-.071-.053-.071-.044-.249-.151-.071-.036-.107-.044-.071-.036-.338-.133-.267-.08-.284-.053-.089-.018-.293-.027-.196-.009h-3.964zm-14.72.623h-4.613V4.978h4.622l.222.009.329.036.116.018.32.062.116.036.089.027.124.036.409.16.08.036.196.107.382.222.08.062.089.071.089.062.098.08.071.062.089.071.089.08.249.249.053.08.089.089.053.089.089.089.044.08.071.089.062.107.16.267.062.116.036.08.053.107.151.409.027.089.036.107.027.116.062.311.018.124.036.329.009.222v.231l-.009.222-.036.338-.018.107-.062.32-.036.116-.027.089-.036.116-.151.391-.098.196-.053.098-.16.276-.062.107-.062.08-.071.089-.062.089-.08.089-.062.08-.071.089-.329.329-.169.142-.089.071-.178.133-.089.062-.187.116-.098.062-.373.187-.107.044-.204.08-.427.124-.311.062-.124.018-.329.027zm-3.983-.623h3.964l.196-.018.302-.027.089-.009.267-.062.187-.044.178-.053.178-.071.16-.071.089-.044.16-.089.071-.044.169-.107.071-.053.151-.116.08-.053.151-.133.071-.062.142-.151.062-.062.071-.089.062-.062.062-.089.053-.062.062-.089.053-.071.044-.071.151-.249.036-.071.044-.107.036-.071.133-.338.027-.098.027-.089.027-.071.053-.293.018-.08.027-.293.009-.196v-.204l-.009-.196-.027-.293-.018-.089-.053-.276-.027-.089-.036-.098-.018-.089-.133-.338-.044-.089-.036-.089-.036-.062-.151-.249-.044-.08-.062-.08-.053-.071-.062-.089-.053-.062-.071-.089-.062-.062-.062-.071-.142-.142-.071-.062-.089-.071-.062-.062-.089-.062-.062-.053-.089-.062-.071-.053-.071-.044-.249-.151-.071-.036-.107-.044-.071-.036-.338-.133-.267-.08-.284-.053-.089-.018-.293-.027-.196-.009h-3.964zm29.485-8.746v13.164h7.884v-1.013h-6.862v-5.067h5.316v-1.004h-5.316V5.609h6.818V4.596z"/><path fill="var(--color1,#fff)" d="M115.138 17.751h-1.084l-2.089-3.591-.053.009-.293.071-.204.036h-.089l-.213.036-.418.018h-4.018v3.422h-1.022V4.588h5.013l.249.009.24.027.124.018.107.018.133.018.338.089.231.062.213.071.124.053.302.142.213.116.204.124.098.062.196.142.267.231.107.08.356.356.08.089.231.284.071.098.196.293.062.107.107.204.098.204.053.107.044.116.08.222.089.356.027.089.053.249.053.48.009.24v.249l-.009.249-.027.24-.036.24-.018.116-.027.107-.027.133-.089.329-.089.222-.044.116-.044.089-.098.222-.062.107-.116.204-.196.302-.151.178-.151.187-.089.098-.089.089-.16.178-.178.16-.258.204-.089.071-.178.124-.107.062-.258.151zm-8.854-4.053h4.4l.382-.018.08-.009.098-.018h.089l.169-.036.267-.062.178-.053v-.009l.4-.178.178-.089.24-.142.08-.053.169-.116.071-.053.231-.196.151-.133.151-.151.071-.089.071-.071.142-.169.124-.169.178-.258.098-.178.044-.089.133-.276.036-.089.071-.196.089-.284.036-.213.018-.089.036-.213.018-.213v-.649l-.018-.213-.036-.213-.018-.089-.027-.116-.018-.089-.089-.302-.062-.187-.036-.089-.133-.284-.089-.178-.284-.427-.213-.249-.142-.16-.16-.151-.08-.08-.08-.071-.249-.204-.169-.116-.089-.062-.169-.107-.178-.089-.284-.133-.267-.107-.204-.053-.302-.071-.213-.036-.098-.018-.213-.018-.213-.009h-4.356zm-5.368 4.053h-.978V5.6h-3.813V4.587h8.613V5.6h-3.822zm-4.48 0h-1.084l-2.089-3.591-.053.009-.293.071-.204.036h-.089l-.213.036-.418.018h-4.018v3.422h-1.022V4.588h5.013l.249.009.24.027.124.018.107.018.133.018.338.089.231.062.213.071.124.053.302.142.213.116.204.124.098.062.196.142.267.231.107.08.356.356.08.089.231.284.071.098.196.293.062.107.107.204.098.204.053.107.044.116.08.222.089.356.027.089.053.249.053.48.009.24v.249l-.009.249-.027.24-.036.24-.018.116-.027.107-.027.133-.089.329-.089.222-.044.116-.044.089-.098.222-.062.107-.116.204-.196.302-.151.178-.151.187-.089.098-.089.089-.16.178-.178.16-.258.204-.089.071-.178.124-.107.062-.258.151zm-8.854-4.053h4.4l.382-.018.08-.009.098-.018h.089l.169-.036.267-.062.178-.053v-.009l.4-.178.178-.089.24-.142.08-.053.169-.116.071-.053.231-.196.151-.133.151-.151.071-.089.071-.071.142-.169.124-.169.178-.258.098-.178.044-.089.133-.276.036-.089.071-.196.089-.284.036-.213.018-.089.036-.213.018-.213v-.649l-.018-.213-.036-.213-.018-.089-.027-.116-.018-.089-.089-.302-.062-.187-.036-.089-.133-.284-.089-.178-.284-.427-.213-.249-.142-.16-.16-.151-.08-.08-.08-.071-.249-.204-.169-.116-.089-.062-.169-.107-.178-.089-.284-.133-.267-.107-.204-.053-.302-.071-.213-.036-.098-.018-.213-.018-.213-.009h-4.356zm-1.529 4.053h-1.12l-.96-2.044h-9.04l-.96 2.044h-1.12l6.036-12.907v-.258h.116l.053-.098.213.098h.622zm-11.244-2.684h9.298l-4.613-9.849h-.089zm-54.738 6.809h84.596v-.996H20.071z"/></symbol></defs></svg>