<svg style="position:absolute;width:0;height:0" xmlns="http://www.w3.org/2000/svg" overflow="hidden"><defs><symbol id="logob" viewBox="0 0 124 32"><path d="M25.369 4.697h-.162l-.157.005-.157.01-.152.015-.157.015-.152.02-.147.02-.152.025-.147.03-.147.035-.142.035-.147.04-.142.046-.137.046-.142.056-.137.051-.137.061-.132.061-.137.066-.132.071-.127.071-.132.076-.253.162-.121.086-.127.091-.116.096-.121.096-.121.101-.116.101-.111.111-.116.111-.111.111-.213.233-.101.121-.096.116-.096.121-.086.121-.172.253-.081.127-.076.127-.142.263-.066.132-.061.132-.111.273-.051.137-.051.142-.081.283-.041.147-.03.142-.03.147-.03.152-.02.147-.02.152-.015.152-.015.157-.005.152-.005.157-.005.162.015.471.015.157.015.152.041.304.091.44.041.147.081.283.051.142.051.137.111.273.061.137.066.132.142.263.076.127.081.127.172.253.086.121.192.243.101.116.213.233.111.116.228.218.116.101.243.202.116.091.127.091.121.086.253.162.132.076.127.076.132.066.137.066.132.061.137.061.137.056.142.051.137.046.142.046.147.041.142.035.147.035.147.03.152.025.147.025.152.02.157.015.152.01.157.01.157.005h.319l.157-.005.157-.01.152-.01.152-.015.152-.02.152-.025.147-.025.147-.03.147-.035.142-.035.147-.041.137-.046.142-.046.137-.051.137-.056.273-.121.263-.132.127-.076.132-.076.253-.162.121-.086.243-.182.121-.101.233-.202.116-.106.116-.111.111-.116.213-.233.096-.116.101-.121.182-.243.172-.253.152-.253.076-.132.132-.263.066-.137.111-.273.051-.137.091-.283.041-.142.041-.147.061-.294.025-.147.025-.152.02-.152.015-.152.02-.314.01-.314-.005-.162-.005-.157-.01-.152-.01-.157-.015-.152-.02-.152-.025-.147-.025-.152-.03-.147-.03-.142-.041-.147-.041-.142-.091-.283-.051-.137-.111-.273-.197-.395-.076-.132-.152-.253-.172-.253-.182-.243-.101-.116-.096-.121-.213-.233-.111-.111-.233-.223-.233-.202-.243-.192-.121-.091-.121-.086-.253-.162-.132-.076-.127-.071-.132-.071-.132-.066-.273-.121-.137-.051-.137-.056-.142-.046-.137-.046-.147-.04-.142-.035-.147-.035-.147-.03-.147-.025-.304-.04-.304-.03-.157-.01-.157-.005h-.157zm0-.374h.167l.167.01.167.005.324.03.162.02.162.025.314.061.152.035.304.081.152.051.294.101.147.061.142.061.147.066.137.071.142.071.137.076.137.081.132.086.137.086.132.091.127.096.132.101.127.101.121.106.127.111.121.111.121.121.233.243.106.121.111.127.101.127.096.127.096.132.182.263.086.137.076.137.081.137.071.137.071.142.066.142.061.142.111.294.051.152.046.147.046.152.041.152.035.157.03.157.051.314.041.324.01.167.01.162.005.167.005.172-.01.334-.02.334-.041.324-.025.162-.025.157-.03.157-.035.157-.041.152-.091.304-.051.147-.111.294-.061.147-.066.142-.071.142-.071.137-.081.142-.076.132-.086.137-.182.263-.192.263-.101.127-.111.121-.106.127-.233.243-.243.233-.127.106-.121.106-.127.106-.132.096-.127.096-.132.091-.137.091-.132.081-.137.081-.137.076-.142.076-.137.066-.147.066-.142.066-.294.111-.147.051-.304.091-.304.071-.157.035-.157.025-.162.025-.162.02-.324.03-.167.01-.167.005h-.339l-.167-.005-.167-.01-.162-.015-.167-.015-.157-.02-.162-.025-.157-.025-.314-.071-.152-.035-.304-.091-.152-.051-.294-.111-.425-.197-.142-.076-.137-.076-.273-.162-.263-.182-.132-.096-.127-.096-.253-.213-.121-.106-.243-.233-.121-.121-.111-.121-.111-.127-.106-.121-.101-.127-.101-.132-.096-.132-.091-.132-.086-.132-.086-.137-.081-.132-.076-.142-.071-.137-.071-.142-.066-.142-.121-.294-.101-.294-.091-.304-.041-.152-.035-.157-.061-.314-.061-.486-.02-.334-.01-.334.005-.172.005-.167.01-.162.01-.167.041-.324.02-.157.061-.314.035-.157.041-.152.046-.152.046-.147.051-.152.051-.147.061-.147.061-.142.066-.142.071-.142.071-.137.076-.137.081-.137.086-.137.086-.132.091-.132.096-.132.202-.253.106-.127.223-.243.243-.243.243-.223.127-.106.253-.202.132-.096.132-.091.132-.086.137-.086.137-.081.137-.076.283-.142.142-.066.142-.061.147-.061.147-.051.304-.101.304-.081.157-.035.314-.061.162-.025.157-.02.167-.015.162-.015.167-.005.167-.01h.172z"/><path fill="#fff" stroke="#000" stroke-width="2.353" d="M25.369 4.697h-.162l-.157.005-.157.01-.152.015-.157.015-.152.02-.147.02-.152.025-.147.03-.147.035-.142.035-.147.04-.142.046-.137.046-.142.056-.137.051-.137.061-.132.061-.137.066-.132.071-.127.071-.132.076-.253.162-.121.086-.127.091-.116.096-.121.096-.121.101-.116.101-.111.111-.116.111-.111.111-.213.233-.101.121-.096.116-.096.121-.086.121-.172.253-.081.127-.076.127-.142.263-.066.132-.061.132-.111.273-.051.137-.051.142-.081.283-.041.147-.03.142-.03.147-.03.152-.02.147-.02.152-.015.152-.015.157-.005.152-.005.157-.005.162.015.471.015.157.015.152.041.304.091.44.041.147.081.283.051.142.051.137.111.273.061.137.066.132.142.263.076.127.081.127.172.253.086.121.192.243.101.116.213.233.111.116.228.218.116.101.243.202.116.091.127.091.121.086.253.162.132.076.127.076.132.066.137.066.132.061.137.061.137.056.142.051.137.046.142.046.147.041.142.035.147.035.147.03.152.025.147.025.152.02.157.015.152.01.157.01.157.005h.319l.157-.005.157-.01.152-.01.152-.015.152-.02.152-.025.147-.025.147-.03.147-.035.142-.035.147-.041.137-.046.142-.046.137-.051.137-.056.273-.121.263-.132.127-.076.132-.076.253-.162.121-.086.243-.182.121-.101.233-.202.116-.106.116-.111.111-.116.213-.233.096-.116.101-.121.182-.243.172-.253.152-.253.076-.132.132-.263.066-.137.111-.273.051-.137.091-.283.041-.142.041-.147.061-.294.025-.147.025-.152.02-.152.015-.152.02-.314.01-.314-.005-.162-.005-.157-.01-.152-.01-.157-.015-.152-.02-.152-.025-.147-.025-.152-.03-.147-.03-.142-.041-.147-.041-.142-.091-.283-.051-.137-.111-.273-.197-.395-.076-.132-.152-.253-.172-.253-.182-.243-.101-.116-.096-.121-.213-.233-.111-.111-.233-.223-.233-.202-.243-.192-.121-.091-.121-.086-.253-.162-.132-.076-.127-.071-.132-.071-.132-.066-.273-.121-.137-.051-.137-.056-.142-.046-.137-.046-.147-.04-.142-.035-.147-.035-.147-.03-.147-.025-.304-.04-.304-.03-.157-.01-.157-.005h-.157"/><path fill="#fff" stroke="#000" stroke-width="2.353" d="M25.369 4.323h.167l.167.01.167.005.324.03.162.02.162.025.314.061.152.035.304.081.152.051.294.101.147.061.142.061.147.066.137.071.142.071.137.076.137.081.132.086.137.086.132.091.127.096.132.101.127.101.121.106.127.111.121.111.121.121.233.243.106.121.111.127.101.127.096.127.096.132.182.263.086.137.076.137.081.137.071.137.071.142.066.142.061.142.111.294.051.152.046.147.046.152.041.152.035.157.03.157.051.314.041.324.01.167.01.162.005.167.005.172-.01.334-.02.334-.041.324-.025.162-.025.157-.03.157-.035.157-.041.152-.091.304-.051.147-.111.294-.061.147-.066.142-.071.142-.071.137-.081.142-.076.132-.086.137-.182.263-.192.263-.101.127-.111.121-.106.127-.233.243-.243.233-.127.106-.121.106-.127.106-.132.096-.127.096-.132.091-.137.091-.132.081-.137.081-.137.076-.142.076-.137.066-.147.066-.142.066-.294.111-.147.051-.304.091-.304.071-.157.035-.157.025-.162.025-.162.02-.324.03-.167.01-.167.005h-.339l-.167-.005-.167-.01-.162-.015-.167-.015-.157-.02-.162-.025-.157-.025-.314-.071-.152-.035-.304-.091-.152-.051-.294-.111-.425-.197-.142-.076-.137-.076-.273-.162-.263-.182-.132-.096-.127-.096-.253-.213-.121-.106-.243-.233-.121-.121-.111-.121-.111-.127-.106-.121-.101-.127-.101-.132-.096-.132-.091-.132-.086-.132-.086-.137-.081-.132-.076-.142-.071-.137-.071-.142-.066-.142-.121-.294-.101-.294-.091-.304-.041-.152-.035-.157-.061-.314-.061-.486-.02-.334-.01-.334.005-.172.005-.167.01-.162.01-.167.041-.324.02-.157.061-.314.035-.157.041-.152.046-.152.046-.147.051-.152.051-.147.061-.147.061-.142.066-.142.071-.142.071-.137.076-.137.081-.137.086-.137.086-.132.091-.132.096-.132.202-.253.106-.127.223-.243.243-.243.243-.223.127-.106.253-.202.132-.096.132-.091.132-.086.137-.086.137-.081.137-.076.283-.142.142-.066.142-.061.147-.061.147-.051.304-.101.304-.081.157-.035.314-.061.162-.025.157-.02.167-.015.162-.015.167-.005.167-.01h.172"/><path d="M45.247 4.697h7.861v.375h-3.746v11.981h-.375V5.072h-3.741v-.375zm-11.09 0h.481l8.595 11.844V4.697h.375v12.355h-.481L34.532 5.208v11.844h-.375V4.697z"/><path fill="#fff" stroke="#000" stroke-width="2.353" d="M45.247 4.697h7.861v.375h-3.746v11.981h-.375V5.072h-3.741v-.375zm-11.09 0h.481l8.595 11.844V4.697h.375v12.355h-.481L34.532 5.208v11.844h-.375V4.697z"/><path fill="#fff" stroke="#0d0d0d" stroke-width="3.711" d="M19.705.511h82.197"/><path d="M44.26 27.201l-1.088 2.576h2.131l-1.043-2.576zm12.477-.364h-.076l-.071.005-.142.02-.066.015-.071.02-.066.02-.066.03-.061.025-.061.035-.066.035-.056.041-.061.041-.056.051-.056.046-.051.056-.056.056-.046.056-.091.121-.071.121-.035.066-.051.132-.041.142-.015.071-.01.071-.01.076-.005.076v.177l.01.101.005.046.01.051.02.091.015.051.046.137.041.091.02.041.025.046.051.086.056.081.061.071.066.071.066.066.071.061.076.056.086.051.081.041.046.02.041.02.182.061.091.02.046.005.046.01.051.005h.051l.046.005h.101l.046-.005h.051l.051-.005.046-.01.046-.005.091-.02.182-.061.081-.041.046-.02.041-.02.081-.051.076-.056.076-.061.066-.066.066-.071.061-.071.056-.081.051-.086.02-.046.025-.041.041-.091.046-.137.015-.051.02-.091.005-.051.01-.046.005-.051v-.051l.005-.051v-.127l-.005-.076-.01-.076-.01-.071-.015-.071-.041-.142-.025-.066-.061-.132-.035-.061-.081-.121-.046-.061-.101-.111-.056-.056-.056-.046-.056-.051-.056-.041-.061-.041-.121-.071-.066-.025-.066-.03-.132-.041-.066-.015-.142-.02-.071-.005h-.076zm4.748-.005h-.076l-.076.005-.076.01-.071.01-.071.015-.071.02-.066.02-.066.025-.066.03-.061.03-.061.035-.121.081-.056.046-.056.051-.106.106-.046.056-.046.061-.041.056-.041.066-.035.061-.03.066-.051.132-.025.071-.015.071-.03.152-.01.152v.187l.015.152.01.051.01.046.01.051.01.046.03.091.02.046.015.046.02.046.02.041.025.046.051.081.056.076.03.041.061.071.066.066.035.03.041.03.035.03.041.03.041.025.041.03.046.025.046.02.046.025.041.02.046.02.091.03.051.015.046.015.091.02.051.01.046.005.051.005.046.005h.051l.051.005.046-.005h.046l.051-.005.091-.01.137-.03.137-.046.046-.02.041-.015.046-.025.041-.02.046-.025.081-.051.041-.03.035-.03.041-.03.035-.03.071-.066.066-.071.061-.081.056-.081.056-.086.02-.046.025-.046.041-.091.015-.046.02-.046.015-.046.01-.051.015-.046.01-.046.005-.051.01-.046.005-.051v-.046l.005-.051v-.096l-.005-.051v-.046l-.005-.051-.01-.046-.005-.051-.01-.046-.015-.051-.01-.046-.015-.046-.02-.046-.015-.046-.041-.091-.025-.046-.02-.046-.056-.086-.056-.081-.061-.076-.066-.071-.066-.066-.076-.066-.076-.056-.081-.051-.046-.025-.041-.02-.091-.041-.041-.015-.137-.046-.046-.01-.051-.01-.046-.01-.046-.005-.051-.005-.046-.005h-.101zm13.742-.005h-.066l-.071.005-.061.005-.132.02-.061.015-.061.02-.056.02-.061.025-.056.025-.111.061-.056.035-.051.035-.051.041-.051.046-.035.03-.035.035-.03.035-.03.041-.035.041-.03.041-.025.046-.03.051-.025.046-.025.051-.025.056-.02.056-.025.056-.04.121-.015.061h2.769l-.051-.182-.035-.081-.03-.081-.035-.071-.04-.071-.04-.066-.046-.056-.046-.061-.051-.051-.056-.051-.121-.091-.066-.046-.071-.035-.152-.071-.076-.03-.076-.02-.081-.02-.081-.015-.076-.015-.086-.005h-.081zm-26.579 0h-.066l-.071.005-.061.005-.132.02-.061.015-.061.02-.056.02-.061.025-.056.025-.111.061-.056.035-.051.035-.051.041-.051.046-.035.03-.035.035-.03.035-.03.041-.035.041-.03.041-.025.046-.03.051-.025.046-.025.051-.025.056-.02.056-.025.056-.041.121-.015.061h2.769l-.051-.182-.035-.081-.03-.081-.035-.071-.041-.071-.041-.066-.046-.056-.046-.061-.051-.051-.056-.051-.121-.091-.066-.046-.071-.035-.152-.071-.076-.03-.076-.02-.081-.02-.081-.015-.076-.015-.086-.005h-.081zm29.399-.365h.476v1.478h2.166v-1.478h.476v3.72h-.476V28.39h-2.166v1.792h-.476v-3.72zm-7.648 0h2.45v.415h-.987v3.305h-.476v-3.305h-.987v-.415zm-18.931 0h.476v1.569l1.726-1.569h.663l-1.883 1.706 2.035 2.015h-.678l-1.711-1.721-.152.137v1.584h-.476v-3.72zm-7.325 0h.248l1.427 3.315h.45v.881h-.461v-.476h-3.078v.496h-.471v-.901h.45l1.432-3.315zm31.079-.096h.061l.056.005h.061l.111.01.056.01.051.01.111.02.152.046.051.02.051.015.046.02.051.025.046.02.091.051.046.03.046.025.04.03.046.035.04.03.121.106.04.041.035.041.04.041.071.091.051.061.046.071.04.066.04.071.035.076.035.071.03.076.051.162.02.081.046.258.005.091.01.091v.096h-3.346l.005.081.005.076.02.152.015.076.02.071.02.066.051.132.03.066.071.121.04.061.04.056.046.056.101.101.051.046.056.046.056.041.111.071.061.03.121.051.132.041.066.01.071.015.213.015.213-.015.071-.01.066-.015.071-.015.066-.02.071-.025.061-.025.066-.025.061-.03.056-.035.061-.03.051-.035.051-.041.051-.035.02-.025.025-.02.051-.051.02-.03.025-.025.025-.03.025-.035.025-.03.025-.035.03-.041.025-.035.025-.041.025-.046.03-.041.025-.046.405.213-.051.096-.056.091-.051.086-.061.081-.056.076-.061.071-.061.066-.066.061-.132.111-.142.101-.152.081-.081.035-.076.035-.086.03-.086.025-.086.02-.091.02-.091.01-.096.01-.101.01h-.213l-.111-.01-.106-.01-.101-.015-.101-.025-.096-.025-.091-.03-.091-.035-.086-.035-.086-.046-.081-.051-.076-.051-.076-.061-.071-.061-.071-.071-.066-.071-.121-.152-.051-.076-.051-.081-.091-.162-.035-.081-.035-.086-.03-.081-.025-.086-.025-.091-.015-.086-.015-.091-.01-.091-.005-.091v-.182l.005-.086.01-.086.01-.081.015-.086.04-.162.025-.076.03-.081.03-.076.035-.076.04-.076.04-.071.046-.076.051-.071.056-.066.03-.046.035-.041.04-.041.071-.081.081-.071.035-.035.046-.03.081-.061.04-.025.046-.03.091-.051.137-.061.051-.02.046-.015.152-.046.051-.01.056-.01.051-.01.056-.01.051-.005.056-.005h.056l.061-.005h.056zm-7.025 0h.091l.091.005.086.01.182.03.172.041.086.03.086.025.081.035.076.03.076.035.071.041.066.035.066.046.121.091.111.101.051.056.051.061.046.061.046.066.046.071-.38.238-.035-.041-.061-.081-.035-.035-.03-.035-.035-.03-.035-.035-.035-.03-.04-.03-.035-.03-.035-.025-.121-.076-.081-.041-.046-.02-.04-.02-.046-.015-.04-.015-.091-.03-.051-.01-.091-.02-.051-.01-.202-.02h-.187l-.081.005-.162.02-.076.015-.076.02-.071.02-.071.025-.142.061-.066.035-.061.041-.066.041-.061.046-.056.051-.111.111-.101.111-.081.121-.035.066-.035.061-.03.066-.025.071-.025.066-.046.213-.01.076-.005.076v.132l.005.046v.051l.01.051.005.051.01.046.01.051.01.046.015.051.03.091.02.051.04.091.051.091.025.041.025.046.091.121.035.035.03.041.035.035.035.03.035.035.081.061.081.056.091.056.091.046.091.041.051.015.046.015.101.03.101.02.056.01.051.005.056.005.051.005h.056l.056.005.051-.005h.051l.051-.005h.051l.046-.01.051-.005.182-.041.137-.046.04-.015.046-.02.121-.061.162-.101.071-.061.04-.03.035-.035.035-.03.071-.071.03-.041.035-.041.035-.035.38.248-.035.051-.035.046-.035.051-.04.046-.04.041-.04.046-.04.041-.046.041-.091.071-.101.071-.051.03-.051.035-.056.025-.056.03-.056.025-.061.025-.056.025-.182.061-.061.015-.066.015-.066.01-.061.015-.071.01-.132.01-.142.01h-.182l-.106-.01-.101-.01-.106-.015-.096-.02-.192-.051-.182-.071-.091-.041-.086-.046-.081-.051-.081-.056-.076-.061-.152-.132-.071-.071-.066-.071-.061-.076-.056-.076-.056-.081-.091-.162-.071-.172-.03-.086-.025-.091-.02-.091-.015-.096-.02-.192v-.167l.015-.197.01-.066.015-.061.01-.066.015-.061.02-.066.04-.121.051-.121.03-.056.03-.061.035-.056.03-.061.04-.056.035-.051.04-.056.04-.051.046-.046.04-.051.046-.046.051-.046.046-.041.051-.041.056-.041.051-.041.111-.071.061-.03.061-.035.061-.025.061-.03.066-.025.061-.02.066-.025.066-.02.197-.046.142-.02.213-.015h.076zm-6.672 0h.096l.192.02.091.015.091.02.091.025.172.061.086.041.081.041.081.051.076.051.076.056.076.061.071.061.076.071.066.071.066.076.111.152.101.162.041.081.071.172.051.182.02.091.015.096.01.091.01.101v.202l-.01.096-.01.101-.015.091-.02.096-.051.182-.071.172-.041.086-.046.081-.051.081-.056.076-.121.152-.066.076-.071.066-.076.066-.071.061-.076.056-.162.101-.162.081-.172.061-.091.025-.086.02-.096.015-.091.01-.096.01h-.152l-.056-.005h-.056l-.051-.005-.056-.01-.051-.005-.051-.01-.056-.01-.051-.015-.051-.01-.046-.015-.051-.02-.051-.015-.046-.02-.051-.02-.046-.02-.091-.051-.046-.03-.046-.025-.041-.03-.046-.03-.041-.03-.046-.035-.081-.071-.121-.121-.035-.041-.041-.046-.035-.041v1.999h-.481v-5.082h.481v.683l.035-.046.035-.051.035-.041.035-.046.081-.081.035-.041.041-.035.046-.035.041-.035.041-.03.046-.035.041-.03.182-.101.051-.02.046-.025.051-.015.046-.02.101-.03.051-.01.056-.015.051-.01.051-.005.056-.01.056-.005h.056l.056-.005h.056zm-4.788 0l.213.01.101.01.096.02.101.02.091.025.096.035.086.035.091.041.086.046.081.051.081.056.081.061.076.066.147.147.061.071.111.152.051.076.046.076.046.081.035.081.035.086.03.081.025.086.041.182.02.182.01.096v.192l-.01.091-.01.096-.03.182-.025.091-.025.086-.035.086-.035.081-.041.086-.041.081-.051.081-.111.152-.061.076-.066.076-.071.071-.071.066-.071.061-.076.056-.162.101-.172.081-.086.035-.091.03-.096.025-.091.02-.101.015-.202.02h-.213l-.202-.02-.101-.015-.091-.02-.096-.025-.091-.03-.086-.035-.172-.081-.162-.101-.076-.056-.071-.061-.071-.066-.071-.071-.066-.076-.061-.076-.111-.152-.051-.081-.041-.081-.041-.086-.041-.081-.03-.086-.025-.086-.025-.091-.02-.091-.015-.091-.01-.096-.005-.091v-.192l.005-.096.01-.091.03-.182.051-.172.03-.086.071-.162.046-.081.046-.076.051-.081.051-.071.061-.076.061-.071.071-.076.076-.071.076-.066.081-.061.081-.056.081-.051.086-.051.086-.041.091-.035.096-.03.091-.03.101-.02.096-.02.101-.01.213-.01zm-8.094 0h.061l.056.005h.061l.111.01.056.01.051.01.111.02.152.046.051.02.051.015.046.02.051.025.046.02.091.051.046.03.046.025.041.03.046.035.041.03.121.106.041.041.035.041.041.041.071.091.051.061.046.071.041.066.041.071.035.076.035.071.03.076.051.162.02.081.046.258.005.091.01.091v.096h-3.346l.005.081.005.076.02.152.015.076.02.071.02.066.051.132.03.066.071.121.041.061.041.056.046.056.101.101.051.046.056.046.056.041.111.071.061.03.121.051.132.041.066.01.071.015.213.015.213-.015.071-.01.066-.015.071-.015.066-.02.071-.025.061-.025.066-.025.061-.03.056-.035.061-.03.051-.035.051-.041.051-.035.02-.025.025-.02.051-.051.02-.03.025-.025.025-.03.025-.035.025-.03.025-.035.03-.041.025-.035.025-.041.025-.046.03-.041.025-.046.405.213-.051.096-.056.091-.051.086-.061.081-.056.076-.061.071-.061.066-.066.061-.132.111-.142.101-.152.081-.081.035-.076.035-.086.03-.086.025-.086.02-.091.02-.091.01-.096.01-.101.01h-.213l-.111-.01-.106-.01-.101-.015-.101-.025-.096-.025-.091-.03-.091-.035-.086-.035-.086-.046-.081-.051-.076-.051-.076-.061-.071-.061-.071-.071-.066-.071-.121-.152-.051-.076-.051-.081-.091-.162-.035-.081-.035-.086-.03-.081-.025-.086-.025-.091-.015-.086-.015-.091-.01-.091-.005-.091v-.182l.005-.086.01-.086.01-.081.015-.086.041-.162.025-.076.03-.081.03-.076.035-.076.041-.076.041-.071.046-.076.051-.071.056-.066.03-.046.035-.041.041-.041.071-.081.081-.071.035-.035.046-.03.081-.061.041-.025.046-.03.091-.051.137-.061.051-.02.046-.015.152-.046.051-.01.056-.01.051-.01.056-.01.051-.005.056-.005h.056l.061-.005h.056z"/><path fill="none" stroke="var(--color1,#0d0d0d)" stroke-width="3.711" stroke-linecap="round" stroke-linejoin="round" d="M.506 17.093L6.858 4.712l2.445 4.885m-1.624 3.098l4.399-7.982 6.023 12.214m34.237.004L58.696 4.55l2.44 4.885m-1.625 3.098l4.399-7.982 6.029 12.214"/><path d="M77.981 5.229l-4.464 9.567h8.924l-4.459-9.567zm26.437-.016v8.235h4.221l.106-.005.101-.005.106-.01.202-.02.101-.015.101-.02.192-.04.192-.051.096-.03.091-.03.096-.035.091-.035.091-.04.086-.04.091-.046.172-.091.086-.051.172-.111.081-.056.162-.121.081-.066.076-.066.081-.071.076-.071.152-.152.071-.076.066-.081.071-.076.061-.081.066-.081.056-.081.061-.081.056-.086.152-.258.046-.086.04-.091.046-.086.106-.273.035-.096.025-.096.03-.091.025-.096.02-.101.02-.096.02-.101.015-.096.02-.202.01-.106.005-.101.005-.106v-.213l-.005-.106-.005-.101-.01-.106-.02-.202-.015-.101-.02-.101-.04-.192-.025-.096-.03-.096-.025-.096-.035-.091-.035-.096-.071-.182-.046-.086-.04-.091-.046-.086-.152-.258-.056-.086-.061-.081-.056-.081-.066-.081-.061-.081-.071-.076-.066-.081-.071-.076-.152-.152-.076-.071-.081-.066-.076-.071-.081-.061-.081-.066-.081-.056-.081-.061-.086-.056-.258-.152-.086-.046-.091-.04-.086-.046-.182-.071-.096-.035-.091-.035-.096-.025-.096-.03-.096-.025-.192-.04-.101-.02-.101-.015-.202-.02-.106-.01-.101-.005-.106-.005h-4.221zm-18.384 0v8.235h4.221l.106-.005.101-.005.106-.01.202-.02.101-.015.101-.02.192-.04.192-.051.096-.03.091-.03.096-.035.091-.035.091-.04.086-.04.091-.046.172-.091.086-.051.172-.111.081-.056.162-.121.081-.066.076-.066.081-.071.076-.071.152-.152.071-.076.066-.081.071-.076.061-.081.066-.081.056-.081.061-.081.056-.086.152-.258.046-.086.04-.091.046-.086.106-.273.035-.096.025-.096.03-.091.025-.096.02-.101.02-.096.02-.101.015-.096.02-.202.01-.106.005-.101.005-.106v-.213l-.005-.106-.005-.101-.01-.106-.02-.202-.015-.101-.02-.101-.04-.192-.025-.096-.03-.096-.025-.096-.035-.091L94 7.848l-.071-.182-.046-.086-.04-.091-.046-.086-.152-.258-.056-.086-.061-.081-.056-.081-.066-.081-.061-.081-.071-.076-.066-.081-.071-.076-.152-.152-.076-.071-.081-.066-.076-.071-.081-.061-.081-.066-.081-.056-.081-.061-.086-.056-.258-.152-.086-.046-.091-.04-.086-.046-.182-.071-.096-.035-.091-.035-.096-.025-.096-.03-.096-.025-.192-.04-.101-.02-.101-.015-.202-.02-.106-.01-.101-.005-.106-.005h-4.221zm29.611-.374h7.112v.375h-6.737v5.613h5.239v.375h-5.239v5.618h6.737v.375h-7.112V4.84zm-11.601 0h4.606l.228.01.223.02.111.015.111.02.106.015.319.076.101.03.106.03.202.071.101.04.289.137.192.101.091.056.096.061.091.061.086.061.091.066.258.213.086.076.086.081.162.162.081.086.076.086.213.258.066.091.182.273.056.091.101.192.091.192.046.101.04.096.071.202.03.106.03.101.03.106.02.106.025.106.02.106.03.223.02.223.005.116.005.111v.233l-.005.111-.005.116-.02.223-.015.111-.015.106-.02.106-.025.111-.02.106-.03.101-.03.106-.03.101-.071.202-.04.101-.046.096-.046.101-.046.096-.051.096-.051.091-.056.096-.182.273-.066.086-.071.091-.142.172-.076.086-.081.086-.157.157-.081.076-.076.071-.243.197-.081.061-.172.121-.086.056-.258.152-.182.091-.091.04 2.156 3.746h-.451l-2.065-3.594-.172.051-.091.025-.086.02-.182.04-.086.015-.091.015-.096.01-.091.015-.091.01-.385.02h-4.211v3.371h-.375V4.828zm-9.359 0h7.861v.375H98.8v11.981h-.37V5.214h-3.746v-.375zm-9.025 0h4.606l.228.01.223.02.111.015.111.02.106.015.319.076.101.03.106.03.202.071.101.04.289.137.192.101.091.056.096.061.091.061.086.061.091.066.258.213.086.076.086.081.162.162.081.086.076.086.213.258.066.091.182.273.056.091.101.192.091.192.046.101.04.096.071.202.03.106.03.101.03.106.02.106.025.106.02.106.03.223.02.223.005.116.005.111v.233l-.005.111-.005.116-.02.223-.015.111-.015.106-.02.106-.025.111-.02.106-.03.101-.03.106-.03.101-.071.202-.04.101-.046.096-.046.101-.046.096-.051.096-.051.091-.056.096-.182.273-.066.086-.071.091-.142.172-.076.086-.081.086-.157.157-.081.076-.076.071-.243.197-.081.061-.172.121-.086.056-.258.152-.182.091-.091.04 2.156 3.746h-.451l-2.065-3.594-.172.051-.091.025-.086.02-.182.04-.086.015-.091.015-.096.01-.091.015-.091.01-.385.02h-4.211v3.371h-.375V4.828zm-7.922 0h.481l5.765 12.355h-.42l-.941-2.025H73.34l-.947 2.025h-.415l5.76-12.355z"/><path fill="none" stroke="var(--color1,#0d0d0d)" stroke-width="2.353" stroke-linecap="round" stroke-linejoin="round" d="M77.981 5.229l-4.464 9.567h8.924l-4.459-9.567m26.436-.016v8.235h4.221l.106-.005.101-.005.106-.01.202-.02.101-.015.101-.02.192-.04.192-.051.096-.03.091-.03.096-.035.091-.035.091-.04.086-.04.091-.046.172-.091.086-.051.172-.111.081-.056.162-.121.081-.066.076-.066.081-.071.076-.071.152-.152.071-.076.066-.081.071-.076.061-.081.066-.081.056-.081.061-.081.056-.086.152-.258.046-.086.04-.091.046-.086.106-.273.035-.096.025-.096.03-.091.025-.096.02-.101.02-.096.02-.101.015-.096.02-.202.01-.106.005-.101.005-.106v-.213l-.005-.106-.005-.101-.01-.106-.02-.202-.015-.101-.02-.101-.04-.192-.025-.096-.03-.096-.025-.096-.035-.091-.035-.096-.071-.182-.046-.086-.04-.091-.046-.086-.152-.258-.056-.086-.061-.081-.056-.081-.066-.081-.061-.081-.071-.076-.066-.081-.071-.076-.152-.152-.076-.071-.081-.066-.076-.071-.081-.061-.081-.066-.081-.056-.081-.061-.086-.056-.258-.152-.086-.046-.091-.04-.086-.046-.182-.071-.096-.035-.091-.035-.096-.025-.096-.03-.096-.025-.192-.04-.101-.02-.101-.015-.202-.02-.106-.01-.101-.005-.106-.005h-4.221m-18.384-.009v8.235h4.221l.106-.005.101-.005.106-.01.202-.02.101-.015.101-.02.192-.04.192-.051.096-.03.091-.03.096-.035.091-.035.091-.04.086-.04.091-.046.172-.091.086-.051.172-.111.081-.056.162-.121.081-.066.076-.066.081-.071.076-.071.152-.152.071-.076.066-.081.071-.076.061-.081.066-.081.056-.081.061-.081.056-.086.152-.258.046-.086.04-.091.046-.086.106-.273.035-.096.025-.096.03-.091.025-.096.02-.101.02-.096.02-.101.015-.096.02-.202.01-.106.005-.101.005-.106v-.213l-.005-.106-.005-.101-.01-.106-.02-.202-.015-.101-.02-.101-.04-.192-.025-.096-.03-.096-.025-.096-.035-.091L94 7.848l-.071-.182-.046-.086-.04-.091-.046-.086-.152-.258-.056-.086-.061-.081-.056-.081-.066-.081-.061-.081-.071-.076-.066-.081-.071-.076-.152-.152-.076-.071-.081-.066-.076-.071-.081-.061-.081-.066-.081-.056-.081-.061-.086-.056-.258-.152-.086-.046-.091-.04-.086-.046-.182-.071-.096-.035-.091-.035-.096-.025-.096-.03-.096-.025-.192-.04-.101-.02-.101-.015-.202-.02-.106-.01-.101-.005-.106-.005h-4.221m29.611-.383h7.112v.375h-6.737v5.613h5.239v.375h-5.239v5.618h6.737v.375h-7.112V4.84"/><path fill="none" stroke="var(--color1,#0d0d0d)" stroke-width="2.353" stroke-linecap="round" stroke-linejoin="round" d="M104.044 4.839h4.606l.228.01.223.02.111.015.111.02.106.015.319.076.101.03.106.03.202.071.101.04.289.137.192.101.091.056.096.061.091.061.086.061.091.066.258.213.086.076.086.081.162.162.081.086.076.086.213.258.066.091.182.273.056.091.101.192.091.192.046.101.04.096.071.202.03.106.03.101.03.106.02.106.025.106.02.106.03.223.02.223.005.116.005.111v.233l-.005.111-.005.116-.02.223-.015.111-.015.106-.02.106-.025.111-.02.106-.03.101-.03.106-.03.101-.071.202-.04.101-.046.096-.046.101-.046.096-.051.096-.051.091-.056.096-.182.273-.066.086-.071.091-.142.172-.076.086-.081.086-.157.157-.081.076-.076.071-.243.197-.081.061-.172.121-.086.056-.258.152-.182.091-.091.04 2.156 3.746h-.451l-2.065-3.594-.172.051-.091.025-.086.02-.182.04-.086.015-.091.015-.096.01-.091.015-.091.01-.385.02h-4.211v3.371h-.375V4.828m-9.355.011h7.861v.375H98.8v11.981h-.37V5.214h-3.746v-.375m-9.024 0h4.606l.228.01.223.02.111.015.111.02.106.015.319.076.101.03.106.03.202.071.101.04.289.137.192.101.091.056.096.061.091.061.086.061.091.066.258.213.086.076.086.081.162.162.081.086.076.086.213.258.066.091.182.273.056.091.101.192.091.192.046.101.04.096.071.202.03.106.03.101.03.106.02.106.025.106.02.106.03.223.02.223.005.116.005.111v.233l-.005.111-.005.116-.02.223-.015.111-.015.106-.02.106-.025.111-.02.106-.03.101-.03.106-.03.101-.071.202-.04.101-.046.096-.046.101-.046.096-.051.096-.051.091-.056.096-.182.273-.066.086-.071.091-.142.172-.076.086-.081.086-.157.157-.081.076-.076.071-.243.197-.081.061-.172.121-.086.056-.258.152-.182.091-.091.04 2.156 3.746h-.451l-2.065-3.594-.172.051-.091.025-.086.02-.182.04-.086.015-.091.015-.096.01-.091.015-.091.01-.385.02h-4.211v3.371h-.375V4.828m-7.918.011h.481l5.765 12.355h-.42l-.941-2.025H73.34l-.947 2.025h-.415l5.76-12.355"/><path fill="none" stroke="var(--color1,#0d0d0d)" stroke-width="3.711" stroke-linecap="round" stroke-linejoin="round" d="M20.09 21.082h82.197"/></symbol><symbol id="logow" viewBox="0 0 124 32"><path fill="var(--color2,#f2f2f2)" d="M25.369 4.697h-.162l-.157.005-.157.01-.152.015-.157.015-.152.02-.147.02-.152.025-.147.03-.147.035-.142.035-.147.04-.142.046-.137.046-.142.056-.137.051-.137.061-.132.061-.137.066-.132.071-.127.071-.132.076-.253.162-.121.086-.127.091-.116.096-.121.096-.121.101-.116.101-.111.111-.116.111-.111.111-.213.233-.101.121-.096.116-.096.121-.086.121-.172.253-.081.127-.076.127-.142.263-.066.132-.061.132-.111.273-.051.137-.051.142-.081.283-.041.147-.03.142-.03.147-.03.152-.02.147-.02.152-.015.152-.015.157-.005.152-.005.157-.005.162.015.471.015.157.015.152.041.304.091.44.041.147.081.283.051.142.051.137.111.273.061.137.066.132.142.263.076.127.081.127.172.253.086.121.192.243.101.116.213.233.111.116.228.218.116.101.243.202.116.091.127.091.121.086.253.162.132.076.127.076.132.066.137.066.132.061.137.061.137.056.142.051.137.046.142.046.147.041.142.035.147.035.147.03.152.025.147.025.152.02.157.015.152.01.157.01.157.005h.319l.157-.005.157-.01.152-.01.152-.015.152-.02.152-.025.147-.025.147-.03.147-.035.142-.035.147-.041.137-.046.142-.046.137-.051.137-.056.273-.121.263-.132.127-.076.132-.076.253-.162.121-.086.243-.182.121-.101.233-.202.116-.106.116-.111.111-.116.213-.233.096-.116.101-.121.182-.243.172-.253.152-.253.076-.132.132-.263.066-.137.111-.273.051-.137.091-.283.041-.142.041-.147.061-.294.025-.147.025-.152.02-.152.015-.152.02-.314.01-.314-.005-.162-.005-.157-.01-.152-.01-.157-.015-.152-.02-.152-.025-.147-.025-.152-.03-.147-.03-.142-.041-.147-.041-.142-.091-.283-.051-.137-.111-.273-.197-.395-.076-.132-.152-.253-.172-.253-.182-.243-.101-.116-.096-.121-.213-.233-.111-.111-.233-.223-.233-.202-.243-.192-.121-.091-.121-.086-.253-.162-.132-.076-.127-.071-.132-.071-.132-.066-.273-.121-.137-.051-.137-.056-.142-.046-.137-.046-.147-.04-.142-.035-.147-.035-.147-.03-.147-.025-.304-.04-.304-.03-.157-.01-.157-.005h-.157zm0-.374h.167l.167.01.167.005.324.03.162.02.162.025.314.061.152.035.304.081.152.051.294.101.147.061.142.061.147.066.137.071.142.071.137.076.137.081.132.086.137.086.132.091.127.096.132.101.127.101.121.106.127.111.121.111.121.121.233.243.106.121.111.127.101.127.096.127.096.132.182.263.086.137.076.137.081.137.071.137.071.142.066.142.061.142.111.294.051.152.046.147.046.152.041.152.035.157.03.157.051.314.041.324.01.167.01.162.005.167.005.172-.01.334-.02.334-.041.324-.025.162-.025.157-.03.157-.035.157-.041.152-.091.304-.051.147-.111.294-.061.147-.066.142-.071.142-.071.137-.081.142-.076.132-.086.137-.182.263-.192.263-.101.127-.111.121-.106.127-.233.243-.243.233-.127.106-.121.106-.127.106-.132.096-.127.096-.132.091-.137.091-.132.081-.137.081-.137.076-.142.076-.137.066-.147.066-.142.066-.294.111-.147.051-.304.091-.304.071-.157.035-.157.025-.162.025-.162.02-.324.03-.167.01-.167.005h-.339l-.167-.005-.167-.01-.162-.015-.167-.015-.157-.02-.162-.025-.157-.025-.314-.071-.152-.035-.304-.091-.152-.051-.294-.111-.425-.197-.142-.076-.137-.076-.273-.162-.263-.182-.132-.096-.127-.096-.253-.213-.121-.106-.243-.233-.121-.121-.111-.121-.111-.127-.106-.121-.101-.127-.101-.132-.096-.132-.091-.132-.086-.132-.086-.137-.081-.132-.076-.142-.071-.137-.071-.142-.066-.142-.121-.294-.101-.294-.091-.304-.041-.152-.035-.157-.061-.314-.061-.486-.02-.334-.01-.334.005-.172.005-.167.01-.162.01-.167.041-.324.02-.157.061-.314.035-.157.041-.152.046-.152.046-.147.051-.152.051-.147.061-.147.061-.142.066-.142.071-.142.071-.137.076-.137.081-.137.086-.137.086-.132.091-.132.096-.132.202-.253.106-.127.223-.243.243-.243.243-.223.127-.106.253-.202.132-.096.132-.091.132-.086.137-.086.137-.081.137-.076.283-.142.142-.066.142-.061.147-.061.147-.051.304-.101.304-.081.157-.035.314-.061.162-.025.157-.02.167-.015.162-.015.167-.005.167-.01h.172z"/><path fill="none" stroke="var(--color2,#f2f2f2)" stroke-width="2.353" stroke-linecap="round" stroke-linejoin="round" d="M25.369 4.697h-.162l-.157.005-.157.01-.152.015-.157.015-.152.02-.147.02-.152.025-.147.03-.147.035-.142.035-.147.04-.142.046-.137.046-.142.056-.137.051-.137.061-.132.061-.137.066-.132.071-.127.071-.132.076-.253.162-.121.086-.127.091-.116.096-.121.096-.121.101-.116.101-.111.111-.116.111-.111.111-.213.233-.101.121-.096.116-.096.121-.086.121-.172.253-.081.127-.076.127-.142.263-.066.132-.061.132-.111.273-.051.137-.051.142-.081.283-.041.147-.03.142-.03.147-.03.152-.02.147-.02.152-.015.152-.015.157-.005.152-.005.157-.005.162.015.471.015.157.015.152.041.304.091.44.041.147.081.283.051.142.051.137.111.273.061.137.066.132.142.263.076.127.081.127.172.253.086.121.192.243.101.116.213.233.111.116.228.218.116.101.243.202.116.091.127.091.121.086.253.162.132.076.127.076.132.066.137.066.132.061.137.061.137.056.142.051.137.046.142.046.147.041.142.035.147.035.147.03.152.025.147.025.152.02.157.015.152.01.157.01.157.005h.319l.157-.005.157-.01.152-.01.152-.015.152-.02.152-.025.147-.025.147-.03.147-.035.142-.035.147-.041.137-.046.142-.046.137-.051.137-.056.273-.121.263-.132.127-.076.132-.076.253-.162.121-.086.243-.182.121-.101.233-.202.116-.106.116-.111.111-.116.213-.233.096-.116.101-.121.182-.243.172-.253.152-.253.076-.132.132-.263.066-.137.111-.273.051-.137.091-.283.041-.142.041-.147.061-.294.025-.147.025-.152.02-.152.015-.152.02-.314.01-.314-.005-.162-.005-.157-.01-.152-.01-.157-.015-.152-.02-.152-.025-.147-.025-.152-.03-.147-.03-.142-.041-.147-.041-.142-.091-.283-.051-.137-.111-.273-.197-.395-.076-.132-.152-.253-.172-.253-.182-.243-.101-.116-.096-.121-.213-.233-.111-.111-.233-.223-.233-.202-.243-.192-.121-.091-.121-.086-.253-.162-.132-.076-.127-.071-.132-.071-.132-.066-.273-.121-.137-.051-.137-.056-.142-.046-.137-.046-.147-.04-.142-.035-.147-.035-.147-.03-.147-.025-.304-.04-.304-.03-.157-.01-.157-.005h-.157"/><path fill="none" stroke="var(--color2,#f2f2f2)" stroke-width="2.353" stroke-linecap="round" stroke-linejoin="round" d="M25.369 4.323h.167l.167.01.167.005.324.03.162.02.162.025.314.061.152.035.304.081.152.051.294.101.147.061.142.061.147.066.137.071.142.071.137.076.137.081.132.086.137.086.132.091.127.096.132.101.127.101.121.106.127.111.121.111.121.121.233.243.106.121.111.127.101.127.096.127.096.132.182.263.086.137.076.137.081.137.071.137.071.142.066.142.061.142.111.294.051.152.046.147.046.152.041.152.035.157.03.157.051.314.041.324.01.167.01.162.005.167.005.172-.01.334-.02.334-.041.324-.025.162-.025.157-.03.157-.035.157-.041.152-.091.304-.051.147-.111.294-.061.147-.066.142-.071.142-.071.137-.081.142-.076.132-.086.137-.182.263-.192.263-.101.127-.111.121-.106.127-.233.243-.243.233-.127.106-.121.106-.127.106-.132.096-.127.096-.132.091-.137.091-.132.081-.137.081-.137.076-.142.076-.137.066-.147.066-.142.066-.294.111-.147.051-.304.091-.304.071-.157.035-.157.025-.162.025-.162.02-.324.03-.167.01-.167.005h-.339l-.167-.005-.167-.01-.162-.015-.167-.015-.157-.02-.162-.025-.157-.025-.314-.071-.152-.035-.304-.091-.152-.051-.294-.111-.425-.197-.142-.076-.137-.076-.273-.162-.263-.182-.132-.096-.127-.096-.253-.213-.121-.106-.243-.233-.121-.121-.111-.121-.111-.127-.106-.121-.101-.127-.101-.132-.096-.132-.091-.132-.086-.132-.086-.137-.081-.132-.076-.142-.071-.137-.071-.142-.066-.142-.121-.294-.101-.294-.091-.304-.041-.152-.035-.157-.061-.314-.061-.486-.02-.334-.01-.334.005-.172.005-.167.01-.162.01-.167.041-.324.02-.157.061-.314.035-.157.041-.152.046-.152.046-.147.051-.152.051-.147.061-.147.061-.142.066-.142.071-.142.071-.137.076-.137.081-.137.086-.137.086-.132.091-.132.096-.132.202-.253.106-.127.223-.243.243-.243.243-.223.127-.106.253-.202.132-.096.132-.091.132-.086.137-.086.137-.081.137-.076.283-.142.142-.066.142-.061.147-.061.147-.051.304-.101.304-.081.157-.035.314-.061.162-.025.157-.02.167-.015.162-.015.167-.005.167-.01h.172"/><path fill="var(--color2,#f2f2f2)" d="M45.247 4.697h7.861v.375h-3.746v11.981h-.375V5.072h-3.741v-.375zm-11.09 0h.481l8.595 11.844V4.697h.375v12.355h-.481L34.532 5.208v11.844h-.375V4.697z"/><path fill="none" stroke="var(--color2,#f2f2f2)" stroke-width="2.353" stroke-linecap="round" stroke-linejoin="round" d="M45.247 4.697h7.861v.375h-3.746v11.981h-.375V5.072h-3.741v-.375zm-11.09 0h.481l8.595 11.844V4.697h.375v12.355h-.481L34.532 5.208v11.844h-.375V4.697z"/><path fill="none" stroke="var(--color2,#f2f2f2)" stroke-width="3.711" stroke-linecap="round" stroke-linejoin="round" d="M19.705.511h82.197"/><path fill="var(--color2,#f2f2f2)" d="M44.26 27.201l-1.088 2.576h2.131l-1.043-2.576zm12.477-.364h-.076l-.071.005-.142.02-.066.015-.071.02-.066.02-.066.03-.061.025-.061.035-.066.035-.056.041-.061.041-.056.051-.056.046-.051.056-.056.056-.046.056-.091.121-.071.121-.035.066-.051.132-.041.142-.015.071-.01.071-.01.076-.005.076v.177l.01.101.005.046.01.051.02.091.015.051.046.137.041.091.02.041.025.046.051.086.056.081.061.071.066.071.066.066.071.061.076.056.086.051.081.041.046.02.041.02.182.061.091.02.046.005.046.01.051.005h.051l.046.005h.101l.046-.005h.051l.051-.005.046-.01.046-.005.091-.02.182-.061.081-.041.046-.02.041-.02.081-.051.076-.056.076-.061.066-.066.066-.071.061-.071.056-.081.051-.086.02-.046.025-.041.041-.091.046-.137.015-.051.02-.091.005-.051.01-.046.005-.051v-.051l.005-.051v-.127l-.005-.076-.01-.076-.01-.071-.015-.071-.041-.142-.025-.066-.061-.132-.035-.061-.081-.121-.046-.061-.101-.111-.056-.056-.056-.046-.056-.051-.056-.041-.061-.041-.121-.071-.066-.025-.066-.03-.132-.041-.066-.015-.142-.02-.071-.005h-.076zm4.748-.005h-.076l-.076.005-.076.01-.071.01-.071.015-.071.02-.066.02-.066.025-.066.03-.061.03-.061.035-.121.081-.056.046-.056.051-.106.106-.046.056-.046.061-.041.056-.041.066-.035.061-.03.066-.051.132-.025.071-.015.071-.03.152-.01.152v.187l.015.152.01.051.01.046.01.051.01.046.03.091.02.046.015.046.02.046.02.041.025.046.051.081.056.076.03.041.061.071.066.066.035.03.041.03.035.03.041.03.041.025.041.03.046.025.046.02.046.025.041.02.046.02.091.03.051.015.046.015.091.02.051.01.046.005.051.005.046.005h.051l.051.005.046-.005h.046l.051-.005.091-.01.137-.03.137-.046.046-.02.041-.015.046-.025.041-.02.046-.025.081-.051.041-.03.035-.03.041-.03.035-.03.071-.066.066-.071.061-.081.056-.081.056-.086.02-.046.025-.046.041-.091.015-.046.02-.046.015-.046.01-.051.015-.046.01-.046.005-.051.01-.046.005-.051v-.046l.005-.051v-.096l-.005-.051v-.046l-.005-.051-.01-.046-.005-.051-.01-.046-.015-.051-.01-.046-.015-.046-.02-.046-.015-.046-.041-.091-.025-.046-.02-.046-.056-.086-.056-.081-.061-.076-.066-.071-.066-.066-.076-.066-.076-.056-.081-.051-.046-.025-.041-.02-.091-.041-.041-.015-.137-.046-.046-.01-.051-.01-.046-.01-.046-.005-.051-.005-.046-.005h-.101zm13.742-.005h-.066l-.071.005-.061.005-.132.02-.061.015-.061.02-.056.02-.061.025-.056.025-.111.061-.056.035-.051.035-.051.041-.051.046-.035.03-.035.035-.03.035-.03.041-.035.041-.03.041-.025.046-.03.051-.025.046-.025.051-.025.056-.02.056-.025.056-.04.121-.015.061h2.769l-.051-.182-.035-.081-.03-.081-.035-.071-.04-.071-.04-.066-.046-.056-.046-.061-.051-.051-.056-.051-.121-.091-.066-.046-.071-.035-.152-.071-.076-.03-.076-.02-.081-.02-.081-.015-.076-.015-.086-.005h-.081zm-26.579 0h-.066l-.071.005-.061.005-.132.02-.061.015-.061.02-.056.02-.061.025-.056.025-.111.061-.056.035-.051.035-.051.041-.051.046-.035.03-.035.035-.03.035-.03.041-.035.041-.03.041-.025.046-.03.051-.025.046-.025.051-.025.056-.02.056-.025.056-.041.121-.015.061h2.769l-.051-.182-.035-.081-.03-.081-.035-.071-.041-.071-.041-.066-.046-.056-.046-.061-.051-.051-.056-.051-.121-.091-.066-.046-.071-.035-.152-.071-.076-.03-.076-.02-.081-.02-.081-.015-.076-.015-.086-.005h-.081zm29.399-.365h.476v1.478h2.166v-1.478h.476v3.72h-.476V28.39h-2.166v1.792h-.476v-3.72zm-7.648 0h2.45v.415h-.987v3.305h-.476v-3.305h-.987v-.415zm-18.931 0h.476v1.569l1.726-1.569h.663l-1.883 1.706 2.035 2.015h-.678l-1.711-1.721-.152.137v1.584h-.476v-3.72zm-7.325 0h.248l1.427 3.315h.45v.881h-.461v-.476h-3.078v.496h-.471v-.901h.45l1.432-3.315zm31.079-.096h.061l.056.005h.061l.111.01.056.01.051.01.111.02.152.046.051.02.051.015.046.02.051.025.046.02.091.051.046.03.046.025.04.03.046.035.04.03.121.106.04.041.035.041.04.041.071.091.051.061.046.071.04.066.04.071.035.076.035.071.03.076.051.162.02.081.046.258.005.091.01.091v.096h-3.346l.005.081.005.076.02.152.015.076.02.071.02.066.051.132.03.066.071.121.04.061.04.056.046.056.101.101.051.046.056.046.056.041.111.071.061.03.121.051.132.041.066.01.071.015.213.015.213-.015.071-.01.066-.015.071-.015.066-.02.071-.025.061-.025.066-.025.061-.03.056-.035.061-.03.051-.035.051-.041.051-.035.02-.025.025-.02.051-.051.02-.03.025-.025.025-.03.025-.035.025-.03.025-.035.03-.041.025-.035.025-.041.025-.046.03-.041.025-.046.405.213-.051.096-.056.091-.051.086-.061.081-.056.076-.061.071-.061.066-.066.061-.132.111-.142.101-.152.081-.081.035-.076.035-.086.03-.086.025-.086.02-.091.02-.091.01-.096.01-.101.01h-.213l-.111-.01-.106-.01-.101-.015-.101-.025-.096-.025-.091-.03-.091-.035-.086-.035-.086-.046-.081-.051-.076-.051-.076-.061-.071-.061-.071-.071-.066-.071-.121-.152-.051-.076-.051-.081-.091-.162-.035-.081-.035-.086-.03-.081-.025-.086-.025-.091-.015-.086-.015-.091-.01-.091-.005-.091v-.182l.005-.086.01-.086.01-.081.015-.086.04-.162.025-.076.03-.081.03-.076.035-.076.04-.076.04-.071.046-.076.051-.071.056-.066.03-.046.035-.041.04-.041.071-.081.081-.071.035-.035.046-.03.081-.061.04-.025.046-.03.091-.051.137-.061.051-.02.046-.015.152-.046.051-.01.056-.01.051-.01.056-.01.051-.005.056-.005h.056l.061-.005h.056zm-7.025 0h.091l.091.005.086.01.182.03.172.041.086.03.086.025.081.035.076.03.076.035.071.041.066.035.066.046.121.091.111.101.051.056.051.061.046.061.046.066.046.071-.38.238-.035-.041-.061-.081-.035-.035-.03-.035-.035-.03-.035-.035-.035-.03-.04-.03-.035-.03-.035-.025-.121-.076-.081-.041-.046-.02-.04-.02-.046-.015-.04-.015-.091-.03-.051-.01-.091-.02-.051-.01-.202-.02h-.187l-.081.005-.162.02-.076.015-.076.02-.071.02-.071.025-.142.061-.066.035-.061.041-.066.041-.061.046-.056.051-.111.111-.101.111-.081.121-.035.066-.035.061-.03.066-.025.071-.025.066-.046.213-.01.076-.005.076v.132l.005.046v.051l.01.051.005.051.01.046.01.051.01.046.015.051.03.091.02.051.04.091.051.091.025.041.025.046.091.121.035.035.03.041.035.035.035.03.035.035.081.061.081.056.091.056.091.046.091.041.051.015.046.015.101.03.101.02.056.01.051.005.056.005.051.005h.056l.056.005.051-.005h.051l.051-.005h.051l.046-.01.051-.005.182-.041.137-.046.04-.015.046-.02.121-.061.162-.101.071-.061.04-.03.035-.035.035-.03.071-.071.03-.041.035-.041.035-.035.38.248-.035.051-.035.046-.035.051-.04.046-.04.041-.04.046-.04.041-.046.041-.091.071-.101.071-.051.03-.051.035-.056.025-.056.03-.056.025-.061.025-.056.025-.182.061-.061.015-.066.015-.066.01-.061.015-.071.01-.132.01-.142.01h-.182l-.106-.01-.101-.01-.106-.015-.096-.02-.192-.051-.182-.071-.091-.041-.086-.046-.081-.051-.081-.056-.076-.061-.152-.132-.071-.071-.066-.071-.061-.076-.056-.076-.056-.081-.091-.162-.071-.172-.03-.086-.025-.091-.02-.091-.015-.096-.02-.192v-.167l.015-.197.01-.066.015-.061.01-.066.015-.061.02-.066.04-.121.051-.121.03-.056.03-.061.035-.056.03-.061.04-.056.035-.051.04-.056.04-.051.046-.046.04-.051.046-.046.051-.046.046-.041.051-.041.056-.041.051-.041.111-.071.061-.03.061-.035.061-.025.061-.03.066-.025.061-.02.066-.025.066-.02.197-.046.142-.02.213-.015h.076zm-6.672 0h.096l.192.02.091.015.091.02.091.025.172.061.086.041.081.041.081.051.076.051.076.056.076.061.071.061.076.071.066.071.066.076.111.152.101.162.041.081.071.172.051.182.02.091.015.096.01.091.01.101v.202l-.01.096-.01.101-.015.091-.02.096-.051.182-.071.172-.041.086-.046.081-.051.081-.056.076-.121.152-.066.076-.071.066-.076.066-.071.061-.076.056-.162.101-.162.081-.172.061-.091.025-.086.02-.096.015-.091.01-.096.01h-.152l-.056-.005h-.056l-.051-.005-.056-.01-.051-.005-.051-.01-.056-.01-.051-.015-.051-.01-.046-.015-.051-.02-.051-.015-.046-.02-.051-.02-.046-.02-.091-.051-.046-.03-.046-.025-.041-.03-.046-.03-.041-.03-.046-.035-.081-.071-.121-.121-.035-.041-.041-.046-.035-.041v1.999h-.481v-5.082h.481v.683l.035-.046.035-.051.035-.041.035-.046.081-.081.035-.041.041-.035.046-.035.041-.035.041-.03.046-.035.041-.03.182-.101.051-.02.046-.025.051-.015.046-.02.101-.03.051-.01.056-.015.051-.01.051-.005.056-.01.056-.005h.056l.056-.005h.056zm-4.788 0l.213.01.101.01.096.02.101.02.091.025.096.035.086.035.091.041.086.046.081.051.081.056.081.061.076.066.147.147.061.071.111.152.051.076.046.076.046.081.035.081.035.086.03.081.025.086.041.182.02.182.01.096v.192l-.01.091-.01.096-.03.182-.025.091-.025.086-.035.086-.035.081-.041.086-.041.081-.051.081-.111.152-.061.076-.066.076-.071.071-.071.066-.071.061-.076.056-.162.101-.172.081-.086.035-.091.03-.096.025-.091.02-.101.015-.202.02h-.213l-.202-.02-.101-.015-.091-.02-.096-.025-.091-.03-.086-.035-.172-.081-.162-.101-.076-.056-.071-.061-.071-.066-.071-.071-.066-.076-.061-.076-.111-.152-.051-.081-.041-.081-.041-.086-.041-.081-.03-.086-.025-.086-.025-.091-.02-.091-.015-.091-.01-.096-.005-.091v-.192l.005-.096.01-.091.03-.182.051-.172.03-.086.071-.162.046-.081.046-.076.051-.081.051-.071.061-.076.061-.071.071-.076.076-.071.076-.066.081-.061.081-.056.081-.051.086-.051.086-.041.091-.035.096-.03.091-.03.101-.02.096-.02.101-.01.213-.01zm-8.094 0h.061l.056.005h.061l.111.01.056.01.051.01.111.02.152.046.051.02.051.015.046.02.051.025.046.02.091.051.046.03.046.025.041.03.046.035.041.03.121.106.041.041.035.041.041.041.071.091.051.061.046.071.041.066.041.071.035.076.035.071.03.076.051.162.02.081.046.258.005.091.01.091v.096h-3.346l.005.081.005.076.02.152.015.076.02.071.02.066.051.132.03.066.071.121.041.061.041.056.046.056.101.101.051.046.056.046.056.041.111.071.061.03.121.051.132.041.066.01.071.015.213.015.213-.015.071-.01.066-.015.071-.015.066-.02.071-.025.061-.025.066-.025.061-.03.056-.035.061-.03.051-.035.051-.041.051-.035.02-.025.025-.02.051-.051.02-.03.025-.025.025-.03.025-.035.025-.03.025-.035.03-.041.025-.035.025-.041.025-.046.03-.041.025-.046.405.213-.051.096-.056.091-.051.086-.061.081-.056.076-.061.071-.061.066-.066.061-.132.111-.142.101-.152.081-.081.035-.076.035-.086.03-.086.025-.086.02-.091.02-.091.01-.096.01-.101.01h-.213l-.111-.01-.106-.01-.101-.015-.101-.025-.096-.025-.091-.03-.091-.035-.086-.035-.086-.046-.081-.051-.076-.051-.076-.061-.071-.061-.071-.071-.066-.071-.121-.152-.051-.076-.051-.081-.091-.162-.035-.081-.035-.086-.03-.081-.025-.086-.025-.091-.015-.086-.015-.091-.01-.091-.005-.091v-.182l.005-.086.01-.086.01-.081.015-.086.041-.162.025-.076.03-.081.03-.076.035-.076.041-.076.041-.071.046-.076.051-.071.056-.066.03-.046.035-.041.041-.041.071-.081.081-.071.035-.035.046-.03.081-.061.041-.025.046-.03.091-.051.137-.061.051-.02.046-.015.152-.046.051-.01.056-.01.051-.01.056-.01.051-.005.056-.005h.056l.061-.005h.056z"/><path fill="none" stroke="var(--color2,#f2f2f2)" stroke-width="3.711" stroke-linecap="round" stroke-linejoin="round" d="M.506 17.093L6.858 4.712l2.445 4.885m-1.624 3.098l4.399-7.982 6.023 12.214m34.237.004L58.696 4.55l2.44 4.885m-1.625 3.098l4.399-7.982 6.029 12.214"/><path fill="var(--color2,#f2f2f2)" d="M77.981 5.229l-4.464 9.567h8.924l-4.459-9.567zm26.437-.016v8.235h4.221l.106-.005.101-.005.106-.01.202-.02.101-.015.101-.02.192-.04.192-.051.096-.03.091-.03.096-.035.091-.035.091-.04.086-.04.091-.046.172-.091.086-.051.172-.111.081-.056.162-.121.081-.066.076-.066.081-.071.076-.071.152-.152.071-.076.066-.081.071-.076.061-.081.066-.081.056-.081.061-.081.056-.086.152-.258.046-.086.04-.091.046-.086.106-.273.035-.096.025-.096.03-.091.025-.096.02-.101.02-.096.02-.101.015-.096.02-.202.01-.106.005-.101.005-.106v-.213l-.005-.106-.005-.101-.01-.106-.02-.202-.015-.101-.02-.101-.04-.192-.025-.096-.03-.096-.025-.096-.035-.091-.035-.096-.071-.182-.046-.086-.04-.091-.046-.086-.152-.258-.056-.086-.061-.081-.056-.081-.066-.081-.061-.081-.071-.076-.066-.081-.071-.076-.152-.152-.076-.071-.081-.066-.076-.071-.081-.061-.081-.066-.081-.056-.081-.061-.086-.056-.258-.152-.086-.046-.091-.04-.086-.046-.182-.071-.096-.035-.091-.035-.096-.025-.096-.03-.096-.025-.192-.04-.101-.02-.101-.015-.202-.02-.106-.01-.101-.005-.106-.005h-4.221zm-18.384 0v8.235h4.221l.106-.005.101-.005.106-.01.202-.02.101-.015.101-.02.192-.04.192-.051.096-.03.091-.03.096-.035.091-.035.091-.04.086-.04.091-.046.172-.091.086-.051.172-.111.081-.056.162-.121.081-.066.076-.066.081-.071.076-.071.152-.152.071-.076.066-.081.071-.076.061-.081.066-.081.056-.081.061-.081.056-.086.152-.258.046-.086.04-.091.046-.086.106-.273.035-.096.025-.096.03-.091.025-.096.02-.101.02-.096.02-.101.015-.096.02-.202.01-.106.005-.101.005-.106v-.213l-.005-.106-.005-.101-.01-.106-.02-.202-.015-.101-.02-.101-.04-.192-.025-.096-.03-.096-.025-.096-.035-.091L94 7.848l-.071-.182-.046-.086-.04-.091-.046-.086-.152-.258-.056-.086-.061-.081-.056-.081-.066-.081-.061-.081-.071-.076-.066-.081-.071-.076-.152-.152-.076-.071-.081-.066-.076-.071-.081-.061-.081-.066-.081-.056-.081-.061-.086-.056-.258-.152-.086-.046-.091-.04-.086-.046-.182-.071-.096-.035-.091-.035-.096-.025-.096-.03-.096-.025-.192-.04-.101-.02-.101-.015-.202-.02-.106-.01-.101-.005-.106-.005h-4.221zm29.611-.374h7.112v.375h-6.737v5.613h5.239v.375h-5.239v5.618h6.737v.375h-7.112V4.84zm-11.601 0h4.606l.228.01.223.02.111.015.111.02.106.015.319.076.101.03.106.03.202.071.101.04.289.137.192.101.091.056.096.061.091.061.086.061.091.066.258.213.086.076.086.081.162.162.081.086.076.086.213.258.066.091.182.273.056.091.101.192.091.192.046.101.04.096.071.202.03.106.03.101.03.106.02.106.025.106.02.106.03.223.02.223.005.116.005.111v.233l-.005.111-.005.116-.02.223-.015.111-.015.106-.02.106-.025.111-.02.106-.03.101-.03.106-.03.101-.071.202-.04.101-.046.096-.046.101-.046.096-.051.096-.051.091-.056.096-.182.273-.066.086-.071.091-.142.172-.076.086-.081.086-.157.157-.081.076-.076.071-.243.197-.081.061-.172.121-.086.056-.258.152-.182.091-.091.04 2.156 3.746h-.451l-2.065-3.594-.172.051-.091.025-.086.02-.182.04-.086.015-.091.015-.096.01-.091.015-.091.01-.385.02h-4.211v3.371h-.375V4.828zm-9.359 0h7.861v.375H98.8v11.981h-.37V5.214h-3.746v-.375zm-9.025 0h4.606l.228.01.223.02.111.015.111.02.106.015.319.076.101.03.106.03.202.071.101.04.289.137.192.101.091.056.096.061.091.061.086.061.091.066.258.213.086.076.086.081.162.162.081.086.076.086.213.258.066.091.182.273.056.091.101.192.091.192.046.101.04.096.071.202.03.106.03.101.03.106.02.106.025.106.02.106.03.223.02.223.005.116.005.111v.233l-.005.111-.005.116-.02.223-.015.111-.015.106-.02.106-.025.111-.02.106-.03.101-.03.106-.03.101-.071.202-.04.101-.046.096-.046.101-.046.096-.051.096-.051.091-.056.096-.182.273-.066.086-.071.091-.142.172-.076.086-.081.086-.157.157-.081.076-.076.071-.243.197-.081.061-.172.121-.086.056-.258.152-.182.091-.091.04 2.156 3.746h-.451l-2.065-3.594-.172.051-.091.025-.086.02-.182.04-.086.015-.091.015-.096.01-.091.015-.091.01-.385.02h-4.211v3.371h-.375V4.828zm-7.922 0h.481l5.765 12.355h-.42l-.941-2.025H73.34l-.947 2.025h-.415l5.76-12.355z"/><path fill="none" stroke="var(--color2,#f2f2f2)" stroke-width="2.353" stroke-linecap="round" stroke-linejoin="round" d="M77.981 5.229l-4.464 9.567h8.924l-4.459-9.567m26.436-.016v8.235h4.221l.106-.005.101-.005.106-.01.202-.02.101-.015.101-.02.192-.04.192-.051.096-.03.091-.03.096-.035.091-.035.091-.04.086-.04.091-.046.172-.091.086-.051.172-.111.081-.056.162-.121.081-.066.076-.066.081-.071.076-.071.152-.152.071-.076.066-.081.071-.076.061-.081.066-.081.056-.081.061-.081.056-.086.152-.258.046-.086.04-.091.046-.086.106-.273.035-.096.025-.096.03-.091.025-.096.02-.101.02-.096.02-.101.015-.096.02-.202.01-.106.005-.101.005-.106v-.213l-.005-.106-.005-.101-.01-.106-.02-.202-.015-.101-.02-.101-.04-.192-.025-.096-.03-.096-.025-.096-.035-.091-.035-.096-.071-.182-.046-.086-.04-.091-.046-.086-.152-.258-.056-.086-.061-.081-.056-.081-.066-.081-.061-.081-.071-.076-.066-.081-.071-.076-.152-.152-.076-.071-.081-.066-.076-.071-.081-.061-.081-.066-.081-.056-.081-.061-.086-.056-.258-.152-.086-.046-.091-.04-.086-.046-.182-.071-.096-.035-.091-.035-.096-.025-.096-.03-.096-.025-.192-.04-.101-.02-.101-.015-.202-.02-.106-.01-.101-.005-.106-.005h-4.221m-18.384-.009v8.235h4.221l.106-.005.101-.005.106-.01.202-.02.101-.015.101-.02.192-.04.192-.051.096-.03.091-.03.096-.035.091-.035.091-.04.086-.04.091-.046.172-.091.086-.051.172-.111.081-.056.162-.121.081-.066.076-.066.081-.071.076-.071.152-.152.071-.076.066-.081.071-.076.061-.081.066-.081.056-.081.061-.081.056-.086.152-.258.046-.086.04-.091.046-.086.106-.273.035-.096.025-.096.03-.091.025-.096.02-.101.02-.096.02-.101.015-.096.02-.202.01-.106.005-.101.005-.106v-.213l-.005-.106-.005-.101-.01-.106-.02-.202-.015-.101-.02-.101-.04-.192-.025-.096-.03-.096-.025-.096-.035-.091L94 7.848l-.071-.182-.046-.086-.04-.091-.046-.086-.152-.258-.056-.086-.061-.081-.056-.081-.066-.081-.061-.081-.071-.076-.066-.081-.071-.076-.152-.152-.076-.071-.081-.066-.076-.071-.081-.061-.081-.066-.081-.056-.081-.061-.086-.056-.258-.152-.086-.046-.091-.04-.086-.046-.182-.071-.096-.035-.091-.035-.096-.025-.096-.03-.096-.025-.192-.04-.101-.02-.101-.015-.202-.02-.106-.01-.101-.005-.106-.005h-4.221m29.611-.383h7.112v.375h-6.737v5.613h5.239v.375h-5.239v5.618h6.737v.375h-7.112V4.84"/><path fill="none" stroke="var(--color2,#f2f2f2)" stroke-width="2.353" stroke-linecap="round" stroke-linejoin="round" d="M104.044 4.839h4.606l.228.01.223.02.111.015.111.02.106.015.319.076.101.03.106.03.202.071.101.04.289.137.192.101.091.056.096.061.091.061.086.061.091.066.258.213.086.076.086.081.162.162.081.086.076.086.213.258.066.091.182.273.056.091.101.192.091.192.046.101.04.096.071.202.03.106.03.101.03.106.02.106.025.106.02.106.03.223.02.223.005.116.005.111v.233l-.005.111-.005.116-.02.223-.015.111-.015.106-.02.106-.025.111-.02.106-.03.101-.03.106-.03.101-.071.202-.04.101-.046.096-.046.101-.046.096-.051.096-.051.091-.056.096-.182.273-.066.086-.071.091-.142.172-.076.086-.081.086-.157.157-.081.076-.076.071-.243.197-.081.061-.172.121-.086.056-.258.152-.182.091-.091.04 2.156 3.746h-.451l-2.065-3.594-.172.051-.091.025-.086.02-.182.04-.086.015-.091.015-.096.01-.091.015-.091.01-.385.02h-4.211v3.371h-.375V4.828m-9.355.011h7.861v.375H98.8v11.981h-.37V5.214h-3.746v-.375m-9.024 0h4.606l.228.01.223.02.111.015.111.02.106.015.319.076.101.03.106.03.202.071.101.04.289.137.192.101.091.056.096.061.091.061.086.061.091.066.258.213.086.076.086.081.162.162.081.086.076.086.213.258.066.091.182.273.056.091.101.192.091.192.046.101.04.096.071.202.03.106.03.101.03.106.02.106.025.106.02.106.03.223.02.223.005.116.005.111v.233l-.005.111-.005.116-.02.223-.015.111-.015.106-.02.106-.025.111-.02.106-.03.101-.03.106-.03.101-.071.202-.04.101-.046.096-.046.101-.046.096-.051.096-.051.091-.056.096-.182.273-.066.086-.071.091-.142.172-.076.086-.081.086-.157.157-.081.076-.076.071-.243.197-.081.061-.172.121-.086.056-.258.152-.182.091-.091.04 2.156 3.746h-.451l-2.065-3.594-.172.051-.091.025-.086.02-.182.04-.086.015-.091.015-.096.01-.091.015-.091.01-.385.02h-4.211v3.371h-.375V4.828m-7.918.011h.481l5.765 12.355h-.42l-.941-2.025H73.34l-.947 2.025h-.415l5.76-12.355"/><path fill="none" stroke="var(--color2,#f2f2f2)" stroke-width="3.711" stroke-linecap="round" stroke-linejoin="round" d="M20.09 21.082h82.197"/></symbol></defs></svg>