<svg aria-hidden="true" style="position: absolute; width: 0; height: 0; overflow: hidden;" version="1.1" xmlns="http://www.w3.org/2000/svg" xmlns:xlink="http://www.w3.org/1999/xlink">
<defs>
<symbol id="logob" viewBox="0 0 124 32">
<path d="M25.369 4.697h-0.162l-0.157 0.005-0.157 0.010-0.152 0.015-0.157 0.015-0.152 0.020-0.147 0.020-0.152 0.025-0.147 0.030-0.147 0.035-0.142 0.035-0.147 0.040-0.142 0.046-0.137 0.046-0.142 0.056-0.137 0.051-0.137 0.061-0.132 0.061-0.137 0.066-0.132 0.071-0.127 0.071-0.132 0.076-0.253 0.162-0.121 0.086-0.127 0.091-0.116 0.096-0.121 0.096-0.121 0.101-0.116 0.101-0.111 0.111-0.116 0.111-0.111 0.111-0.213 0.233-0.101 0.121-0.096 0.116-0.096 0.121-0.086 0.121-0.172 0.253-0.081 0.127-0.076 0.127-0.142 0.263-0.066 0.132-0.061 0.132-0.111 0.273-0.051 0.137-0.051 0.142-0.081 0.283-0.041 0.147-0.030 0.142-0.030 0.147-0.030 0.152-0.020 0.147-0.020 0.152-0.015 0.152-0.015 0.157-0.005 0.152-0.005 0.157-0.005 0.162 0.015 0.471 0.015 0.157 0.015 0.152 0.041 0.304 0.091 0.44 0.041 0.147 0.081 0.283 0.051 0.142 0.051 0.137 0.111 0.273 0.061 0.137 0.066 0.132 0.142 0.263 0.076 0.127 0.081 0.127 0.172 0.253 0.086 0.121 0.192 0.243 0.101 0.116 0.213 0.233 0.111 0.116 0.228 0.218 0.116 0.101 0.243 0.202 0.116 0.091 0.127 0.091 0.121 0.086 0.253 0.162 0.132 0.076 0.127 0.076 0.132 0.066 0.137 0.066 0.132 0.061 0.137 0.061 0.137 0.056 0.142 0.051 0.137 0.046 0.142 0.046 0.147 0.041 0.142 0.035 0.147 0.035 0.147 0.030 0.152 0.025 0.147 0.025 0.152 0.020 0.157 0.015 0.152 0.010 0.157 0.010 0.157 0.005h0.319l0.157-0.005 0.157-0.010 0.152-0.010 0.152-0.015 0.152-0.020 0.152-0.025 0.147-0.025 0.147-0.030 0.147-0.035 0.142-0.035 0.147-0.041 0.137-0.046 0.142-0.046 0.137-0.051 0.137-0.056 0.273-0.121 0.263-0.132 0.127-0.076 0.132-0.076 0.253-0.162 0.121-0.086 0.243-0.182 0.121-0.101 0.233-0.202 0.116-0.106 0.116-0.111 0.111-0.116 0.213-0.233 0.096-0.116 0.101-0.121 0.182-0.243 0.172-0.253 0.152-0.253 0.076-0.132 0.132-0.263 0.066-0.137 0.111-0.273 0.051-0.137 0.091-0.283 0.041-0.142 0.041-0.147 0.061-0.294 0.025-0.147 0.025-0.152 0.020-0.152 0.015-0.152 0.020-0.314 0.010-0.314-0.005-0.162-0.005-0.157-0.010-0.152-0.010-0.157-0.015-0.152-0.020-0.152-0.025-0.147-0.025-0.152-0.030-0.147-0.030-0.142-0.041-0.147-0.041-0.142-0.091-0.283-0.051-0.137-0.111-0.273-0.197-0.395-0.076-0.132-0.152-0.253-0.172-0.253-0.182-0.243-0.101-0.116-0.096-0.121-0.213-0.233-0.111-0.111-0.233-0.223-0.233-0.202-0.243-0.192-0.121-0.091-0.121-0.086-0.253-0.162-0.132-0.076-0.127-0.071-0.132-0.071-0.132-0.066-0.273-0.121-0.137-0.051-0.137-0.056-0.142-0.046-0.137-0.046-0.147-0.040-0.142-0.035-0.147-0.035-0.147-0.030-0.147-0.025-0.304-0.040-0.304-0.030-0.157-0.010-0.157-0.005h-0.157zM25.369 4.323h0.167l0.167 0.010 0.167 0.005 0.324 0.030 0.162 0.020 0.162 0.025 0.314 0.061 0.152 0.035 0.304 0.081 0.152 0.051 0.294 0.101 0.147 0.061 0.142 0.061 0.147 0.066 0.137 0.071 0.142 0.071 0.137 0.076 0.137 0.081 0.132 0.086 0.137 0.086 0.132 0.091 0.127 0.096 0.132 0.101 0.127 0.101 0.121 0.106 0.127 0.111 0.121 0.111 0.121 0.121 0.233 0.243 0.106 0.121 0.111 0.127 0.101 0.127 0.096 0.127 0.096 0.132 0.182 0.263 0.086 0.137 0.076 0.137 0.081 0.137 0.071 0.137 0.071 0.142 0.066 0.142 0.061 0.142 0.111 0.294 0.051 0.152 0.046 0.147 0.046 0.152 0.041 0.152 0.035 0.157 0.030 0.157 0.051 0.314 0.041 0.324 0.010 0.167 0.010 0.162 0.005 0.167 0.005 0.172-0.010 0.334-0.020 0.334-0.041 0.324-0.025 0.162-0.025 0.157-0.030 0.157-0.035 0.157-0.041 0.152-0.091 0.304-0.051 0.147-0.111 0.294-0.061 0.147-0.066 0.142-0.071 0.142-0.071 0.137-0.081 0.142-0.076 0.132-0.086 0.137-0.182 0.263-0.192 0.263-0.101 0.127-0.111 0.121-0.106 0.127-0.233 0.243-0.243 0.233-0.127 0.106-0.121 0.106-0.127 0.106-0.132 0.096-0.127 0.096-0.132 0.091-0.137 0.091-0.132 0.081-0.137 0.081-0.137 0.076-0.142 0.076-0.137 0.066-0.147 0.066-0.142 0.066-0.294 0.111-0.147 0.051-0.304 0.091-0.304 0.071-0.157 0.035-0.157 0.025-0.162 0.025-0.162 0.020-0.324 0.030-0.167 0.010-0.167 0.005h-0.339l-0.167-0.005-0.167-0.010-0.162-0.015-0.167-0.015-0.157-0.020-0.162-0.025-0.157-0.025-0.314-0.071-0.152-0.035-0.304-0.091-0.152-0.051-0.294-0.111-0.425-0.197-0.142-0.076-0.137-0.076-0.273-0.162-0.263-0.182-0.132-0.096-0.127-0.096-0.253-0.213-0.121-0.106-0.243-0.233-0.121-0.121-0.111-0.121-0.111-0.127-0.106-0.121-0.101-0.127-0.101-0.132-0.096-0.132-0.091-0.132-0.086-0.132-0.086-0.137-0.081-0.132-0.076-0.142-0.071-0.137-0.071-0.142-0.066-0.142-0.121-0.294-0.101-0.294-0.091-0.304-0.041-0.152-0.035-0.157-0.061-0.314-0.061-0.486-0.020-0.334-0.010-0.334 0.005-0.172 0.005-0.167 0.010-0.162 0.010-0.167 0.041-0.324 0.020-0.157 0.061-0.314 0.035-0.157 0.041-0.152 0.046-0.152 0.046-0.147 0.051-0.152 0.051-0.147 0.061-0.147 0.061-0.142 0.066-0.142 0.071-0.142 0.071-0.137 0.076-0.137 0.081-0.137 0.086-0.137 0.086-0.132 0.091-0.132 0.096-0.132 0.202-0.253 0.106-0.127 0.223-0.243 0.243-0.243 0.243-0.223 0.127-0.106 0.253-0.202 0.132-0.096 0.132-0.091 0.132-0.086 0.137-0.086 0.137-0.081 0.137-0.076 0.283-0.142 0.142-0.066 0.142-0.061 0.147-0.061 0.147-0.051 0.304-0.101 0.304-0.081 0.157-0.035 0.314-0.061 0.162-0.025 0.157-0.020 0.167-0.015 0.162-0.015 0.167-0.005 0.167-0.010h0.172z"></path>
<path fill="#fff" stroke="#000" stroke-width="2.3531" d="M25.369 4.697h-0.162l-0.157 0.005-0.157 0.010-0.152 0.015-0.157 0.015-0.152 0.020-0.147 0.020-0.152 0.025-0.147 0.030-0.147 0.035-0.142 0.035-0.147 0.040-0.142 0.046-0.137 0.046-0.142 0.056-0.137 0.051-0.137 0.061-0.132 0.061-0.137 0.066-0.132 0.071-0.127 0.071-0.132 0.076-0.253 0.162-0.121 0.086-0.127 0.091-0.116 0.096-0.121 0.096-0.121 0.101-0.116 0.101-0.111 0.111-0.116 0.111-0.111 0.111-0.213 0.233-0.101 0.121-0.096 0.116-0.096 0.121-0.086 0.121-0.172 0.253-0.081 0.127-0.076 0.127-0.142 0.263-0.066 0.132-0.061 0.132-0.111 0.273-0.051 0.137-0.051 0.142-0.081 0.283-0.041 0.147-0.030 0.142-0.030 0.147-0.030 0.152-0.020 0.147-0.020 0.152-0.015 0.152-0.015 0.157-0.005 0.152-0.005 0.157-0.005 0.162 0.015 0.471 0.015 0.157 0.015 0.152 0.041 0.304 0.091 0.44 0.041 0.147 0.081 0.283 0.051 0.142 0.051 0.137 0.111 0.273 0.061 0.137 0.066 0.132 0.142 0.263 0.076 0.127 0.081 0.127 0.172 0.253 0.086 0.121 0.192 0.243 0.101 0.116 0.213 0.233 0.111 0.116 0.228 0.218 0.116 0.101 0.243 0.202 0.116 0.091 0.127 0.091 0.121 0.086 0.253 0.162 0.132 0.076 0.127 0.076 0.132 0.066 0.137 0.066 0.132 0.061 0.137 0.061 0.137 0.056 0.142 0.051 0.137 0.046 0.142 0.046 0.147 0.041 0.142 0.035 0.147 0.035 0.147 0.030 0.152 0.025 0.147 0.025 0.152 0.020 0.157 0.015 0.152 0.010 0.157 0.010 0.157 0.005h0.319l0.157-0.005 0.157-0.010 0.152-0.010 0.152-0.015 0.152-0.020 0.152-0.025 0.147-0.025 0.147-0.030 0.147-0.035 0.142-0.035 0.147-0.041 0.137-0.046 0.142-0.046 0.137-0.051 0.137-0.056 0.273-0.121 0.263-0.132 0.127-0.076 0.132-0.076 0.253-0.162 0.121-0.086 0.243-0.182 0.121-0.101 0.233-0.202 0.116-0.106 0.116-0.111 0.111-0.116 0.213-0.233 0.096-0.116 0.101-0.121 0.182-0.243 0.172-0.253 0.152-0.253 0.076-0.132 0.132-0.263 0.066-0.137 0.111-0.273 0.051-0.137 0.091-0.283 0.041-0.142 0.041-0.147 0.061-0.294 0.025-0.147 0.025-0.152 0.020-0.152 0.015-0.152 0.020-0.314 0.010-0.314-0.005-0.162-0.005-0.157-0.010-0.152-0.010-0.157-0.015-0.152-0.020-0.152-0.025-0.147-0.025-0.152-0.030-0.147-0.030-0.142-0.041-0.147-0.041-0.142-0.091-0.283-0.051-0.137-0.111-0.273-0.197-0.395-0.076-0.132-0.152-0.253-0.172-0.253-0.182-0.243-0.101-0.116-0.096-0.121-0.213-0.233-0.111-0.111-0.233-0.223-0.233-0.202-0.243-0.192-0.121-0.091-0.121-0.086-0.253-0.162-0.132-0.076-0.127-0.071-0.132-0.071-0.132-0.066-0.273-0.121-0.137-0.051-0.137-0.056-0.142-0.046-0.137-0.046-0.147-0.040-0.142-0.035-0.147-0.035-0.147-0.030-0.147-0.025-0.304-0.040-0.304-0.030-0.157-0.010-0.157-0.005h-0.157"></path>
<path fill="#fff" stroke="#000" stroke-width="2.3531" d="M25.369 4.323h0.167l0.167 0.010 0.167 0.005 0.324 0.030 0.162 0.020 0.162 0.025 0.314 0.061 0.152 0.035 0.304 0.081 0.152 0.051 0.294 0.101 0.147 0.061 0.142 0.061 0.147 0.066 0.137 0.071 0.142 0.071 0.137 0.076 0.137 0.081 0.132 0.086 0.137 0.086 0.132 0.091 0.127 0.096 0.132 0.101 0.127 0.101 0.121 0.106 0.127 0.111 0.121 0.111 0.121 0.121 0.233 0.243 0.106 0.121 0.111 0.127 0.101 0.127 0.096 0.127 0.096 0.132 0.182 0.263 0.086 0.137 0.076 0.137 0.081 0.137 0.071 0.137 0.071 0.142 0.066 0.142 0.061 0.142 0.111 0.294 0.051 0.152 0.046 0.147 0.046 0.152 0.041 0.152 0.035 0.157 0.030 0.157 0.051 0.314 0.041 0.324 0.010 0.167 0.010 0.162 0.005 0.167 0.005 0.172-0.010 0.334-0.020 0.334-0.041 0.324-0.025 0.162-0.025 0.157-0.030 0.157-0.035 0.157-0.041 0.152-0.091 0.304-0.051 0.147-0.111 0.294-0.061 0.147-0.066 0.142-0.071 0.142-0.071 0.137-0.081 0.142-0.076 0.132-0.086 0.137-0.182 0.263-0.192 0.263-0.101 0.127-0.111 0.121-0.106 0.127-0.233 0.243-0.243 0.233-0.127 0.106-0.121 0.106-0.127 0.106-0.132 0.096-0.127 0.096-0.132 0.091-0.137 0.091-0.132 0.081-0.137 0.081-0.137 0.076-0.142 0.076-0.137 0.066-0.147 0.066-0.142 0.066-0.294 0.111-0.147 0.051-0.304 0.091-0.304 0.071-0.157 0.035-0.157 0.025-0.162 0.025-0.162 0.020-0.324 0.030-0.167 0.010-0.167 0.005h-0.339l-0.167-0.005-0.167-0.010-0.162-0.015-0.167-0.015-0.157-0.020-0.162-0.025-0.157-0.025-0.314-0.071-0.152-0.035-0.304-0.091-0.152-0.051-0.294-0.111-0.425-0.197-0.142-0.076-0.137-0.076-0.273-0.162-0.263-0.182-0.132-0.096-0.127-0.096-0.253-0.213-0.121-0.106-0.243-0.233-0.121-0.121-0.111-0.121-0.111-0.127-0.106-0.121-0.101-0.127-0.101-0.132-0.096-0.132-0.091-0.132-0.086-0.132-0.086-0.137-0.081-0.132-0.076-0.142-0.071-0.137-0.071-0.142-0.066-0.142-0.121-0.294-0.101-0.294-0.091-0.304-0.041-0.152-0.035-0.157-0.061-0.314-0.061-0.486-0.020-0.334-0.010-0.334 0.005-0.172 0.005-0.167 0.010-0.162 0.010-0.167 0.041-0.324 0.020-0.157 0.061-0.314 0.035-0.157 0.041-0.152 0.046-0.152 0.046-0.147 0.051-0.152 0.051-0.147 0.061-0.147 0.061-0.142 0.066-0.142 0.071-0.142 0.071-0.137 0.076-0.137 0.081-0.137 0.086-0.137 0.086-0.132 0.091-0.132 0.096-0.132 0.202-0.253 0.106-0.127 0.223-0.243 0.243-0.243 0.243-0.223 0.127-0.106 0.253-0.202 0.132-0.096 0.132-0.091 0.132-0.086 0.137-0.086 0.137-0.081 0.137-0.076 0.283-0.142 0.142-0.066 0.142-0.061 0.147-0.061 0.147-0.051 0.304-0.101 0.304-0.081 0.157-0.035 0.314-0.061 0.162-0.025 0.157-0.020 0.167-0.015 0.162-0.015 0.167-0.005 0.167-0.010h0.172"></path>
<path d="M45.247 4.697h7.861v0.375h-3.746v11.981h-0.375v-11.981h-3.741v-0.375zM34.157 4.697h0.481l8.595 11.844v-11.844h0.375v12.355h-0.481l-8.595-11.844v11.844h-0.375v-12.355z"></path>
<path fill="#fff" stroke="#000" stroke-width="2.3531" d="M45.247 4.697h7.861v0.375h-3.746v11.981h-0.375v-11.981h-3.741v-0.375zM34.157 4.697h0.481l8.595 11.844v-11.844h0.375v12.355h-0.481l-8.595-11.844v11.844h-0.375v-12.355z"></path>
<path fill="#fff" stroke="#0d0d0d" stroke-width="3.7114" d="M19.705 0.511h82.197"></path>
<path d="M44.26 27.201l-1.088 2.576h2.131l-1.043-2.576zM56.737 26.837h-0.076l-0.071 0.005-0.142 0.020-0.066 0.015-0.071 0.020-0.066 0.020-0.066 0.030-0.061 0.025-0.061 0.035-0.066 0.035-0.056 0.041-0.061 0.041-0.056 0.051-0.056 0.046-0.051 0.056-0.056 0.056-0.046 0.056-0.091 0.121-0.071 0.121-0.035 0.066-0.051 0.132-0.041 0.142-0.015 0.071-0.010 0.071-0.010 0.076-0.005 0.076v0.177l0.010 0.101 0.005 0.046 0.010 0.051 0.020 0.091 0.015 0.051 0.046 0.137 0.041 0.091 0.020 0.041 0.025 0.046 0.051 0.086 0.056 0.081 0.061 0.071 0.066 0.071 0.066 0.066 0.071 0.061 0.076 0.056 0.086 0.051 0.081 0.041 0.046 0.020 0.041 0.020 0.182 0.061 0.091 0.020 0.046 0.005 0.046 0.010 0.051 0.005h0.051l0.046 0.005h0.101l0.046-0.005h0.051l0.051-0.005 0.046-0.010 0.046-0.005 0.091-0.020 0.182-0.061 0.081-0.041 0.046-0.020 0.041-0.020 0.081-0.051 0.076-0.056 0.076-0.061 0.066-0.066 0.066-0.071 0.061-0.071 0.056-0.081 0.051-0.086 0.020-0.046 0.025-0.041 0.041-0.091 0.046-0.137 0.015-0.051 0.020-0.091 0.005-0.051 0.010-0.046 0.005-0.051v-0.051l0.005-0.051v-0.127l-0.005-0.076-0.010-0.076-0.010-0.071-0.015-0.071-0.041-0.142-0.025-0.066-0.061-0.132-0.035-0.061-0.081-0.121-0.046-0.061-0.101-0.111-0.056-0.056-0.056-0.046-0.056-0.051-0.056-0.041-0.061-0.041-0.121-0.071-0.066-0.025-0.066-0.030-0.132-0.041-0.066-0.015-0.142-0.020-0.071-0.005h-0.076zM61.485 26.832h-0.076l-0.076 0.005-0.076 0.010-0.071 0.010-0.071 0.015-0.071 0.020-0.066 0.020-0.066 0.025-0.066 0.030-0.061 0.030-0.061 0.035-0.121 0.081-0.056 0.046-0.056 0.051-0.106 0.106-0.046 0.056-0.046 0.061-0.041 0.056-0.041 0.066-0.035 0.061-0.030 0.066-0.051 0.132-0.025 0.071-0.015 0.071-0.030 0.152-0.010 0.152v0.187l0.015 0.152 0.010 0.051 0.010 0.046 0.010 0.051 0.010 0.046 0.030 0.091 0.020 0.046 0.015 0.046 0.020 0.046 0.020 0.041 0.025 0.046 0.051 0.081 0.056 0.076 0.030 0.041 0.061 0.071 0.066 0.066 0.035 0.030 0.041 0.030 0.035 0.030 0.041 0.030 0.041 0.025 0.041 0.030 0.046 0.025 0.046 0.020 0.046 0.025 0.041 0.020 0.046 0.020 0.091 0.030 0.051 0.015 0.046 0.015 0.091 0.020 0.051 0.010 0.046 0.005 0.051 0.005 0.046 0.005h0.051l0.051 0.005 0.046-0.005h0.046l0.051-0.005 0.091-0.010 0.137-0.030 0.137-0.046 0.046-0.020 0.041-0.015 0.046-0.025 0.041-0.020 0.046-0.025 0.081-0.051 0.041-0.030 0.035-0.030 0.041-0.030 0.035-0.030 0.071-0.066 0.066-0.071 0.061-0.081 0.056-0.081 0.056-0.086 0.020-0.046 0.025-0.046 0.041-0.091 0.015-0.046 0.020-0.046 0.015-0.046 0.010-0.051 0.015-0.046 0.010-0.046 0.005-0.051 0.010-0.046 0.005-0.051v-0.046l0.005-0.051v-0.096l-0.005-0.051v-0.046l-0.005-0.051-0.010-0.046-0.005-0.051-0.010-0.046-0.015-0.051-0.010-0.046-0.015-0.046-0.020-0.046-0.015-0.046-0.041-0.091-0.025-0.046-0.020-0.046-0.056-0.086-0.056-0.081-0.061-0.076-0.066-0.071-0.066-0.066-0.076-0.066-0.076-0.056-0.081-0.051-0.046-0.025-0.041-0.020-0.091-0.041-0.041-0.015-0.137-0.046-0.046-0.010-0.051-0.010-0.046-0.010-0.046-0.005-0.051-0.005-0.046-0.005h-0.101zM75.227 26.827h-0.066l-0.071 0.005-0.061 0.005-0.132 0.020-0.061 0.015-0.061 0.020-0.056 0.020-0.061 0.025-0.056 0.025-0.111 0.061-0.056 0.035-0.051 0.035-0.051 0.041-0.051 0.046-0.035 0.030-0.035 0.035-0.030 0.035-0.030 0.041-0.035 0.041-0.030 0.041-0.025 0.046-0.030 0.051-0.025 0.046-0.025 0.051-0.025 0.056-0.020 0.056-0.025 0.056-0.040 0.121-0.015 0.061h2.769l-0.051-0.182-0.035-0.081-0.030-0.081-0.035-0.071-0.040-0.071-0.040-0.066-0.046-0.056-0.046-0.061-0.051-0.051-0.056-0.051-0.121-0.091-0.066-0.046-0.071-0.035-0.152-0.071-0.076-0.030-0.076-0.020-0.081-0.020-0.081-0.015-0.076-0.015-0.086-0.005h-0.081zM48.648 26.827h-0.066l-0.071 0.005-0.061 0.005-0.132 0.020-0.061 0.015-0.061 0.020-0.056 0.020-0.061 0.025-0.056 0.025-0.111 0.061-0.056 0.035-0.051 0.035-0.051 0.041-0.051 0.046-0.035 0.030-0.035 0.035-0.030 0.035-0.030 0.041-0.035 0.041-0.030 0.041-0.025 0.046-0.030 0.051-0.025 0.046-0.025 0.051-0.025 0.056-0.020 0.056-0.025 0.056-0.041 0.121-0.015 0.061h2.769l-0.051-0.182-0.035-0.081-0.030-0.081-0.035-0.071-0.041-0.071-0.041-0.066-0.046-0.056-0.046-0.061-0.051-0.051-0.056-0.051-0.121-0.091-0.066-0.046-0.071-0.035-0.152-0.071-0.076-0.030-0.076-0.020-0.081-0.020-0.081-0.015-0.076-0.015-0.086-0.005h-0.081zM78.047 26.462h0.476v1.478h2.166v-1.478h0.476v3.72h-0.476v-1.792h-2.166v1.792h-0.476v-3.72zM70.399 26.462h2.45v0.415h-0.987v3.305h-0.476v-3.305h-0.987v-0.415zM51.468 26.462h0.476v1.569l1.726-1.569h0.663l-1.883 1.706 2.035 2.015h-0.678l-1.711-1.721-0.152 0.137v1.584h-0.476v-3.72zM44.143 26.462h0.248l1.427 3.315h0.45v0.881h-0.461v-0.476h-3.078v0.496h-0.471v-0.901h0.45l1.432-3.315zM75.222 26.366h0.061l0.056 0.005h0.061l0.111 0.010 0.056 0.010 0.051 0.010 0.111 0.020 0.152 0.046 0.051 0.020 0.051 0.015 0.046 0.020 0.051 0.025 0.046 0.020 0.091 0.051 0.046 0.030 0.046 0.025 0.040 0.030 0.046 0.035 0.040 0.030 0.121 0.106 0.040 0.041 0.035 0.041 0.040 0.041 0.071 0.091 0.051 0.061 0.046 0.071 0.040 0.066 0.040 0.071 0.035 0.076 0.035 0.071 0.030 0.076 0.051 0.162 0.020 0.081 0.046 0.258 0.005 0.091 0.010 0.091v0.096h-3.346l0.005 0.081 0.005 0.076 0.020 0.152 0.015 0.076 0.020 0.071 0.020 0.066 0.051 0.132 0.030 0.066 0.071 0.121 0.040 0.061 0.040 0.056 0.046 0.056 0.101 0.101 0.051 0.046 0.056 0.046 0.056 0.041 0.111 0.071 0.061 0.030 0.121 0.051 0.132 0.041 0.066 0.010 0.071 0.015 0.213 0.015 0.213-0.015 0.071-0.010 0.066-0.015 0.071-0.015 0.066-0.020 0.071-0.025 0.061-0.025 0.066-0.025 0.061-0.030 0.056-0.035 0.061-0.030 0.051-0.035 0.051-0.041 0.051-0.035 0.020-0.025 0.025-0.020 0.051-0.051 0.020-0.030 0.025-0.025 0.025-0.030 0.025-0.035 0.025-0.030 0.025-0.035 0.030-0.041 0.025-0.035 0.025-0.041 0.025-0.046 0.030-0.041 0.025-0.046 0.405 0.213-0.051 0.096-0.056 0.091-0.051 0.086-0.061 0.081-0.056 0.076-0.061 0.071-0.061 0.066-0.066 0.061-0.132 0.111-0.142 0.101-0.152 0.081-0.081 0.035-0.076 0.035-0.086 0.030-0.086 0.025-0.086 0.020-0.091 0.020-0.091 0.010-0.096 0.010-0.101 0.010h-0.213l-0.111-0.010-0.106-0.010-0.101-0.015-0.101-0.025-0.096-0.025-0.091-0.030-0.091-0.035-0.086-0.035-0.086-0.046-0.081-0.051-0.076-0.051-0.076-0.061-0.071-0.061-0.071-0.071-0.066-0.071-0.121-0.152-0.051-0.076-0.051-0.081-0.091-0.162-0.035-0.081-0.035-0.086-0.030-0.081-0.025-0.086-0.025-0.091-0.015-0.086-0.015-0.091-0.010-0.091-0.005-0.091v-0.182l0.005-0.086 0.010-0.086 0.010-0.081 0.015-0.086 0.040-0.162 0.025-0.076 0.030-0.081 0.030-0.076 0.035-0.076 0.040-0.076 0.040-0.071 0.046-0.076 0.051-0.071 0.056-0.066 0.030-0.046 0.035-0.041 0.040-0.041 0.071-0.081 0.081-0.071 0.035-0.035 0.046-0.030 0.081-0.061 0.040-0.025 0.046-0.030 0.091-0.051 0.137-0.061 0.051-0.020 0.046-0.015 0.152-0.046 0.051-0.010 0.056-0.010 0.051-0.010 0.056-0.010 0.051-0.005 0.056-0.005h0.056l0.061-0.005h0.056zM68.197 26.366h0.091l0.091 0.005 0.086 0.010 0.182 0.030 0.172 0.041 0.086 0.030 0.086 0.025 0.081 0.035 0.076 0.030 0.076 0.035 0.071 0.041 0.066 0.035 0.066 0.046 0.121 0.091 0.111 0.101 0.051 0.056 0.051 0.061 0.046 0.061 0.046 0.066 0.046 0.071-0.38 0.238-0.035-0.041-0.061-0.081-0.035-0.035-0.030-0.035-0.035-0.030-0.035-0.035-0.035-0.030-0.040-0.030-0.035-0.030-0.035-0.025-0.121-0.076-0.081-0.041-0.046-0.020-0.040-0.020-0.046-0.015-0.040-0.015-0.091-0.030-0.051-0.010-0.091-0.020-0.051-0.010-0.202-0.020h-0.187l-0.081 0.005-0.162 0.020-0.076 0.015-0.076 0.020-0.071 0.020-0.071 0.025-0.142 0.061-0.066 0.035-0.061 0.041-0.066 0.041-0.061 0.046-0.056 0.051-0.111 0.111-0.101 0.111-0.081 0.121-0.035 0.066-0.035 0.061-0.030 0.066-0.025 0.071-0.025 0.066-0.046 0.213-0.010 0.076-0.005 0.076v0.132l0.005 0.046v0.051l0.010 0.051 0.005 0.051 0.010 0.046 0.010 0.051 0.010 0.046 0.015 0.051 0.030 0.091 0.020 0.051 0.040 0.091 0.051 0.091 0.025 0.041 0.025 0.046 0.091 0.121 0.035 0.035 0.030 0.041 0.035 0.035 0.035 0.030 0.035 0.035 0.081 0.061 0.081 0.056 0.091 0.056 0.091 0.046 0.091 0.041 0.051 0.015 0.046 0.015 0.101 0.030 0.101 0.020 0.056 0.010 0.051 0.005 0.056 0.005 0.051 0.005h0.056l0.056 0.005 0.051-0.005h0.051l0.051-0.005h0.051l0.046-0.010 0.051-0.005 0.182-0.041 0.137-0.046 0.040-0.015 0.046-0.020 0.121-0.061 0.162-0.101 0.071-0.061 0.040-0.030 0.035-0.035 0.035-0.030 0.071-0.071 0.030-0.041 0.035-0.041 0.035-0.035 0.38 0.248-0.035 0.051-0.035 0.046-0.035 0.051-0.040 0.046-0.040 0.041-0.040 0.046-0.040 0.041-0.046 0.041-0.091 0.071-0.101 0.071-0.051 0.030-0.051 0.035-0.056 0.025-0.056 0.030-0.056 0.025-0.061 0.025-0.056 0.025-0.182 0.061-0.061 0.015-0.066 0.015-0.066 0.010-0.061 0.015-0.071 0.010-0.132 0.010-0.142 0.010h-0.182l-0.106-0.010-0.101-0.010-0.106-0.015-0.096-0.020-0.192-0.051-0.182-0.071-0.091-0.041-0.086-0.046-0.081-0.051-0.081-0.056-0.076-0.061-0.152-0.132-0.071-0.071-0.066-0.071-0.061-0.076-0.056-0.076-0.056-0.081-0.091-0.162-0.071-0.172-0.030-0.086-0.025-0.091-0.020-0.091-0.015-0.096-0.020-0.192v-0.167l0.015-0.197 0.010-0.066 0.015-0.061 0.010-0.066 0.015-0.061 0.020-0.066 0.040-0.121 0.051-0.121 0.030-0.056 0.030-0.061 0.035-0.056 0.030-0.061 0.040-0.056 0.035-0.051 0.040-0.056 0.040-0.051 0.046-0.046 0.040-0.051 0.046-0.046 0.051-0.046 0.046-0.041 0.051-0.041 0.056-0.041 0.051-0.041 0.111-0.071 0.061-0.030 0.061-0.035 0.061-0.025 0.061-0.030 0.066-0.025 0.061-0.020 0.066-0.025 0.066-0.020 0.197-0.046 0.142-0.020 0.213-0.015h0.076zM61.525 26.366h0.096l0.192 0.020 0.091 0.015 0.091 0.020 0.091 0.025 0.172 0.061 0.086 0.041 0.081 0.041 0.081 0.051 0.076 0.051 0.076 0.056 0.076 0.061 0.071 0.061 0.076 0.071 0.066 0.071 0.066 0.076 0.111 0.152 0.101 0.162 0.041 0.081 0.071 0.172 0.051 0.182 0.020 0.091 0.015 0.096 0.010 0.091 0.010 0.101v0.202l-0.010 0.096-0.010 0.101-0.015 0.091-0.020 0.096-0.051 0.182-0.071 0.172-0.041 0.086-0.046 0.081-0.051 0.081-0.056 0.076-0.121 0.152-0.066 0.076-0.071 0.066-0.076 0.066-0.071 0.061-0.076 0.056-0.162 0.101-0.162 0.081-0.172 0.061-0.091 0.025-0.086 0.020-0.096 0.015-0.091 0.010-0.096 0.010h-0.152l-0.056-0.005h-0.056l-0.051-0.005-0.056-0.010-0.051-0.005-0.051-0.010-0.056-0.010-0.051-0.015-0.051-0.010-0.046-0.015-0.051-0.020-0.051-0.015-0.046-0.020-0.051-0.020-0.046-0.020-0.091-0.051-0.046-0.030-0.046-0.025-0.041-0.030-0.046-0.030-0.041-0.030-0.046-0.035-0.081-0.071-0.121-0.121-0.035-0.041-0.041-0.046-0.035-0.041v1.999h-0.481v-5.082h0.481v0.683l0.035-0.046 0.035-0.051 0.035-0.041 0.035-0.046 0.081-0.081 0.035-0.041 0.041-0.035 0.046-0.035 0.041-0.035 0.041-0.030 0.046-0.035 0.041-0.030 0.182-0.101 0.051-0.020 0.046-0.025 0.051-0.015 0.046-0.020 0.101-0.030 0.051-0.010 0.056-0.015 0.051-0.010 0.051-0.005 0.056-0.010 0.056-0.005h0.056l0.056-0.005h0.056zM56.737 26.366l0.213 0.010 0.101 0.010 0.096 0.020 0.101 0.020 0.091 0.025 0.096 0.035 0.086 0.035 0.091 0.041 0.086 0.046 0.081 0.051 0.081 0.056 0.081 0.061 0.076 0.066 0.147 0.147 0.061 0.071 0.111 0.152 0.051 0.076 0.046 0.076 0.046 0.081 0.035 0.081 0.035 0.086 0.030 0.081 0.025 0.086 0.041 0.182 0.020 0.182 0.010 0.096v0.192l-0.010 0.091-0.010 0.096-0.030 0.182-0.025 0.091-0.025 0.086-0.035 0.086-0.035 0.081-0.041 0.086-0.041 0.081-0.051 0.081-0.111 0.152-0.061 0.076-0.066 0.076-0.071 0.071-0.071 0.066-0.071 0.061-0.076 0.056-0.162 0.101-0.172 0.081-0.086 0.035-0.091 0.030-0.096 0.025-0.091 0.020-0.101 0.015-0.202 0.020h-0.213l-0.202-0.020-0.101-0.015-0.091-0.020-0.096-0.025-0.091-0.030-0.086-0.035-0.172-0.081-0.162-0.101-0.076-0.056-0.071-0.061-0.071-0.066-0.071-0.071-0.066-0.076-0.061-0.076-0.111-0.152-0.051-0.081-0.041-0.081-0.041-0.086-0.041-0.081-0.030-0.086-0.025-0.086-0.025-0.091-0.020-0.091-0.015-0.091-0.010-0.096-0.005-0.091v-0.192l0.005-0.096 0.010-0.091 0.030-0.182 0.051-0.172 0.030-0.086 0.071-0.162 0.046-0.081 0.046-0.076 0.051-0.081 0.051-0.071 0.061-0.076 0.061-0.071 0.071-0.076 0.076-0.071 0.076-0.066 0.081-0.061 0.081-0.056 0.081-0.051 0.086-0.051 0.086-0.041 0.091-0.035 0.096-0.030 0.091-0.030 0.101-0.020 0.096-0.020 0.101-0.010 0.213-0.010zM48.643 26.366h0.061l0.056 0.005h0.061l0.111 0.010 0.056 0.010 0.051 0.010 0.111 0.020 0.152 0.046 0.051 0.020 0.051 0.015 0.046 0.020 0.051 0.025 0.046 0.020 0.091 0.051 0.046 0.030 0.046 0.025 0.041 0.030 0.046 0.035 0.041 0.030 0.121 0.106 0.041 0.041 0.035 0.041 0.041 0.041 0.071 0.091 0.051 0.061 0.046 0.071 0.041 0.066 0.041 0.071 0.035 0.076 0.035 0.071 0.030 0.076 0.051 0.162 0.020 0.081 0.046 0.258 0.005 0.091 0.010 0.091v0.096h-3.346l0.005 0.081 0.005 0.076 0.020 0.152 0.015 0.076 0.020 0.071 0.020 0.066 0.051 0.132 0.030 0.066 0.071 0.121 0.041 0.061 0.041 0.056 0.046 0.056 0.101 0.101 0.051 0.046 0.056 0.046 0.056 0.041 0.111 0.071 0.061 0.030 0.121 0.051 0.132 0.041 0.066 0.010 0.071 0.015 0.213 0.015 0.213-0.015 0.071-0.010 0.066-0.015 0.071-0.015 0.066-0.020 0.071-0.025 0.061-0.025 0.066-0.025 0.061-0.030 0.056-0.035 0.061-0.030 0.051-0.035 0.051-0.041 0.051-0.035 0.020-0.025 0.025-0.020 0.051-0.051 0.020-0.030 0.025-0.025 0.025-0.030 0.025-0.035 0.025-0.030 0.025-0.035 0.030-0.041 0.025-0.035 0.025-0.041 0.025-0.046 0.030-0.041 0.025-0.046 0.405 0.213-0.051 0.096-0.056 0.091-0.051 0.086-0.061 0.081-0.056 0.076-0.061 0.071-0.061 0.066-0.066 0.061-0.132 0.111-0.142 0.101-0.152 0.081-0.081 0.035-0.076 0.035-0.086 0.030-0.086 0.025-0.086 0.020-0.091 0.020-0.091 0.010-0.096 0.010-0.101 0.010h-0.213l-0.111-0.010-0.106-0.010-0.101-0.015-0.101-0.025-0.096-0.025-0.091-0.030-0.091-0.035-0.086-0.035-0.086-0.046-0.081-0.051-0.076-0.051-0.076-0.061-0.071-0.061-0.071-0.071-0.066-0.071-0.121-0.152-0.051-0.076-0.051-0.081-0.091-0.162-0.035-0.081-0.035-0.086-0.030-0.081-0.025-0.086-0.025-0.091-0.015-0.086-0.015-0.091-0.010-0.091-0.005-0.091v-0.182l0.005-0.086 0.010-0.086 0.010-0.081 0.015-0.086 0.041-0.162 0.025-0.076 0.030-0.081 0.030-0.076 0.035-0.076 0.041-0.076 0.041-0.071 0.046-0.076 0.051-0.071 0.056-0.066 0.030-0.046 0.035-0.041 0.041-0.041 0.071-0.081 0.081-0.071 0.035-0.035 0.046-0.030 0.081-0.061 0.041-0.025 0.046-0.030 0.091-0.051 0.137-0.061 0.051-0.020 0.046-0.015 0.152-0.046 0.051-0.010 0.056-0.010 0.051-0.010 0.056-0.010 0.051-0.005 0.056-0.005h0.056l0.061-0.005h0.056z"></path>
<path fill="none" stroke="#0d0d0d" stroke-width="3.7114" stroke-miterlimit="4" stroke-linecap="round" stroke-linejoin="round" style="stroke: var(--color1, #0d0d0d)" d="M0.506 17.093l6.352-12.381 2.445 4.885"></path>
<path fill="none" stroke="#0d0d0d" stroke-width="3.7114" stroke-miterlimit="4" stroke-linecap="round" stroke-linejoin="round" style="stroke: var(--color1, #0d0d0d)" d="M7.679 12.695l4.399-7.982 6.023 12.214"></path>
<path fill="none" stroke="#0d0d0d" stroke-width="3.7114" stroke-miterlimit="4" stroke-linecap="round" stroke-linejoin="round" style="stroke: var(--color1, #0d0d0d)" d="M52.338 16.931l6.358-12.381 2.44 4.885"></path>
<path fill="none" stroke="#0d0d0d" stroke-width="3.7114" stroke-miterlimit="4" stroke-linecap="round" stroke-linejoin="round" style="stroke: var(--color1, #0d0d0d)" d="M59.511 12.533l4.399-7.982 6.029 12.214"></path>
<path d="M77.981 5.229l-4.464 9.567h8.924l-4.459-9.567zM104.418 5.213v8.235h4.221l0.106-0.005 0.101-0.005 0.106-0.010 0.202-0.020 0.101-0.015 0.101-0.020 0.192-0.040 0.192-0.051 0.096-0.030 0.091-0.030 0.096-0.035 0.091-0.035 0.091-0.040 0.086-0.040 0.091-0.046 0.172-0.091 0.086-0.051 0.172-0.111 0.081-0.056 0.162-0.121 0.081-0.066 0.076-0.066 0.081-0.071 0.076-0.071 0.152-0.152 0.071-0.076 0.066-0.081 0.071-0.076 0.061-0.081 0.066-0.081 0.056-0.081 0.061-0.081 0.056-0.086 0.152-0.258 0.046-0.086 0.040-0.091 0.046-0.086 0.106-0.273 0.035-0.096 0.025-0.096 0.030-0.091 0.025-0.096 0.020-0.101 0.020-0.096 0.020-0.101 0.015-0.096 0.020-0.202 0.010-0.106 0.005-0.101 0.005-0.106v-0.213l-0.005-0.106-0.005-0.101-0.010-0.106-0.020-0.202-0.015-0.101-0.020-0.101-0.040-0.192-0.025-0.096-0.030-0.096-0.025-0.096-0.035-0.091-0.035-0.096-0.071-0.182-0.046-0.086-0.040-0.091-0.046-0.086-0.152-0.258-0.056-0.086-0.061-0.081-0.056-0.081-0.066-0.081-0.061-0.081-0.071-0.076-0.066-0.081-0.071-0.076-0.152-0.152-0.076-0.071-0.081-0.066-0.076-0.071-0.081-0.061-0.081-0.066-0.081-0.056-0.081-0.061-0.086-0.056-0.258-0.152-0.086-0.046-0.091-0.040-0.086-0.046-0.182-0.071-0.096-0.035-0.091-0.035-0.096-0.025-0.096-0.030-0.096-0.025-0.192-0.040-0.101-0.020-0.101-0.015-0.202-0.020-0.106-0.010-0.101-0.005-0.106-0.005h-4.221zM86.034 5.213v8.235h4.221l0.106-0.005 0.101-0.005 0.106-0.010 0.202-0.020 0.101-0.015 0.101-0.020 0.192-0.040 0.192-0.051 0.096-0.030 0.091-0.030 0.096-0.035 0.091-0.035 0.091-0.040 0.086-0.040 0.091-0.046 0.172-0.091 0.086-0.051 0.172-0.111 0.081-0.056 0.162-0.121 0.081-0.066 0.076-0.066 0.081-0.071 0.076-0.071 0.152-0.152 0.071-0.076 0.066-0.081 0.071-0.076 0.061-0.081 0.066-0.081 0.056-0.081 0.061-0.081 0.056-0.086 0.152-0.258 0.046-0.086 0.040-0.091 0.046-0.086 0.106-0.273 0.035-0.096 0.025-0.096 0.030-0.091 0.025-0.096 0.020-0.101 0.020-0.096 0.020-0.101 0.015-0.096 0.020-0.202 0.010-0.106 0.005-0.101 0.005-0.106v-0.213l-0.005-0.106-0.005-0.101-0.010-0.106-0.020-0.202-0.015-0.101-0.020-0.101-0.040-0.192-0.025-0.096-0.030-0.096-0.025-0.096-0.035-0.091-0.035-0.096-0.071-0.182-0.046-0.086-0.040-0.091-0.046-0.086-0.152-0.258-0.056-0.086-0.061-0.081-0.056-0.081-0.066-0.081-0.061-0.081-0.071-0.076-0.066-0.081-0.071-0.076-0.152-0.152-0.076-0.071-0.081-0.066-0.076-0.071-0.081-0.061-0.081-0.066-0.081-0.056-0.081-0.061-0.086-0.056-0.258-0.152-0.086-0.046-0.091-0.040-0.086-0.046-0.182-0.071-0.096-0.035-0.091-0.035-0.096-0.025-0.096-0.030-0.096-0.025-0.192-0.040-0.101-0.020-0.101-0.015-0.202-0.020-0.106-0.010-0.101-0.005-0.106-0.005h-4.221zM115.645 4.839h7.112v0.375h-6.737v5.613h5.239v0.375h-5.239v5.618h6.737v0.375h-7.112v-12.355zM104.044 4.839h4.606l0.228 0.010 0.223 0.020 0.111 0.015 0.111 0.020 0.106 0.015 0.319 0.076 0.101 0.030 0.106 0.030 0.202 0.071 0.101 0.040 0.289 0.137 0.192 0.101 0.091 0.056 0.096 0.061 0.091 0.061 0.086 0.061 0.091 0.066 0.258 0.213 0.086 0.076 0.086 0.081 0.162 0.162 0.081 0.086 0.076 0.086 0.213 0.258 0.066 0.091 0.182 0.273 0.056 0.091 0.101 0.192 0.091 0.192 0.046 0.101 0.040 0.096 0.071 0.202 0.030 0.106 0.030 0.101 0.030 0.106 0.020 0.106 0.025 0.106 0.020 0.106 0.030 0.223 0.020 0.223 0.005 0.116 0.005 0.111v0.233l-0.005 0.111-0.005 0.116-0.020 0.223-0.015 0.111-0.015 0.106-0.020 0.106-0.025 0.111-0.020 0.106-0.030 0.101-0.030 0.106-0.030 0.101-0.071 0.202-0.040 0.101-0.046 0.096-0.046 0.101-0.046 0.096-0.051 0.096-0.051 0.091-0.056 0.096-0.182 0.273-0.066 0.086-0.071 0.091-0.142 0.172-0.076 0.086-0.081 0.086-0.157 0.157-0.081 0.076-0.076 0.071-0.243 0.197-0.081 0.061-0.172 0.121-0.086 0.056-0.258 0.152-0.182 0.091-0.091 0.040 2.156 3.746h-0.451l-2.065-3.594-0.172 0.051-0.091 0.025-0.086 0.020-0.182 0.040-0.086 0.015-0.091 0.015-0.096 0.010-0.091 0.015-0.091 0.010-0.385 0.020h-4.211v3.371h-0.375v-12.355zM94.685 4.839h7.861v0.375h-3.746v11.981h-0.37v-11.981h-3.746v-0.375zM85.66 4.839h4.606l0.228 0.010 0.223 0.020 0.111 0.015 0.111 0.020 0.106 0.015 0.319 0.076 0.101 0.030 0.106 0.030 0.202 0.071 0.101 0.040 0.289 0.137 0.192 0.101 0.091 0.056 0.096 0.061 0.091 0.061 0.086 0.061 0.091 0.066 0.258 0.213 0.086 0.076 0.086 0.081 0.162 0.162 0.081 0.086 0.076 0.086 0.213 0.258 0.066 0.091 0.182 0.273 0.056 0.091 0.101 0.192 0.091 0.192 0.046 0.101 0.040 0.096 0.071 0.202 0.030 0.106 0.030 0.101 0.030 0.106 0.020 0.106 0.025 0.106 0.020 0.106 0.030 0.223 0.020 0.223 0.005 0.116 0.005 0.111v0.233l-0.005 0.111-0.005 0.116-0.020 0.223-0.015 0.111-0.015 0.106-0.020 0.106-0.025 0.111-0.020 0.106-0.030 0.101-0.030 0.106-0.030 0.101-0.071 0.202-0.040 0.101-0.046 0.096-0.046 0.101-0.046 0.096-0.051 0.096-0.051 0.091-0.056 0.096-0.182 0.273-0.066 0.086-0.071 0.091-0.142 0.172-0.076 0.086-0.081 0.086-0.157 0.157-0.081 0.076-0.076 0.071-0.243 0.197-0.081 0.061-0.172 0.121-0.086 0.056-0.258 0.152-0.182 0.091-0.091 0.040 2.156 3.746h-0.451l-2.065-3.594-0.172 0.051-0.091 0.025-0.086 0.020-0.182 0.040-0.086 0.015-0.091 0.015-0.096 0.010-0.091 0.015-0.091 0.010-0.385 0.020h-4.211v3.371h-0.375v-12.355zM77.738 4.839h0.481l5.765 12.355h-0.42l-0.941-2.025h-9.283l-0.947 2.025h-0.415l5.76-12.355z"></path>
<path fill="none" stroke="#0d0d0d" stroke-width="2.3531" stroke-miterlimit="4" stroke-linecap="round" stroke-linejoin="round" style="stroke: var(--color1, #0d0d0d)" d="M77.981 5.229l-4.464 9.567h8.924l-4.459-9.567"></path>
<path fill="none" stroke="#0d0d0d" stroke-width="2.3531" stroke-miterlimit="4" stroke-linecap="round" stroke-linejoin="round" style="stroke: var(--color1, #0d0d0d)" d="M104.418 5.213v8.235h4.221l0.106-0.005 0.101-0.005 0.106-0.010 0.202-0.020 0.101-0.015 0.101-0.020 0.192-0.040 0.192-0.051 0.096-0.030 0.091-0.030 0.096-0.035 0.091-0.035 0.091-0.040 0.086-0.040 0.091-0.046 0.172-0.091 0.086-0.051 0.172-0.111 0.081-0.056 0.162-0.121 0.081-0.066 0.076-0.066 0.081-0.071 0.076-0.071 0.152-0.152 0.071-0.076 0.066-0.081 0.071-0.076 0.061-0.081 0.066-0.081 0.056-0.081 0.061-0.081 0.056-0.086 0.152-0.258 0.046-0.086 0.040-0.091 0.046-0.086 0.106-0.273 0.035-0.096 0.025-0.096 0.030-0.091 0.025-0.096 0.020-0.101 0.020-0.096 0.020-0.101 0.015-0.096 0.020-0.202 0.010-0.106 0.005-0.101 0.005-0.106v-0.213l-0.005-0.106-0.005-0.101-0.010-0.106-0.020-0.202-0.015-0.101-0.020-0.101-0.040-0.192-0.025-0.096-0.030-0.096-0.025-0.096-0.035-0.091-0.035-0.096-0.071-0.182-0.046-0.086-0.040-0.091-0.046-0.086-0.152-0.258-0.056-0.086-0.061-0.081-0.056-0.081-0.066-0.081-0.061-0.081-0.071-0.076-0.066-0.081-0.071-0.076-0.152-0.152-0.076-0.071-0.081-0.066-0.076-0.071-0.081-0.061-0.081-0.066-0.081-0.056-0.081-0.061-0.086-0.056-0.258-0.152-0.086-0.046-0.091-0.040-0.086-0.046-0.182-0.071-0.096-0.035-0.091-0.035-0.096-0.025-0.096-0.030-0.096-0.025-0.192-0.040-0.101-0.020-0.101-0.015-0.202-0.020-0.106-0.010-0.101-0.005-0.106-0.005h-4.221"></path>
<path fill="none" stroke="#0d0d0d" stroke-width="2.3531" stroke-miterlimit="4" stroke-linecap="round" stroke-linejoin="round" style="stroke: var(--color1, #0d0d0d)" d="M86.034 5.213v8.235h4.221l0.106-0.005 0.101-0.005 0.106-0.010 0.202-0.020 0.101-0.015 0.101-0.020 0.192-0.040 0.192-0.051 0.096-0.030 0.091-0.030 0.096-0.035 0.091-0.035 0.091-0.040 0.086-0.040 0.091-0.046 0.172-0.091 0.086-0.051 0.172-0.111 0.081-0.056 0.162-0.121 0.081-0.066 0.076-0.066 0.081-0.071 0.076-0.071 0.152-0.152 0.071-0.076 0.066-0.081 0.071-0.076 0.061-0.081 0.066-0.081 0.056-0.081 0.061-0.081 0.056-0.086 0.152-0.258 0.046-0.086 0.040-0.091 0.046-0.086 0.106-0.273 0.035-0.096 0.025-0.096 0.030-0.091 0.025-0.096 0.020-0.101 0.020-0.096 0.020-0.101 0.015-0.096 0.020-0.202 0.010-0.106 0.005-0.101 0.005-0.106v-0.213l-0.005-0.106-0.005-0.101-0.010-0.106-0.020-0.202-0.015-0.101-0.020-0.101-0.040-0.192-0.025-0.096-0.030-0.096-0.025-0.096-0.035-0.091-0.035-0.096-0.071-0.182-0.046-0.086-0.040-0.091-0.046-0.086-0.152-0.258-0.056-0.086-0.061-0.081-0.056-0.081-0.066-0.081-0.061-0.081-0.071-0.076-0.066-0.081-0.071-0.076-0.152-0.152-0.076-0.071-0.081-0.066-0.076-0.071-0.081-0.061-0.081-0.066-0.081-0.056-0.081-0.061-0.086-0.056-0.258-0.152-0.086-0.046-0.091-0.040-0.086-0.046-0.182-0.071-0.096-0.035-0.091-0.035-0.096-0.025-0.096-0.030-0.096-0.025-0.192-0.040-0.101-0.020-0.101-0.015-0.202-0.020-0.106-0.010-0.101-0.005-0.106-0.005h-4.221"></path>
<path fill="none" stroke="#0d0d0d" stroke-width="2.3531" stroke-miterlimit="4" stroke-linecap="round" stroke-linejoin="round" style="stroke: var(--color1, #0d0d0d)" d="M115.645 4.839h7.112v0.375h-6.737v5.613h5.239v0.375h-5.239v5.618h6.737v0.375h-7.112v-12.355"></path>
<path fill="none" stroke="#0d0d0d" stroke-width="2.3531" stroke-miterlimit="4" stroke-linecap="round" stroke-linejoin="round" style="stroke: var(--color1, #0d0d0d)" d="M104.044 4.839h4.606l0.228 0.010 0.223 0.020 0.111 0.015 0.111 0.020 0.106 0.015 0.319 0.076 0.101 0.030 0.106 0.030 0.202 0.071 0.101 0.040 0.289 0.137 0.192 0.101 0.091 0.056 0.096 0.061 0.091 0.061 0.086 0.061 0.091 0.066 0.258 0.213 0.086 0.076 0.086 0.081 0.162 0.162 0.081 0.086 0.076 0.086 0.213 0.258 0.066 0.091 0.182 0.273 0.056 0.091 0.101 0.192 0.091 0.192 0.046 0.101 0.040 0.096 0.071 0.202 0.030 0.106 0.030 0.101 0.030 0.106 0.020 0.106 0.025 0.106 0.020 0.106 0.030 0.223 0.020 0.223 0.005 0.116 0.005 0.111v0.233l-0.005 0.111-0.005 0.116-0.020 0.223-0.015 0.111-0.015 0.106-0.020 0.106-0.025 0.111-0.020 0.106-0.030 0.101-0.030 0.106-0.030 0.101-0.071 0.202-0.040 0.101-0.046 0.096-0.046 0.101-0.046 0.096-0.051 0.096-0.051 0.091-0.056 0.096-0.182 0.273-0.066 0.086-0.071 0.091-0.142 0.172-0.076 0.086-0.081 0.086-0.157 0.157-0.081 0.076-0.076 0.071-0.243 0.197-0.081 0.061-0.172 0.121-0.086 0.056-0.258 0.152-0.182 0.091-0.091 0.040 2.156 3.746h-0.451l-2.065-3.594-0.172 0.051-0.091 0.025-0.086 0.020-0.182 0.040-0.086 0.015-0.091 0.015-0.096 0.010-0.091 0.015-0.091 0.010-0.385 0.020h-4.211v3.371h-0.375v-12.355"></path>
<path fill="none" stroke="#0d0d0d" stroke-width="2.3531" stroke-miterlimit="4" stroke-linecap="round" stroke-linejoin="round" style="stroke: var(--color1, #0d0d0d)" d="M94.685 4.839h7.861v0.375h-3.746v11.981h-0.37v-11.981h-3.746v-0.375"></path>
<path fill="none" stroke="#0d0d0d" stroke-width="2.3531" stroke-miterlimit="4" stroke-linecap="round" stroke-linejoin="round" style="stroke: var(--color1, #0d0d0d)" d="M85.66 4.839h4.606l0.228 0.010 0.223 0.020 0.111 0.015 0.111 0.020 0.106 0.015 0.319 0.076 0.101 0.030 0.106 0.030 0.202 0.071 0.101 0.040 0.289 0.137 0.192 0.101 0.091 0.056 0.096 0.061 0.091 0.061 0.086 0.061 0.091 0.066 0.258 0.213 0.086 0.076 0.086 0.081 0.162 0.162 0.081 0.086 0.076 0.086 0.213 0.258 0.066 0.091 0.182 0.273 0.056 0.091 0.101 0.192 0.091 0.192 0.046 0.101 0.040 0.096 0.071 0.202 0.030 0.106 0.030 0.101 0.030 0.106 0.020 0.106 0.025 0.106 0.020 0.106 0.030 0.223 0.020 0.223 0.005 0.116 0.005 0.111v0.233l-0.005 0.111-0.005 0.116-0.020 0.223-0.015 0.111-0.015 0.106-0.020 0.106-0.025 0.111-0.020 0.106-0.030 0.101-0.030 0.106-0.030 0.101-0.071 0.202-0.040 0.101-0.046 0.096-0.046 0.101-0.046 0.096-0.051 0.096-0.051 0.091-0.056 0.096-0.182 0.273-0.066 0.086-0.071 0.091-0.142 0.172-0.076 0.086-0.081 0.086-0.157 0.157-0.081 0.076-0.076 0.071-0.243 0.197-0.081 0.061-0.172 0.121-0.086 0.056-0.258 0.152-0.182 0.091-0.091 0.040 2.156 3.746h-0.451l-2.065-3.594-0.172 0.051-0.091 0.025-0.086 0.020-0.182 0.040-0.086 0.015-0.091 0.015-0.096 0.010-0.091 0.015-0.091 0.010-0.385 0.020h-4.211v3.371h-0.375v-12.355"></path>
<path fill="none" stroke="#0d0d0d" stroke-width="2.3531" stroke-miterlimit="4" stroke-linecap="round" stroke-linejoin="round" style="stroke: var(--color1, #0d0d0d)" d="M77.738 4.839h0.481l5.765 12.355h-0.42l-0.941-2.025h-9.283l-0.947 2.025h-0.415l5.76-12.355"></path>
<path fill="none" stroke="#0d0d0d" stroke-width="3.7114" stroke-miterlimit="4" stroke-linecap="round" stroke-linejoin="round" style="stroke: var(--color1, #0d0d0d)" d="M20.090 21.082h82.197"></path>
</symbol>

<symbol id="logow" viewBox="0 0 124 32">
<path fill="#f2f2f2" style="fill: var(--color2, #f2f2f2)" d="M25.369 4.697h-0.162l-0.157 0.005-0.157 0.010-0.152 0.015-0.157 0.015-0.152 0.020-0.147 0.020-0.152 0.025-0.147 0.030-0.147 0.035-0.142 0.035-0.147 0.040-0.142 0.046-0.137 0.046-0.142 0.056-0.137 0.051-0.137 0.061-0.132 0.061-0.137 0.066-0.132 0.071-0.127 0.071-0.132 0.076-0.253 0.162-0.121 0.086-0.127 0.091-0.116 0.096-0.121 0.096-0.121 0.101-0.116 0.101-0.111 0.111-0.116 0.111-0.111 0.111-0.213 0.233-0.101 0.121-0.096 0.116-0.096 0.121-0.086 0.121-0.172 0.253-0.081 0.127-0.076 0.127-0.142 0.263-0.066 0.132-0.061 0.132-0.111 0.273-0.051 0.137-0.051 0.142-0.081 0.283-0.041 0.147-0.030 0.142-0.030 0.147-0.030 0.152-0.020 0.147-0.020 0.152-0.015 0.152-0.015 0.157-0.005 0.152-0.005 0.157-0.005 0.162 0.015 0.471 0.015 0.157 0.015 0.152 0.041 0.304 0.091 0.44 0.041 0.147 0.081 0.283 0.051 0.142 0.051 0.137 0.111 0.273 0.061 0.137 0.066 0.132 0.142 0.263 0.076 0.127 0.081 0.127 0.172 0.253 0.086 0.121 0.192 0.243 0.101 0.116 0.213 0.233 0.111 0.116 0.228 0.218 0.116 0.101 0.243 0.202 0.116 0.091 0.127 0.091 0.121 0.086 0.253 0.162 0.132 0.076 0.127 0.076 0.132 0.066 0.137 0.066 0.132 0.061 0.137 0.061 0.137 0.056 0.142 0.051 0.137 0.046 0.142 0.046 0.147 0.041 0.142 0.035 0.147 0.035 0.147 0.030 0.152 0.025 0.147 0.025 0.152 0.020 0.157 0.015 0.152 0.010 0.157 0.010 0.157 0.005h0.319l0.157-0.005 0.157-0.010 0.152-0.010 0.152-0.015 0.152-0.020 0.152-0.025 0.147-0.025 0.147-0.030 0.147-0.035 0.142-0.035 0.147-0.041 0.137-0.046 0.142-0.046 0.137-0.051 0.137-0.056 0.273-0.121 0.263-0.132 0.127-0.076 0.132-0.076 0.253-0.162 0.121-0.086 0.243-0.182 0.121-0.101 0.233-0.202 0.116-0.106 0.116-0.111 0.111-0.116 0.213-0.233 0.096-0.116 0.101-0.121 0.182-0.243 0.172-0.253 0.152-0.253 0.076-0.132 0.132-0.263 0.066-0.137 0.111-0.273 0.051-0.137 0.091-0.283 0.041-0.142 0.041-0.147 0.061-0.294 0.025-0.147 0.025-0.152 0.020-0.152 0.015-0.152 0.020-0.314 0.010-0.314-0.005-0.162-0.005-0.157-0.010-0.152-0.010-0.157-0.015-0.152-0.020-0.152-0.025-0.147-0.025-0.152-0.030-0.147-0.030-0.142-0.041-0.147-0.041-0.142-0.091-0.283-0.051-0.137-0.111-0.273-0.197-0.395-0.076-0.132-0.152-0.253-0.172-0.253-0.182-0.243-0.101-0.116-0.096-0.121-0.213-0.233-0.111-0.111-0.233-0.223-0.233-0.202-0.243-0.192-0.121-0.091-0.121-0.086-0.253-0.162-0.132-0.076-0.127-0.071-0.132-0.071-0.132-0.066-0.273-0.121-0.137-0.051-0.137-0.056-0.142-0.046-0.137-0.046-0.147-0.040-0.142-0.035-0.147-0.035-0.147-0.030-0.147-0.025-0.304-0.040-0.304-0.030-0.157-0.010-0.157-0.005h-0.157zM25.369 4.323h0.167l0.167 0.010 0.167 0.005 0.324 0.030 0.162 0.020 0.162 0.025 0.314 0.061 0.152 0.035 0.304 0.081 0.152 0.051 0.294 0.101 0.147 0.061 0.142 0.061 0.147 0.066 0.137 0.071 0.142 0.071 0.137 0.076 0.137 0.081 0.132 0.086 0.137 0.086 0.132 0.091 0.127 0.096 0.132 0.101 0.127 0.101 0.121 0.106 0.127 0.111 0.121 0.111 0.121 0.121 0.233 0.243 0.106 0.121 0.111 0.127 0.101 0.127 0.096 0.127 0.096 0.132 0.182 0.263 0.086 0.137 0.076 0.137 0.081 0.137 0.071 0.137 0.071 0.142 0.066 0.142 0.061 0.142 0.111 0.294 0.051 0.152 0.046 0.147 0.046 0.152 0.041 0.152 0.035 0.157 0.030 0.157 0.051 0.314 0.041 0.324 0.010 0.167 0.010 0.162 0.005 0.167 0.005 0.172-0.010 0.334-0.020 0.334-0.041 0.324-0.025 0.162-0.025 0.157-0.030 0.157-0.035 0.157-0.041 0.152-0.091 0.304-0.051 0.147-0.111 0.294-0.061 0.147-0.066 0.142-0.071 0.142-0.071 0.137-0.081 0.142-0.076 0.132-0.086 0.137-0.182 0.263-0.192 0.263-0.101 0.127-0.111 0.121-0.106 0.127-0.233 0.243-0.243 0.233-0.127 0.106-0.121 0.106-0.127 0.106-0.132 0.096-0.127 0.096-0.132 0.091-0.137 0.091-0.132 0.081-0.137 0.081-0.137 0.076-0.142 0.076-0.137 0.066-0.147 0.066-0.142 0.066-0.294 0.111-0.147 0.051-0.304 0.091-0.304 0.071-0.157 0.035-0.157 0.025-0.162 0.025-0.162 0.020-0.324 0.030-0.167 0.010-0.167 0.005h-0.339l-0.167-0.005-0.167-0.010-0.162-0.015-0.167-0.015-0.157-0.020-0.162-0.025-0.157-0.025-0.314-0.071-0.152-0.035-0.304-0.091-0.152-0.051-0.294-0.111-0.425-0.197-0.142-0.076-0.137-0.076-0.273-0.162-0.263-0.182-0.132-0.096-0.127-0.096-0.253-0.213-0.121-0.106-0.243-0.233-0.121-0.121-0.111-0.121-0.111-0.127-0.106-0.121-0.101-0.127-0.101-0.132-0.096-0.132-0.091-0.132-0.086-0.132-0.086-0.137-0.081-0.132-0.076-0.142-0.071-0.137-0.071-0.142-0.066-0.142-0.121-0.294-0.101-0.294-0.091-0.304-0.041-0.152-0.035-0.157-0.061-0.314-0.061-0.486-0.020-0.334-0.010-0.334 0.005-0.172 0.005-0.167 0.010-0.162 0.010-0.167 0.041-0.324 0.020-0.157 0.061-0.314 0.035-0.157 0.041-0.152 0.046-0.152 0.046-0.147 0.051-0.152 0.051-0.147 0.061-0.147 0.061-0.142 0.066-0.142 0.071-0.142 0.071-0.137 0.076-0.137 0.081-0.137 0.086-0.137 0.086-0.132 0.091-0.132 0.096-0.132 0.202-0.253 0.106-0.127 0.223-0.243 0.243-0.243 0.243-0.223 0.127-0.106 0.253-0.202 0.132-0.096 0.132-0.091 0.132-0.086 0.137-0.086 0.137-0.081 0.137-0.076 0.283-0.142 0.142-0.066 0.142-0.061 0.147-0.061 0.147-0.051 0.304-0.101 0.304-0.081 0.157-0.035 0.314-0.061 0.162-0.025 0.157-0.020 0.167-0.015 0.162-0.015 0.167-0.005 0.167-0.010h0.172z"></path>
<path fill="none" stroke="#f2f2f2" stroke-width="2.3531" stroke-miterlimit="4" stroke-linecap="round" stroke-linejoin="round" style="stroke: var(--color2, #f2f2f2)" d="M25.369 4.697h-0.162l-0.157 0.005-0.157 0.010-0.152 0.015-0.157 0.015-0.152 0.020-0.147 0.020-0.152 0.025-0.147 0.030-0.147 0.035-0.142 0.035-0.147 0.040-0.142 0.046-0.137 0.046-0.142 0.056-0.137 0.051-0.137 0.061-0.132 0.061-0.137 0.066-0.132 0.071-0.127 0.071-0.132 0.076-0.253 0.162-0.121 0.086-0.127 0.091-0.116 0.096-0.121 0.096-0.121 0.101-0.116 0.101-0.111 0.111-0.116 0.111-0.111 0.111-0.213 0.233-0.101 0.121-0.096 0.116-0.096 0.121-0.086 0.121-0.172 0.253-0.081 0.127-0.076 0.127-0.142 0.263-0.066 0.132-0.061 0.132-0.111 0.273-0.051 0.137-0.051 0.142-0.081 0.283-0.041 0.147-0.030 0.142-0.030 0.147-0.030 0.152-0.020 0.147-0.020 0.152-0.015 0.152-0.015 0.157-0.005 0.152-0.005 0.157-0.005 0.162 0.015 0.471 0.015 0.157 0.015 0.152 0.041 0.304 0.091 0.44 0.041 0.147 0.081 0.283 0.051 0.142 0.051 0.137 0.111 0.273 0.061 0.137 0.066 0.132 0.142 0.263 0.076 0.127 0.081 0.127 0.172 0.253 0.086 0.121 0.192 0.243 0.101 0.116 0.213 0.233 0.111 0.116 0.228 0.218 0.116 0.101 0.243 0.202 0.116 0.091 0.127 0.091 0.121 0.086 0.253 0.162 0.132 0.076 0.127 0.076 0.132 0.066 0.137 0.066 0.132 0.061 0.137 0.061 0.137 0.056 0.142 0.051 0.137 0.046 0.142 0.046 0.147 0.041 0.142 0.035 0.147 0.035 0.147 0.030 0.152 0.025 0.147 0.025 0.152 0.020 0.157 0.015 0.152 0.010 0.157 0.010 0.157 0.005h0.319l0.157-0.005 0.157-0.010 0.152-0.010 0.152-0.015 0.152-0.020 0.152-0.025 0.147-0.025 0.147-0.030 0.147-0.035 0.142-0.035 0.147-0.041 0.137-0.046 0.142-0.046 0.137-0.051 0.137-0.056 0.273-0.121 0.263-0.132 0.127-0.076 0.132-0.076 0.253-0.162 0.121-0.086 0.243-0.182 0.121-0.101 0.233-0.202 0.116-0.106 0.116-0.111 0.111-0.116 0.213-0.233 0.096-0.116 0.101-0.121 0.182-0.243 0.172-0.253 0.152-0.253 0.076-0.132 0.132-0.263 0.066-0.137 0.111-0.273 0.051-0.137 0.091-0.283 0.041-0.142 0.041-0.147 0.061-0.294 0.025-0.147 0.025-0.152 0.020-0.152 0.015-0.152 0.020-0.314 0.010-0.314-0.005-0.162-0.005-0.157-0.010-0.152-0.010-0.157-0.015-0.152-0.020-0.152-0.025-0.147-0.025-0.152-0.030-0.147-0.030-0.142-0.041-0.147-0.041-0.142-0.091-0.283-0.051-0.137-0.111-0.273-0.197-0.395-0.076-0.132-0.152-0.253-0.172-0.253-0.182-0.243-0.101-0.116-0.096-0.121-0.213-0.233-0.111-0.111-0.233-0.223-0.233-0.202-0.243-0.192-0.121-0.091-0.121-0.086-0.253-0.162-0.132-0.076-0.127-0.071-0.132-0.071-0.132-0.066-0.273-0.121-0.137-0.051-0.137-0.056-0.142-0.046-0.137-0.046-0.147-0.040-0.142-0.035-0.147-0.035-0.147-0.030-0.147-0.025-0.304-0.040-0.304-0.030-0.157-0.010-0.157-0.005h-0.157"></path>
<path fill="none" stroke="#f2f2f2" stroke-width="2.3531" stroke-miterlimit="4" stroke-linecap="round" stroke-linejoin="round" style="stroke: var(--color2, #f2f2f2)" d="M25.369 4.323h0.167l0.167 0.010 0.167 0.005 0.324 0.030 0.162 0.020 0.162 0.025 0.314 0.061 0.152 0.035 0.304 0.081 0.152 0.051 0.294 0.101 0.147 0.061 0.142 0.061 0.147 0.066 0.137 0.071 0.142 0.071 0.137 0.076 0.137 0.081 0.132 0.086 0.137 0.086 0.132 0.091 0.127 0.096 0.132 0.101 0.127 0.101 0.121 0.106 0.127 0.111 0.121 0.111 0.121 0.121 0.233 0.243 0.106 0.121 0.111 0.127 0.101 0.127 0.096 0.127 0.096 0.132 0.182 0.263 0.086 0.137 0.076 0.137 0.081 0.137 0.071 0.137 0.071 0.142 0.066 0.142 0.061 0.142 0.111 0.294 0.051 0.152 0.046 0.147 0.046 0.152 0.041 0.152 0.035 0.157 0.030 0.157 0.051 0.314 0.041 0.324 0.010 0.167 0.010 0.162 0.005 0.167 0.005 0.172-0.010 0.334-0.020 0.334-0.041 0.324-0.025 0.162-0.025 0.157-0.030 0.157-0.035 0.157-0.041 0.152-0.091 0.304-0.051 0.147-0.111 0.294-0.061 0.147-0.066 0.142-0.071 0.142-0.071 0.137-0.081 0.142-0.076 0.132-0.086 0.137-0.182 0.263-0.192 0.263-0.101 0.127-0.111 0.121-0.106 0.127-0.233 0.243-0.243 0.233-0.127 0.106-0.121 0.106-0.127 0.106-0.132 0.096-0.127 0.096-0.132 0.091-0.137 0.091-0.132 0.081-0.137 0.081-0.137 0.076-0.142 0.076-0.137 0.066-0.147 0.066-0.142 0.066-0.294 0.111-0.147 0.051-0.304 0.091-0.304 0.071-0.157 0.035-0.157 0.025-0.162 0.025-0.162 0.020-0.324 0.030-0.167 0.010-0.167 0.005h-0.339l-0.167-0.005-0.167-0.010-0.162-0.015-0.167-0.015-0.157-0.020-0.162-0.025-0.157-0.025-0.314-0.071-0.152-0.035-0.304-0.091-0.152-0.051-0.294-0.111-0.425-0.197-0.142-0.076-0.137-0.076-0.273-0.162-0.263-0.182-0.132-0.096-0.127-0.096-0.253-0.213-0.121-0.106-0.243-0.233-0.121-0.121-0.111-0.121-0.111-0.127-0.106-0.121-0.101-0.127-0.101-0.132-0.096-0.132-0.091-0.132-0.086-0.132-0.086-0.137-0.081-0.132-0.076-0.142-0.071-0.137-0.071-0.142-0.066-0.142-0.121-0.294-0.101-0.294-0.091-0.304-0.041-0.152-0.035-0.157-0.061-0.314-0.061-0.486-0.020-0.334-0.010-0.334 0.005-0.172 0.005-0.167 0.010-0.162 0.010-0.167 0.041-0.324 0.020-0.157 0.061-0.314 0.035-0.157 0.041-0.152 0.046-0.152 0.046-0.147 0.051-0.152 0.051-0.147 0.061-0.147 0.061-0.142 0.066-0.142 0.071-0.142 0.071-0.137 0.076-0.137 0.081-0.137 0.086-0.137 0.086-0.132 0.091-0.132 0.096-0.132 0.202-0.253 0.106-0.127 0.223-0.243 0.243-0.243 0.243-0.223 0.127-0.106 0.253-0.202 0.132-0.096 0.132-0.091 0.132-0.086 0.137-0.086 0.137-0.081 0.137-0.076 0.283-0.142 0.142-0.066 0.142-0.061 0.147-0.061 0.147-0.051 0.304-0.101 0.304-0.081 0.157-0.035 0.314-0.061 0.162-0.025 0.157-0.020 0.167-0.015 0.162-0.015 0.167-0.005 0.167-0.010h0.172"></path>
<path fill="#f2f2f2" style="fill: var(--color2, #f2f2f2)" d="M45.247 4.697h7.861v0.375h-3.746v11.981h-0.375v-11.981h-3.741v-0.375zM34.157 4.697h0.481l8.595 11.844v-11.844h0.375v12.355h-0.481l-8.595-11.844v11.844h-0.375v-12.355z"></path>
<path fill="none" stroke="#f2f2f2" stroke-width="2.3531" stroke-miterlimit="4" stroke-linecap="round" stroke-linejoin="round" style="stroke: var(--color2, #f2f2f2)" d="M45.247 4.697h7.861v0.375h-3.746v11.981h-0.375v-11.981h-3.741v-0.375zM34.157 4.697h0.481l8.595 11.844v-11.844h0.375v12.355h-0.481l-8.595-11.844v11.844h-0.375v-12.355z"></path>
<path fill="none" stroke="#f2f2f2" stroke-width="3.7114" stroke-miterlimit="4" stroke-linecap="round" stroke-linejoin="round" style="stroke: var(--color2, #f2f2f2)" d="M19.705 0.511h82.197"></path>
<path fill="#f2f2f2" style="fill: var(--color2, #f2f2f2)" d="M44.26 27.201l-1.088 2.576h2.131l-1.043-2.576zM56.737 26.837h-0.076l-0.071 0.005-0.142 0.020-0.066 0.015-0.071 0.020-0.066 0.020-0.066 0.030-0.061 0.025-0.061 0.035-0.066 0.035-0.056 0.041-0.061 0.041-0.056 0.051-0.056 0.046-0.051 0.056-0.056 0.056-0.046 0.056-0.091 0.121-0.071 0.121-0.035 0.066-0.051 0.132-0.041 0.142-0.015 0.071-0.010 0.071-0.010 0.076-0.005 0.076v0.177l0.010 0.101 0.005 0.046 0.010 0.051 0.020 0.091 0.015 0.051 0.046 0.137 0.041 0.091 0.020 0.041 0.025 0.046 0.051 0.086 0.056 0.081 0.061 0.071 0.066 0.071 0.066 0.066 0.071 0.061 0.076 0.056 0.086 0.051 0.081 0.041 0.046 0.020 0.041 0.020 0.182 0.061 0.091 0.020 0.046 0.005 0.046 0.010 0.051 0.005h0.051l0.046 0.005h0.101l0.046-0.005h0.051l0.051-0.005 0.046-0.010 0.046-0.005 0.091-0.020 0.182-0.061 0.081-0.041 0.046-0.020 0.041-0.020 0.081-0.051 0.076-0.056 0.076-0.061 0.066-0.066 0.066-0.071 0.061-0.071 0.056-0.081 0.051-0.086 0.020-0.046 0.025-0.041 0.041-0.091 0.046-0.137 0.015-0.051 0.020-0.091 0.005-0.051 0.010-0.046 0.005-0.051v-0.051l0.005-0.051v-0.127l-0.005-0.076-0.010-0.076-0.010-0.071-0.015-0.071-0.041-0.142-0.025-0.066-0.061-0.132-0.035-0.061-0.081-0.121-0.046-0.061-0.101-0.111-0.056-0.056-0.056-0.046-0.056-0.051-0.056-0.041-0.061-0.041-0.121-0.071-0.066-0.025-0.066-0.030-0.132-0.041-0.066-0.015-0.142-0.020-0.071-0.005h-0.076zM61.485 26.832h-0.076l-0.076 0.005-0.076 0.010-0.071 0.010-0.071 0.015-0.071 0.020-0.066 0.020-0.066 0.025-0.066 0.030-0.061 0.030-0.061 0.035-0.121 0.081-0.056 0.046-0.056 0.051-0.106 0.106-0.046 0.056-0.046 0.061-0.041 0.056-0.041 0.066-0.035 0.061-0.030 0.066-0.051 0.132-0.025 0.071-0.015 0.071-0.030 0.152-0.010 0.152v0.187l0.015 0.152 0.010 0.051 0.010 0.046 0.010 0.051 0.010 0.046 0.030 0.091 0.020 0.046 0.015 0.046 0.020 0.046 0.020 0.041 0.025 0.046 0.051 0.081 0.056 0.076 0.030 0.041 0.061 0.071 0.066 0.066 0.035 0.030 0.041 0.030 0.035 0.030 0.041 0.030 0.041 0.025 0.041 0.030 0.046 0.025 0.046 0.020 0.046 0.025 0.041 0.020 0.046 0.020 0.091 0.030 0.051 0.015 0.046 0.015 0.091 0.020 0.051 0.010 0.046 0.005 0.051 0.005 0.046 0.005h0.051l0.051 0.005 0.046-0.005h0.046l0.051-0.005 0.091-0.010 0.137-0.030 0.137-0.046 0.046-0.020 0.041-0.015 0.046-0.025 0.041-0.020 0.046-0.025 0.081-0.051 0.041-0.030 0.035-0.030 0.041-0.030 0.035-0.030 0.071-0.066 0.066-0.071 0.061-0.081 0.056-0.081 0.056-0.086 0.020-0.046 0.025-0.046 0.041-0.091 0.015-0.046 0.020-0.046 0.015-0.046 0.010-0.051 0.015-0.046 0.010-0.046 0.005-0.051 0.010-0.046 0.005-0.051v-0.046l0.005-0.051v-0.096l-0.005-0.051v-0.046l-0.005-0.051-0.010-0.046-0.005-0.051-0.010-0.046-0.015-0.051-0.010-0.046-0.015-0.046-0.020-0.046-0.015-0.046-0.041-0.091-0.025-0.046-0.020-0.046-0.056-0.086-0.056-0.081-0.061-0.076-0.066-0.071-0.066-0.066-0.076-0.066-0.076-0.056-0.081-0.051-0.046-0.025-0.041-0.020-0.091-0.041-0.041-0.015-0.137-0.046-0.046-0.010-0.051-0.010-0.046-0.010-0.046-0.005-0.051-0.005-0.046-0.005h-0.101zM75.227 26.827h-0.066l-0.071 0.005-0.061 0.005-0.132 0.020-0.061 0.015-0.061 0.020-0.056 0.020-0.061 0.025-0.056 0.025-0.111 0.061-0.056 0.035-0.051 0.035-0.051 0.041-0.051 0.046-0.035 0.030-0.035 0.035-0.030 0.035-0.030 0.041-0.035 0.041-0.030 0.041-0.025 0.046-0.030 0.051-0.025 0.046-0.025 0.051-0.025 0.056-0.020 0.056-0.025 0.056-0.040 0.121-0.015 0.061h2.769l-0.051-0.182-0.035-0.081-0.030-0.081-0.035-0.071-0.040-0.071-0.040-0.066-0.046-0.056-0.046-0.061-0.051-0.051-0.056-0.051-0.121-0.091-0.066-0.046-0.071-0.035-0.152-0.071-0.076-0.030-0.076-0.020-0.081-0.020-0.081-0.015-0.076-0.015-0.086-0.005h-0.081zM48.648 26.827h-0.066l-0.071 0.005-0.061 0.005-0.132 0.020-0.061 0.015-0.061 0.020-0.056 0.020-0.061 0.025-0.056 0.025-0.111 0.061-0.056 0.035-0.051 0.035-0.051 0.041-0.051 0.046-0.035 0.030-0.035 0.035-0.030 0.035-0.030 0.041-0.035 0.041-0.030 0.041-0.025 0.046-0.030 0.051-0.025 0.046-0.025 0.051-0.025 0.056-0.020 0.056-0.025 0.056-0.041 0.121-0.015 0.061h2.769l-0.051-0.182-0.035-0.081-0.030-0.081-0.035-0.071-0.041-0.071-0.041-0.066-0.046-0.056-0.046-0.061-0.051-0.051-0.056-0.051-0.121-0.091-0.066-0.046-0.071-0.035-0.152-0.071-0.076-0.030-0.076-0.020-0.081-0.020-0.081-0.015-0.076-0.015-0.086-0.005h-0.081zM78.047 26.462h0.476v1.478h2.166v-1.478h0.476v3.72h-0.476v-1.792h-2.166v1.792h-0.476v-3.72zM70.399 26.462h2.45v0.415h-0.987v3.305h-0.476v-3.305h-0.987v-0.415zM51.468 26.462h0.476v1.569l1.726-1.569h0.663l-1.883 1.706 2.035 2.015h-0.678l-1.711-1.721-0.152 0.137v1.584h-0.476v-3.72zM44.143 26.462h0.248l1.427 3.315h0.45v0.881h-0.461v-0.476h-3.078v0.496h-0.471v-0.901h0.45l1.432-3.315zM75.222 26.366h0.061l0.056 0.005h0.061l0.111 0.010 0.056 0.010 0.051 0.010 0.111 0.020 0.152 0.046 0.051 0.020 0.051 0.015 0.046 0.020 0.051 0.025 0.046 0.020 0.091 0.051 0.046 0.030 0.046 0.025 0.040 0.030 0.046 0.035 0.040 0.030 0.121 0.106 0.040 0.041 0.035 0.041 0.040 0.041 0.071 0.091 0.051 0.061 0.046 0.071 0.040 0.066 0.040 0.071 0.035 0.076 0.035 0.071 0.030 0.076 0.051 0.162 0.020 0.081 0.046 0.258 0.005 0.091 0.010 0.091v0.096h-3.346l0.005 0.081 0.005 0.076 0.020 0.152 0.015 0.076 0.020 0.071 0.020 0.066 0.051 0.132 0.030 0.066 0.071 0.121 0.040 0.061 0.040 0.056 0.046 0.056 0.101 0.101 0.051 0.046 0.056 0.046 0.056 0.041 0.111 0.071 0.061 0.030 0.121 0.051 0.132 0.041 0.066 0.010 0.071 0.015 0.213 0.015 0.213-0.015 0.071-0.010 0.066-0.015 0.071-0.015 0.066-0.020 0.071-0.025 0.061-0.025 0.066-0.025 0.061-0.030 0.056-0.035 0.061-0.030 0.051-0.035 0.051-0.041 0.051-0.035 0.020-0.025 0.025-0.020 0.051-0.051 0.020-0.030 0.025-0.025 0.025-0.030 0.025-0.035 0.025-0.030 0.025-0.035 0.030-0.041 0.025-0.035 0.025-0.041 0.025-0.046 0.030-0.041 0.025-0.046 0.405 0.213-0.051 0.096-0.056 0.091-0.051 0.086-0.061 0.081-0.056 0.076-0.061 0.071-0.061 0.066-0.066 0.061-0.132 0.111-0.142 0.101-0.152 0.081-0.081 0.035-0.076 0.035-0.086 0.030-0.086 0.025-0.086 0.020-0.091 0.020-0.091 0.010-0.096 0.010-0.101 0.010h-0.213l-0.111-0.010-0.106-0.010-0.101-0.015-0.101-0.025-0.096-0.025-0.091-0.030-0.091-0.035-0.086-0.035-0.086-0.046-0.081-0.051-0.076-0.051-0.076-0.061-0.071-0.061-0.071-0.071-0.066-0.071-0.121-0.152-0.051-0.076-0.051-0.081-0.091-0.162-0.035-0.081-0.035-0.086-0.030-0.081-0.025-0.086-0.025-0.091-0.015-0.086-0.015-0.091-0.010-0.091-0.005-0.091v-0.182l0.005-0.086 0.010-0.086 0.010-0.081 0.015-0.086 0.040-0.162 0.025-0.076 0.030-0.081 0.030-0.076 0.035-0.076 0.040-0.076 0.040-0.071 0.046-0.076 0.051-0.071 0.056-0.066 0.030-0.046 0.035-0.041 0.040-0.041 0.071-0.081 0.081-0.071 0.035-0.035 0.046-0.030 0.081-0.061 0.040-0.025 0.046-0.030 0.091-0.051 0.137-0.061 0.051-0.020 0.046-0.015 0.152-0.046 0.051-0.010 0.056-0.010 0.051-0.010 0.056-0.010 0.051-0.005 0.056-0.005h0.056l0.061-0.005h0.056zM68.197 26.366h0.091l0.091 0.005 0.086 0.010 0.182 0.030 0.172 0.041 0.086 0.030 0.086 0.025 0.081 0.035 0.076 0.030 0.076 0.035 0.071 0.041 0.066 0.035 0.066 0.046 0.121 0.091 0.111 0.101 0.051 0.056 0.051 0.061 0.046 0.061 0.046 0.066 0.046 0.071-0.38 0.238-0.035-0.041-0.061-0.081-0.035-0.035-0.030-0.035-0.035-0.030-0.035-0.035-0.035-0.030-0.040-0.030-0.035-0.030-0.035-0.025-0.121-0.076-0.081-0.041-0.046-0.020-0.040-0.020-0.046-0.015-0.040-0.015-0.091-0.030-0.051-0.010-0.091-0.020-0.051-0.010-0.202-0.020h-0.187l-0.081 0.005-0.162 0.020-0.076 0.015-0.076 0.020-0.071 0.020-0.071 0.025-0.142 0.061-0.066 0.035-0.061 0.041-0.066 0.041-0.061 0.046-0.056 0.051-0.111 0.111-0.101 0.111-0.081 0.121-0.035 0.066-0.035 0.061-0.030 0.066-0.025 0.071-0.025 0.066-0.046 0.213-0.010 0.076-0.005 0.076v0.132l0.005 0.046v0.051l0.010 0.051 0.005 0.051 0.010 0.046 0.010 0.051 0.010 0.046 0.015 0.051 0.030 0.091 0.020 0.051 0.040 0.091 0.051 0.091 0.025 0.041 0.025 0.046 0.091 0.121 0.035 0.035 0.030 0.041 0.035 0.035 0.035 0.030 0.035 0.035 0.081 0.061 0.081 0.056 0.091 0.056 0.091 0.046 0.091 0.041 0.051 0.015 0.046 0.015 0.101 0.030 0.101 0.020 0.056 0.010 0.051 0.005 0.056 0.005 0.051 0.005h0.056l0.056 0.005 0.051-0.005h0.051l0.051-0.005h0.051l0.046-0.010 0.051-0.005 0.182-0.041 0.137-0.046 0.040-0.015 0.046-0.020 0.121-0.061 0.162-0.101 0.071-0.061 0.040-0.030 0.035-0.035 0.035-0.030 0.071-0.071 0.030-0.041 0.035-0.041 0.035-0.035 0.38 0.248-0.035 0.051-0.035 0.046-0.035 0.051-0.040 0.046-0.040 0.041-0.040 0.046-0.040 0.041-0.046 0.041-0.091 0.071-0.101 0.071-0.051 0.030-0.051 0.035-0.056 0.025-0.056 0.030-0.056 0.025-0.061 0.025-0.056 0.025-0.182 0.061-0.061 0.015-0.066 0.015-0.066 0.010-0.061 0.015-0.071 0.010-0.132 0.010-0.142 0.010h-0.182l-0.106-0.010-0.101-0.010-0.106-0.015-0.096-0.020-0.192-0.051-0.182-0.071-0.091-0.041-0.086-0.046-0.081-0.051-0.081-0.056-0.076-0.061-0.152-0.132-0.071-0.071-0.066-0.071-0.061-0.076-0.056-0.076-0.056-0.081-0.091-0.162-0.071-0.172-0.030-0.086-0.025-0.091-0.020-0.091-0.015-0.096-0.020-0.192v-0.167l0.015-0.197 0.010-0.066 0.015-0.061 0.010-0.066 0.015-0.061 0.020-0.066 0.040-0.121 0.051-0.121 0.030-0.056 0.030-0.061 0.035-0.056 0.030-0.061 0.040-0.056 0.035-0.051 0.040-0.056 0.040-0.051 0.046-0.046 0.040-0.051 0.046-0.046 0.051-0.046 0.046-0.041 0.051-0.041 0.056-0.041 0.051-0.041 0.111-0.071 0.061-0.030 0.061-0.035 0.061-0.025 0.061-0.030 0.066-0.025 0.061-0.020 0.066-0.025 0.066-0.020 0.197-0.046 0.142-0.020 0.213-0.015h0.076zM61.525 26.366h0.096l0.192 0.020 0.091 0.015 0.091 0.020 0.091 0.025 0.172 0.061 0.086 0.041 0.081 0.041 0.081 0.051 0.076 0.051 0.076 0.056 0.076 0.061 0.071 0.061 0.076 0.071 0.066 0.071 0.066 0.076 0.111 0.152 0.101 0.162 0.041 0.081 0.071 0.172 0.051 0.182 0.020 0.091 0.015 0.096 0.010 0.091 0.010 0.101v0.202l-0.010 0.096-0.010 0.101-0.015 0.091-0.020 0.096-0.051 0.182-0.071 0.172-0.041 0.086-0.046 0.081-0.051 0.081-0.056 0.076-0.121 0.152-0.066 0.076-0.071 0.066-0.076 0.066-0.071 0.061-0.076 0.056-0.162 0.101-0.162 0.081-0.172 0.061-0.091 0.025-0.086 0.020-0.096 0.015-0.091 0.010-0.096 0.010h-0.152l-0.056-0.005h-0.056l-0.051-0.005-0.056-0.010-0.051-0.005-0.051-0.010-0.056-0.010-0.051-0.015-0.051-0.010-0.046-0.015-0.051-0.020-0.051-0.015-0.046-0.020-0.051-0.020-0.046-0.020-0.091-0.051-0.046-0.030-0.046-0.025-0.041-0.030-0.046-0.030-0.041-0.030-0.046-0.035-0.081-0.071-0.121-0.121-0.035-0.041-0.041-0.046-0.035-0.041v1.999h-0.481v-5.082h0.481v0.683l0.035-0.046 0.035-0.051 0.035-0.041 0.035-0.046 0.081-0.081 0.035-0.041 0.041-0.035 0.046-0.035 0.041-0.035 0.041-0.030 0.046-0.035 0.041-0.030 0.182-0.101 0.051-0.020 0.046-0.025 0.051-0.015 0.046-0.020 0.101-0.030 0.051-0.010 0.056-0.015 0.051-0.010 0.051-0.005 0.056-0.010 0.056-0.005h0.056l0.056-0.005h0.056zM56.737 26.366l0.213 0.010 0.101 0.010 0.096 0.020 0.101 0.020 0.091 0.025 0.096 0.035 0.086 0.035 0.091 0.041 0.086 0.046 0.081 0.051 0.081 0.056 0.081 0.061 0.076 0.066 0.147 0.147 0.061 0.071 0.111 0.152 0.051 0.076 0.046 0.076 0.046 0.081 0.035 0.081 0.035 0.086 0.030 0.081 0.025 0.086 0.041 0.182 0.020 0.182 0.010 0.096v0.192l-0.010 0.091-0.010 0.096-0.030 0.182-0.025 0.091-0.025 0.086-0.035 0.086-0.035 0.081-0.041 0.086-0.041 0.081-0.051 0.081-0.111 0.152-0.061 0.076-0.066 0.076-0.071 0.071-0.071 0.066-0.071 0.061-0.076 0.056-0.162 0.101-0.172 0.081-0.086 0.035-0.091 0.030-0.096 0.025-0.091 0.020-0.101 0.015-0.202 0.020h-0.213l-0.202-0.020-0.101-0.015-0.091-0.020-0.096-0.025-0.091-0.030-0.086-0.035-0.172-0.081-0.162-0.101-0.076-0.056-0.071-0.061-0.071-0.066-0.071-0.071-0.066-0.076-0.061-0.076-0.111-0.152-0.051-0.081-0.041-0.081-0.041-0.086-0.041-0.081-0.030-0.086-0.025-0.086-0.025-0.091-0.020-0.091-0.015-0.091-0.010-0.096-0.005-0.091v-0.192l0.005-0.096 0.010-0.091 0.030-0.182 0.051-0.172 0.030-0.086 0.071-0.162 0.046-0.081 0.046-0.076 0.051-0.081 0.051-0.071 0.061-0.076 0.061-0.071 0.071-0.076 0.076-0.071 0.076-0.066 0.081-0.061 0.081-0.056 0.081-0.051 0.086-0.051 0.086-0.041 0.091-0.035 0.096-0.030 0.091-0.030 0.101-0.020 0.096-0.020 0.101-0.010 0.213-0.010zM48.643 26.366h0.061l0.056 0.005h0.061l0.111 0.010 0.056 0.010 0.051 0.010 0.111 0.020 0.152 0.046 0.051 0.020 0.051 0.015 0.046 0.020 0.051 0.025 0.046 0.020 0.091 0.051 0.046 0.030 0.046 0.025 0.041 0.030 0.046 0.035 0.041 0.030 0.121 0.106 0.041 0.041 0.035 0.041 0.041 0.041 0.071 0.091 0.051 0.061 0.046 0.071 0.041 0.066 0.041 0.071 0.035 0.076 0.035 0.071 0.030 0.076 0.051 0.162 0.020 0.081 0.046 0.258 0.005 0.091 0.010 0.091v0.096h-3.346l0.005 0.081 0.005 0.076 0.020 0.152 0.015 0.076 0.020 0.071 0.020 0.066 0.051 0.132 0.030 0.066 0.071 0.121 0.041 0.061 0.041 0.056 0.046 0.056 0.101 0.101 0.051 0.046 0.056 0.046 0.056 0.041 0.111 0.071 0.061 0.030 0.121 0.051 0.132 0.041 0.066 0.010 0.071 0.015 0.213 0.015 0.213-0.015 0.071-0.010 0.066-0.015 0.071-0.015 0.066-0.020 0.071-0.025 0.061-0.025 0.066-0.025 0.061-0.030 0.056-0.035 0.061-0.030 0.051-0.035 0.051-0.041 0.051-0.035 0.020-0.025 0.025-0.020 0.051-0.051 0.020-0.030 0.025-0.025 0.025-0.030 0.025-0.035 0.025-0.030 0.025-0.035 0.030-0.041 0.025-0.035 0.025-0.041 0.025-0.046 0.030-0.041 0.025-0.046 0.405 0.213-0.051 0.096-0.056 0.091-0.051 0.086-0.061 0.081-0.056 0.076-0.061 0.071-0.061 0.066-0.066 0.061-0.132 0.111-0.142 0.101-0.152 0.081-0.081 0.035-0.076 0.035-0.086 0.030-0.086 0.025-0.086 0.020-0.091 0.020-0.091 0.010-0.096 0.010-0.101 0.010h-0.213l-0.111-0.010-0.106-0.010-0.101-0.015-0.101-0.025-0.096-0.025-0.091-0.030-0.091-0.035-0.086-0.035-0.086-0.046-0.081-0.051-0.076-0.051-0.076-0.061-0.071-0.061-0.071-0.071-0.066-0.071-0.121-0.152-0.051-0.076-0.051-0.081-0.091-0.162-0.035-0.081-0.035-0.086-0.030-0.081-0.025-0.086-0.025-0.091-0.015-0.086-0.015-0.091-0.010-0.091-0.005-0.091v-0.182l0.005-0.086 0.010-0.086 0.010-0.081 0.015-0.086 0.041-0.162 0.025-0.076 0.030-0.081 0.030-0.076 0.035-0.076 0.041-0.076 0.041-0.071 0.046-0.076 0.051-0.071 0.056-0.066 0.030-0.046 0.035-0.041 0.041-0.041 0.071-0.081 0.081-0.071 0.035-0.035 0.046-0.030 0.081-0.061 0.041-0.025 0.046-0.030 0.091-0.051 0.137-0.061 0.051-0.020 0.046-0.015 0.152-0.046 0.051-0.010 0.056-0.010 0.051-0.010 0.056-0.010 0.051-0.005 0.056-0.005h0.056l0.061-0.005h0.056z"></path>
<path fill="none" stroke="#f2f2f2" stroke-width="3.7114" stroke-miterlimit="4" stroke-linecap="round" stroke-linejoin="round" style="stroke: var(--color2, #f2f2f2)" d="M0.506 17.093l6.352-12.381 2.445 4.885"></path>
<path fill="none" stroke="#f2f2f2" stroke-width="3.7114" stroke-miterlimit="4" stroke-linecap="round" stroke-linejoin="round" style="stroke: var(--color2, #f2f2f2)" d="M7.679 12.695l4.399-7.982 6.023 12.214"></path>
<path fill="none" stroke="#f2f2f2" stroke-width="3.7114" stroke-miterlimit="4" stroke-linecap="round" stroke-linejoin="round" style="stroke: var(--color2, #f2f2f2)" d="M52.338 16.931l6.358-12.381 2.44 4.885"></path>
<path fill="none" stroke="#f2f2f2" stroke-width="3.7114" stroke-miterlimit="4" stroke-linecap="round" stroke-linejoin="round" style="stroke: var(--color2, #f2f2f2)" d="M59.511 12.533l4.399-7.982 6.029 12.214"></path>
<path fill="#f2f2f2" style="fill: var(--color2, #f2f2f2)" d="M77.981 5.229l-4.464 9.567h8.924l-4.459-9.567zM104.418 5.213v8.235h4.221l0.106-0.005 0.101-0.005 0.106-0.010 0.202-0.020 0.101-0.015 0.101-0.020 0.192-0.040 0.192-0.051 0.096-0.030 0.091-0.030 0.096-0.035 0.091-0.035 0.091-0.040 0.086-0.040 0.091-0.046 0.172-0.091 0.086-0.051 0.172-0.111 0.081-0.056 0.162-0.121 0.081-0.066 0.076-0.066 0.081-0.071 0.076-0.071 0.152-0.152 0.071-0.076 0.066-0.081 0.071-0.076 0.061-0.081 0.066-0.081 0.056-0.081 0.061-0.081 0.056-0.086 0.152-0.258 0.046-0.086 0.040-0.091 0.046-0.086 0.106-0.273 0.035-0.096 0.025-0.096 0.030-0.091 0.025-0.096 0.020-0.101 0.020-0.096 0.020-0.101 0.015-0.096 0.020-0.202 0.010-0.106 0.005-0.101 0.005-0.106v-0.213l-0.005-0.106-0.005-0.101-0.010-0.106-0.020-0.202-0.015-0.101-0.020-0.101-0.040-0.192-0.025-0.096-0.030-0.096-0.025-0.096-0.035-0.091-0.035-0.096-0.071-0.182-0.046-0.086-0.040-0.091-0.046-0.086-0.152-0.258-0.056-0.086-0.061-0.081-0.056-0.081-0.066-0.081-0.061-0.081-0.071-0.076-0.066-0.081-0.071-0.076-0.152-0.152-0.076-0.071-0.081-0.066-0.076-0.071-0.081-0.061-0.081-0.066-0.081-0.056-0.081-0.061-0.086-0.056-0.258-0.152-0.086-0.046-0.091-0.040-0.086-0.046-0.182-0.071-0.096-0.035-0.091-0.035-0.096-0.025-0.096-0.030-0.096-0.025-0.192-0.040-0.101-0.020-0.101-0.015-0.202-0.020-0.106-0.010-0.101-0.005-0.106-0.005h-4.221zM86.034 5.213v8.235h4.221l0.106-0.005 0.101-0.005 0.106-0.010 0.202-0.020 0.101-0.015 0.101-0.020 0.192-0.040 0.192-0.051 0.096-0.030 0.091-0.030 0.096-0.035 0.091-0.035 0.091-0.040 0.086-0.040 0.091-0.046 0.172-0.091 0.086-0.051 0.172-0.111 0.081-0.056 0.162-0.121 0.081-0.066 0.076-0.066 0.081-0.071 0.076-0.071 0.152-0.152 0.071-0.076 0.066-0.081 0.071-0.076 0.061-0.081 0.066-0.081 0.056-0.081 0.061-0.081 0.056-0.086 0.152-0.258 0.046-0.086 0.040-0.091 0.046-0.086 0.106-0.273 0.035-0.096 0.025-0.096 0.030-0.091 0.025-0.096 0.020-0.101 0.020-0.096 0.020-0.101 0.015-0.096 0.020-0.202 0.010-0.106 0.005-0.101 0.005-0.106v-0.213l-0.005-0.106-0.005-0.101-0.010-0.106-0.020-0.202-0.015-0.101-0.020-0.101-0.040-0.192-0.025-0.096-0.030-0.096-0.025-0.096-0.035-0.091-0.035-0.096-0.071-0.182-0.046-0.086-0.040-0.091-0.046-0.086-0.152-0.258-0.056-0.086-0.061-0.081-0.056-0.081-0.066-0.081-0.061-0.081-0.071-0.076-0.066-0.081-0.071-0.076-0.152-0.152-0.076-0.071-0.081-0.066-0.076-0.071-0.081-0.061-0.081-0.066-0.081-0.056-0.081-0.061-0.086-0.056-0.258-0.152-0.086-0.046-0.091-0.040-0.086-0.046-0.182-0.071-0.096-0.035-0.091-0.035-0.096-0.025-0.096-0.030-0.096-0.025-0.192-0.040-0.101-0.020-0.101-0.015-0.202-0.020-0.106-0.010-0.101-0.005-0.106-0.005h-4.221zM115.645 4.839h7.112v0.375h-6.737v5.613h5.239v0.375h-5.239v5.618h6.737v0.375h-7.112v-12.355zM104.044 4.839h4.606l0.228 0.010 0.223 0.020 0.111 0.015 0.111 0.020 0.106 0.015 0.319 0.076 0.101 0.030 0.106 0.030 0.202 0.071 0.101 0.040 0.289 0.137 0.192 0.101 0.091 0.056 0.096 0.061 0.091 0.061 0.086 0.061 0.091 0.066 0.258 0.213 0.086 0.076 0.086 0.081 0.162 0.162 0.081 0.086 0.076 0.086 0.213 0.258 0.066 0.091 0.182 0.273 0.056 0.091 0.101 0.192 0.091 0.192 0.046 0.101 0.040 0.096 0.071 0.202 0.030 0.106 0.030 0.101 0.030 0.106 0.020 0.106 0.025 0.106 0.020 0.106 0.030 0.223 0.020 0.223 0.005 0.116 0.005 0.111v0.233l-0.005 0.111-0.005 0.116-0.020 0.223-0.015 0.111-0.015 0.106-0.020 0.106-0.025 0.111-0.020 0.106-0.030 0.101-0.030 0.106-0.030 0.101-0.071 0.202-0.040 0.101-0.046 0.096-0.046 0.101-0.046 0.096-0.051 0.096-0.051 0.091-0.056 0.096-0.182 0.273-0.066 0.086-0.071 0.091-0.142 0.172-0.076 0.086-0.081 0.086-0.157 0.157-0.081 0.076-0.076 0.071-0.243 0.197-0.081 0.061-0.172 0.121-0.086 0.056-0.258 0.152-0.182 0.091-0.091 0.040 2.156 3.746h-0.451l-2.065-3.594-0.172 0.051-0.091 0.025-0.086 0.020-0.182 0.040-0.086 0.015-0.091 0.015-0.096 0.010-0.091 0.015-0.091 0.010-0.385 0.020h-4.211v3.371h-0.375v-12.355zM94.685 4.839h7.861v0.375h-3.746v11.981h-0.37v-11.981h-3.746v-0.375zM85.66 4.839h4.606l0.228 0.010 0.223 0.020 0.111 0.015 0.111 0.020 0.106 0.015 0.319 0.076 0.101 0.030 0.106 0.030 0.202 0.071 0.101 0.040 0.289 0.137 0.192 0.101 0.091 0.056 0.096 0.061 0.091 0.061 0.086 0.061 0.091 0.066 0.258 0.213 0.086 0.076 0.086 0.081 0.162 0.162 0.081 0.086 0.076 0.086 0.213 0.258 0.066 0.091 0.182 0.273 0.056 0.091 0.101 0.192 0.091 0.192 0.046 0.101 0.040 0.096 0.071 0.202 0.030 0.106 0.030 0.101 0.030 0.106 0.020 0.106 0.025 0.106 0.020 0.106 0.030 0.223 0.020 0.223 0.005 0.116 0.005 0.111v0.233l-0.005 0.111-0.005 0.116-0.020 0.223-0.015 0.111-0.015 0.106-0.020 0.106-0.025 0.111-0.020 0.106-0.030 0.101-0.030 0.106-0.030 0.101-0.071 0.202-0.040 0.101-0.046 0.096-0.046 0.101-0.046 0.096-0.051 0.096-0.051 0.091-0.056 0.096-0.182 0.273-0.066 0.086-0.071 0.091-0.142 0.172-0.076 0.086-0.081 0.086-0.157 0.157-0.081 0.076-0.076 0.071-0.243 0.197-0.081 0.061-0.172 0.121-0.086 0.056-0.258 0.152-0.182 0.091-0.091 0.040 2.156 3.746h-0.451l-2.065-3.594-0.172 0.051-0.091 0.025-0.086 0.020-0.182 0.040-0.086 0.015-0.091 0.015-0.096 0.010-0.091 0.015-0.091 0.010-0.385 0.020h-4.211v3.371h-0.375v-12.355zM77.738 4.839h0.481l5.765 12.355h-0.42l-0.941-2.025h-9.283l-0.947 2.025h-0.415l5.76-12.355z"></path>
<path fill="none" stroke="#f2f2f2" stroke-width="2.3531" stroke-miterlimit="4" stroke-linecap="round" stroke-linejoin="round" style="stroke: var(--color2, #f2f2f2)" d="M77.981 5.229l-4.464 9.567h8.924l-4.459-9.567"></path>
<path fill="none" stroke="#f2f2f2" stroke-width="2.3531" stroke-miterlimit="4" stroke-linecap="round" stroke-linejoin="round" style="stroke: var(--color2, #f2f2f2)" d="M104.418 5.213v8.235h4.221l0.106-0.005 0.101-0.005 0.106-0.010 0.202-0.020 0.101-0.015 0.101-0.020 0.192-0.040 0.192-0.051 0.096-0.030 0.091-0.030 0.096-0.035 0.091-0.035 0.091-0.040 0.086-0.040 0.091-0.046 0.172-0.091 0.086-0.051 0.172-0.111 0.081-0.056 0.162-0.121 0.081-0.066 0.076-0.066 0.081-0.071 0.076-0.071 0.152-0.152 0.071-0.076 0.066-0.081 0.071-0.076 0.061-0.081 0.066-0.081 0.056-0.081 0.061-0.081 0.056-0.086 0.152-0.258 0.046-0.086 0.040-0.091 0.046-0.086 0.106-0.273 0.035-0.096 0.025-0.096 0.030-0.091 0.025-0.096 0.020-0.101 0.020-0.096 0.020-0.101 0.015-0.096 0.020-0.202 0.010-0.106 0.005-0.101 0.005-0.106v-0.213l-0.005-0.106-0.005-0.101-0.010-0.106-0.020-0.202-0.015-0.101-0.020-0.101-0.040-0.192-0.025-0.096-0.030-0.096-0.025-0.096-0.035-0.091-0.035-0.096-0.071-0.182-0.046-0.086-0.040-0.091-0.046-0.086-0.152-0.258-0.056-0.086-0.061-0.081-0.056-0.081-0.066-0.081-0.061-0.081-0.071-0.076-0.066-0.081-0.071-0.076-0.152-0.152-0.076-0.071-0.081-0.066-0.076-0.071-0.081-0.061-0.081-0.066-0.081-0.056-0.081-0.061-0.086-0.056-0.258-0.152-0.086-0.046-0.091-0.040-0.086-0.046-0.182-0.071-0.096-0.035-0.091-0.035-0.096-0.025-0.096-0.030-0.096-0.025-0.192-0.040-0.101-0.020-0.101-0.015-0.202-0.020-0.106-0.010-0.101-0.005-0.106-0.005h-4.221"></path>
<path fill="none" stroke="#f2f2f2" stroke-width="2.3531" stroke-miterlimit="4" stroke-linecap="round" stroke-linejoin="round" style="stroke: var(--color2, #f2f2f2)" d="M86.034 5.213v8.235h4.221l0.106-0.005 0.101-0.005 0.106-0.010 0.202-0.020 0.101-0.015 0.101-0.020 0.192-0.040 0.192-0.051 0.096-0.030 0.091-0.030 0.096-0.035 0.091-0.035 0.091-0.040 0.086-0.040 0.091-0.046 0.172-0.091 0.086-0.051 0.172-0.111 0.081-0.056 0.162-0.121 0.081-0.066 0.076-0.066 0.081-0.071 0.076-0.071 0.152-0.152 0.071-0.076 0.066-0.081 0.071-0.076 0.061-0.081 0.066-0.081 0.056-0.081 0.061-0.081 0.056-0.086 0.152-0.258 0.046-0.086 0.040-0.091 0.046-0.086 0.106-0.273 0.035-0.096 0.025-0.096 0.030-0.091 0.025-0.096 0.020-0.101 0.020-0.096 0.020-0.101 0.015-0.096 0.020-0.202 0.010-0.106 0.005-0.101 0.005-0.106v-0.213l-0.005-0.106-0.005-0.101-0.010-0.106-0.020-0.202-0.015-0.101-0.020-0.101-0.040-0.192-0.025-0.096-0.030-0.096-0.025-0.096-0.035-0.091-0.035-0.096-0.071-0.182-0.046-0.086-0.040-0.091-0.046-0.086-0.152-0.258-0.056-0.086-0.061-0.081-0.056-0.081-0.066-0.081-0.061-0.081-0.071-0.076-0.066-0.081-0.071-0.076-0.152-0.152-0.076-0.071-0.081-0.066-0.076-0.071-0.081-0.061-0.081-0.066-0.081-0.056-0.081-0.061-0.086-0.056-0.258-0.152-0.086-0.046-0.091-0.040-0.086-0.046-0.182-0.071-0.096-0.035-0.091-0.035-0.096-0.025-0.096-0.030-0.096-0.025-0.192-0.040-0.101-0.020-0.101-0.015-0.202-0.020-0.106-0.010-0.101-0.005-0.106-0.005h-4.221"></path>
<path fill="none" stroke="#f2f2f2" stroke-width="2.3531" stroke-miterlimit="4" stroke-linecap="round" stroke-linejoin="round" style="stroke: var(--color2, #f2f2f2)" d="M115.645 4.839h7.112v0.375h-6.737v5.613h5.239v0.375h-5.239v5.618h6.737v0.375h-7.112v-12.355"></path>
<path fill="none" stroke="#f2f2f2" stroke-width="2.3531" stroke-miterlimit="4" stroke-linecap="round" stroke-linejoin="round" style="stroke: var(--color2, #f2f2f2)" d="M104.044 4.839h4.606l0.228 0.010 0.223 0.020 0.111 0.015 0.111 0.020 0.106 0.015 0.319 0.076 0.101 0.030 0.106 0.030 0.202 0.071 0.101 0.040 0.289 0.137 0.192 0.101 0.091 0.056 0.096 0.061 0.091 0.061 0.086 0.061 0.091 0.066 0.258 0.213 0.086 0.076 0.086 0.081 0.162 0.162 0.081 0.086 0.076 0.086 0.213 0.258 0.066 0.091 0.182 0.273 0.056 0.091 0.101 0.192 0.091 0.192 0.046 0.101 0.040 0.096 0.071 0.202 0.030 0.106 0.030 0.101 0.030 0.106 0.020 0.106 0.025 0.106 0.020 0.106 0.030 0.223 0.020 0.223 0.005 0.116 0.005 0.111v0.233l-0.005 0.111-0.005 0.116-0.020 0.223-0.015 0.111-0.015 0.106-0.020 0.106-0.025 0.111-0.020 0.106-0.030 0.101-0.030 0.106-0.030 0.101-0.071 0.202-0.040 0.101-0.046 0.096-0.046 0.101-0.046 0.096-0.051 0.096-0.051 0.091-0.056 0.096-0.182 0.273-0.066 0.086-0.071 0.091-0.142 0.172-0.076 0.086-0.081 0.086-0.157 0.157-0.081 0.076-0.076 0.071-0.243 0.197-0.081 0.061-0.172 0.121-0.086 0.056-0.258 0.152-0.182 0.091-0.091 0.040 2.156 3.746h-0.451l-2.065-3.594-0.172 0.051-0.091 0.025-0.086 0.020-0.182 0.040-0.086 0.015-0.091 0.015-0.096 0.010-0.091 0.015-0.091 0.010-0.385 0.020h-4.211v3.371h-0.375v-12.355"></path>
<path fill="none" stroke="#f2f2f2" stroke-width="2.3531" stroke-miterlimit="4" stroke-linecap="round" stroke-linejoin="round" style="stroke: var(--color2, #f2f2f2)" d="M94.685 4.839h7.861v0.375h-3.746v11.981h-0.37v-11.981h-3.746v-0.375"></path>
<path fill="none" stroke="#f2f2f2" stroke-width="2.3531" stroke-miterlimit="4" stroke-linecap="round" stroke-linejoin="round" style="stroke: var(--color2, #f2f2f2)" d="M85.66 4.839h4.606l0.228 0.010 0.223 0.020 0.111 0.015 0.111 0.020 0.106 0.015 0.319 0.076 0.101 0.030 0.106 0.030 0.202 0.071 0.101 0.040 0.289 0.137 0.192 0.101 0.091 0.056 0.096 0.061 0.091 0.061 0.086 0.061 0.091 0.066 0.258 0.213 0.086 0.076 0.086 0.081 0.162 0.162 0.081 0.086 0.076 0.086 0.213 0.258 0.066 0.091 0.182 0.273 0.056 0.091 0.101 0.192 0.091 0.192 0.046 0.101 0.040 0.096 0.071 0.202 0.030 0.106 0.030 0.101 0.030 0.106 0.020 0.106 0.025 0.106 0.020 0.106 0.030 0.223 0.020 0.223 0.005 0.116 0.005 0.111v0.233l-0.005 0.111-0.005 0.116-0.020 0.223-0.015 0.111-0.015 0.106-0.020 0.106-0.025 0.111-0.020 0.106-0.030 0.101-0.030 0.106-0.030 0.101-0.071 0.202-0.040 0.101-0.046 0.096-0.046 0.101-0.046 0.096-0.051 0.096-0.051 0.091-0.056 0.096-0.182 0.273-0.066 0.086-0.071 0.091-0.142 0.172-0.076 0.086-0.081 0.086-0.157 0.157-0.081 0.076-0.076 0.071-0.243 0.197-0.081 0.061-0.172 0.121-0.086 0.056-0.258 0.152-0.182 0.091-0.091 0.040 2.156 3.746h-0.451l-2.065-3.594-0.172 0.051-0.091 0.025-0.086 0.020-0.182 0.040-0.086 0.015-0.091 0.015-0.096 0.010-0.091 0.015-0.091 0.010-0.385 0.020h-4.211v3.371h-0.375v-12.355"></path>
<path fill="none" stroke="#f2f2f2" stroke-width="2.3531" stroke-miterlimit="4" stroke-linecap="round" stroke-linejoin="round" style="stroke: var(--color2, #f2f2f2)" d="M77.738 4.839h0.481l5.765 12.355h-0.42l-0.941-2.025h-9.283l-0.947 2.025h-0.415l5.76-12.355"></path>
<path fill="none" stroke="#f2f2f2" stroke-width="3.7114" stroke-miterlimit="4" stroke-linecap="round" stroke-linejoin="round" style="stroke: var(--color2, #f2f2f2)" d="M20.090 21.082h82.197"></path>
</symbol>
</defs>
</svg>
